<?xml version="1.0" standalone="no"?>
<!DOCTYPE svg PUBLIC "-//W3C//DTD SVG 20010904//EN"
 "http://www.w3.org/TR/2001/REC-SVG-20010904/DTD/svg10.dtd">
<svg version="1.0" xmlns="http://www.w3.org/2000/svg"
 width="505.000000pt" height="505.000000pt" viewBox="0 0 505.000000 505.000000"
 preserveAspectRatio="xMidYMid meet">

<g transform="translate(0.000000,505.000000) scale(0.100000,-0.100000)"
fill="#000000" stroke="none">
<path d="M1553 4814 c-13 -3 -23 -9 -23 -14 0 -5 -13 -11 -30 -15 -16 -4 -30
-11 -30 -16 0 -5 -6 -9 -13 -9 -24 0 -73 -55 -85 -99 -11 -34 -11 -54 -2 -92
7 -27 16 -49 21 -49 5 0 12 -7 16 -16 9 -23 48 -64 62 -64 6 0 11 -4 11 -10 0
-5 11 -10 24 -10 14 0 31 -7 40 -15 8 -8 20 -15 26 -15 16 0 80 -67 80 -85 0
-8 4 -15 9 -15 15 0 23 -37 16 -69 -8 -36 -40 -51 -110 -51 -57 0 -98 11 -121
34 -7 8 -18 16 -24 18 -6 2 -13 21 -17 43 -6 37 -17 54 -35 55 -5 0 -8 -7 -8
-15 0 -8 -4 -15 -10 -15 -6 0 -10 -27 -10 -60 0 -33 4 -60 10 -60 6 0 10 -10
10 -22 0 -13 7 -32 16 -43 12 -17 16 -18 24 -5 10 17 103 17 108 0 4 -12 32
-13 32 -1 0 4 28 11 62 14 34 3 64 10 66 16 2 6 10 11 18 11 8 0 17 7 20 15 4
8 12 15 19 15 8 0 16 9 20 19 3 11 12 22 20 25 8 3 15 12 15 21 0 8 4 15 10
15 5 0 12 23 16 50 4 28 10 50 15 50 5 0 9 14 9 30 0 17 5 30 10 30 6 0 10
-48 10 -125 0 -123 1 -126 26 -150 15 -14 33 -25 40 -25 8 0 14 -4 14 -10 0
-24 45 -7 81 30 36 37 52 80 29 80 -5 0 -10 -9 -10 -20 0 -14 -7 -20 -24 -20
-13 0 -25 6 -27 13 -2 6 -3 60 -1 119 l3 107 32 3 c21 2 33 9 35 21 3 14 -4
17 -32 17 -29 0 -36 4 -36 19 0 11 6 22 13 24 8 4 9 8 1 14 -6 4 -14 28 -17
52 -6 51 -19 62 -67 59 l-35 -3 -3 -60 c-2 -33 -9 -63 -15 -67 -9 -6 -9 -8 1
-8 6 0 12 -7 12 -15 0 -10 -11 -15 -35 -15 -19 0 -35 4 -35 8 0 5 -11 14 -24
21 -13 7 -30 24 -37 37 -7 14 -23 27 -36 30 -13 4 -23 10 -23 14 0 4 -21 13
-46 19 -26 7 -56 23 -70 39 -13 15 -34 37 -45 50 -44 47 -1 92 90 92 83 0 140
-29 141 -72 0 -10 5 -18 10 -18 6 0 10 -7 10 -15 0 -9 9 -15 21 -15 20 0 21 4
17 68 -2 47 -9 74 -20 85 -20 20 -38 22 -38 5 0 -9 -3 -9 -9 1 -9 15 -142 25
-188 15z"/>
<path d="M2378 4799 c-2 -7 -44 -11 -121 -11 -98 0 -117 -2 -117 -15 0 -8 9
-17 20 -20 11 -3 20 -12 20 -19 0 -8 5 -14 10 -14 6 0 10 -87 10 -240 0 -132
-4 -240 -9 -240 -4 0 -11 -17 -14 -39 -3 -26 -16 -50 -40 -75 -34 -34 -67 -47
-67 -26 0 6 -7 10 -16 10 -12 0 -15 -6 -10 -22 3 -13 6 -26 6 -30 0 -14 51 -8
66 6 32 33 181 28 219 -7 33 -29 45 -37 54 -37 6 0 14 -7 18 -15 5 -8 32 -21
61 -27 29 -7 52 -16 52 -20 0 -16 88 -9 94 7 3 8 12 15 21 15 8 0 15 8 15 18
0 15 -8 17 -63 14 -46 -3 -68 1 -78 11 -8 8 -25 18 -37 21 -12 4 -22 11 -22
16 0 4 -9 10 -21 13 -11 3 -23 15 -26 26 -3 12 -9 21 -13 21 -5 0 -12 10 -16
23 -4 12 -12 25 -18 29 -13 8 -21 392 -11 505 6 65 9 72 31 77 17 5 24 13 24
31 0 25 -15 35 -22 14z"/>
<path d="M3150 4736 c0 -24 5 -46 10 -48 6 -2 13 -35 17 -73 7 -75 26 -112 37
-72 3 12 6 50 6 84 0 34 4 63 9 65 5 2 12 22 16 46 l7 42 -51 0 -51 0 0 -44z"/>
<path d="M2500 4460 c0 -5 -6 -10 -14 -10 -20 0 -75 -57 -82 -86 -3 -13 -10
-24 -15 -24 -14 0 -11 -139 4 -155 6 -8 23 -28 37 -45 16 -20 33 -30 52 -30
15 0 28 -4 28 -10 0 -5 14 -10 30 -10 17 0 30 4 30 9 0 5 18 11 40 15 22 3 40
10 40 15 0 5 11 12 24 15 16 4 29 18 37 41 7 19 17 35 21 35 4 0 8 29 8 65 0
37 -4 65 -10 65 -16 0 -11 27 6 34 9 3 19 6 24 6 4 0 10 -55 11 -122 3 -85 8
-123 17 -126 6 -2 12 -10 12 -18 0 -8 9 -14 20 -14 11 0 20 -4 20 -10 0 -5 9
-10 20 -10 11 0 20 4 20 9 0 5 12 12 27 16 15 3 32 14 39 23 12 15 16 14 43
-15 30 -33 51 -42 51 -23 0 6 13 10 30 10 45 0 70 56 28 62 -23 3 -23 5 -19
134 l3 131 -47 5 c-87 10 -85 13 -85 -132 0 -118 -1 -128 -19 -133 -11 -3 -22
-2 -25 1 -3 3 -6 59 -6 124 0 72 -4 118 -10 118 -5 0 -10 7 -10 16 0 14 -9 16
-65 12 -40 -4 -70 -12 -80 -22 -20 -20 -29 -20 -48 -1 -8 7 -26 17 -41 21 -14
3 -26 10 -26 15 0 5 -27 9 -60 9 -33 0 -60 -4 -60 -10z m80 -54 c0 -8 5 -16
12 -18 20 -7 12 -203 -9 -228 -21 -24 -36 -25 -57 -4 -13 12 -16 38 -16 117 0
132 4 147 41 147 18 0 29 -5 29 -14z"/>
<path d="M3440 4460 c0 -5 -11 -10 -23 -10 -25 0 -77 -38 -77 -57 0 -6 -7 -14
-16 -17 -13 -5 -16 -18 -12 -65 3 -50 9 -64 36 -90 17 -18 45 -37 62 -42 46
-16 39 -39 -12 -39 -34 0 -47 6 -67 28 -15 17 -25 23 -28 15 -3 -7 -16 -13
-29 -13 l-24 0 0 120 c0 79 4 120 11 120 6 0 4 7 -5 15 -9 9 -33 15 -63 15
l-49 0 0 -145 c1 -96 5 -148 12 -153 6 -4 14 -17 18 -29 12 -37 80 -41 114 -7
17 18 27 18 46 -1 17 -17 116 -21 116 -5 0 6 5 10 11 10 7 0 27 16 45 35 26
25 34 43 34 70 0 19 -4 35 -10 35 -5 0 -10 5 -10 11 0 13 -41 59 -52 59 -18 0
-50 43 -51 68 -2 24 1 27 26 24 15 -2 43 -18 63 -37 36 -36 64 -37 64 -4 0 10
-4 19 -10 19 -5 0 -12 11 -16 25 -4 15 -16 28 -30 31 -13 3 -24 10 -24 15 0 5
-11 9 -25 9 -14 0 -25 -4 -25 -10z"/>
<path d="M2023 4343 c-19 -7 -16 -60 4 -83 37 -43 103 -11 103 49 0 17 -6 31
-16 35 -18 7 -73 7 -91 -1z"/>
<path d="M1183 3844 c-13 -3 -23 -9 -23 -13 0 -5 -16 -11 -35 -14 -39 -6 -47
-12 -113 -79 -60 -59 -68 -69 -77 -99 -4 -13 -12 -27 -17 -30 -5 -3 -12 -25
-15 -48 -3 -22 -10 -41 -14 -41 -5 0 -9 -31 -9 -70 0 -38 4 -70 9 -70 5 0 11
-22 15 -50 4 -27 11 -50 16 -50 6 0 10 -7 10 -15 0 -9 7 -18 15 -21 8 -4 15
-12 15 -19 0 -18 96 -112 122 -121 13 -4 26 -11 29 -16 3 -5 25 -12 48 -15 22
-3 41 -10 41 -14 0 -5 38 -9 85 -9 47 0 85 4 85 9 0 5 16 12 35 15 19 4 35 11
35 15 0 5 16 12 36 15 19 4 43 16 52 27 9 10 21 19 27 19 5 1 19 11 29 24 18
21 21 22 38 7 23 -20 23 -31 -2 -31 -15 0 -20 -7 -20 -25 0 -21 -5 -25 -30
-25 -33 0 -40 -19 -15 -44 8 -8 15 -24 15 -35 0 -19 -6 -21 -59 -21 -38 0 -61
-4 -64 -12 -4 -10 -6 -10 -6 0 -1 6 -8 12 -16 12 -8 0 -15 -6 -15 -12 0 -10
-2 -10 -8 -1 -5 9 -110 12 -402 14 -330 1 -395 -1 -395 -12 0 -12 66 -14 388
-17 246 -1 387 -6 387 -12 0 -15 127 -13 134 3 5 10 7 10 12 0 3 -7 21 -13 40
-13 26 0 34 -4 34 -17 0 -17 -13 -18 -167 -15 -114 2 -170 7 -176 15 -7 9 -10
9 -14 0 -2 -7 -17 -13 -33 -13 -16 0 -31 6 -33 13 -4 10 -6 10 -6 0 -1 -15
-31 -18 -31 -3 0 6 -97 10 -270 10 -233 0 -270 -2 -270 -15 0 -11 11 -15 40
-15 l40 0 0 -50 c0 -27 4 -50 9 -50 5 0 11 -22 15 -50 4 -27 11 -50 15 -50 5
0 12 -18 16 -40 4 -22 10 -40 14 -40 9 0 32 -145 26 -162 -20 -55 -7 -298 15
-298 5 0 11 -13 15 -29 3 -16 13 -32 21 -35 8 -3 14 -12 14 -20 0 -8 6 -16 13
-18 8 -3 12 -36 14 -111 1 -113 5 -127 31 -127 16 1 16 2 -1 14 -15 12 -17 36
-20 206 -1 148 1 194 11 197 6 3 12 11 12 19 0 24 27 15 34 -11 4 -14 11 -25
16 -25 14 0 21 -53 23 -189 2 -87 7 -126 15 -129 7 -2 12 -14 12 -27 0 -34 10
-55 27 -55 16 0 8 40 -11 52 -14 10 -15 216 0 226 6 4 15 18 19 32 11 37 45
55 45 25 0 -8 5 -15 11 -15 20 0 40 -30 46 -67 3 -21 10 -41 15 -44 13 -8 12
-153 -1 -157 -6 -2 -11 -13 -11 -24 0 -14 5 -18 15 -14 8 3 15 1 15 -4 0 -6 8
-10 18 -9 10 0 12 3 5 6 -9 3 -13 28 -13 75 0 51 3 69 13 66 6 -3 13 -14 15
-26 2 -12 8 -22 13 -22 5 0 9 -15 9 -34 0 -40 8 -66 21 -66 5 0 9 9 9 20 0 11
-4 20 -9 20 -5 0 -12 25 -16 55 -3 30 -11 55 -16 55 -5 0 -9 20 -9 45 0 25 4
45 9 45 5 0 12 12 16 27 10 42 45 59 45 23 0 -11 5 -20 10 -20 6 0 10 -11 10
-24 0 -14 7 -31 15 -40 11 -11 15 -38 15 -105 0 -74 3 -91 15 -91 9 0 15 9 15
25 0 42 23 115 37 115 7 0 13 -7 13 -15 0 -8 5 -15 10 -15 6 0 10 -10 10 -22
0 -21 19 -64 20 -45 0 23 -24 97 -31 97 -5 0 -9 7 -9 15 0 31 -29 14 -36 -20
-11 -59 -30 -42 -37 32 -4 37 -10 69 -15 72 -9 6 -25 71 -17 71 15 0 56 -53
61 -79 8 -37 25 -48 51 -31 16 10 16 11 1 6 -12 -3 -18 0 -18 9 0 8 -4 15 -9
15 -5 0 -12 14 -16 31 -4 17 -13 33 -21 36 -8 3 -14 10 -14 17 0 6 -9 20 -21
29 -16 14 -19 25 -13 50 3 18 11 35 16 38 4 3 11 29 15 57 3 29 10 52 14 52 5
0 9 7 9 15 0 8 5 15 10 15 6 0 10 -13 10 -30 0 -16 4 -30 9 -30 5 0 12 -16 15
-35 4 -19 11 -35 15 -35 5 0 12 -11 15 -24 3 -14 13 -32 22 -40 8 -9 11 -16 6
-16 -5 0 -12 -17 -15 -37 -4 -21 -9 -51 -12 -68 -5 -30 -5 -30 7 3 6 17 15 32
19 32 5 0 9 9 9 20 0 11 6 20 14 20 9 0 16 -19 20 -60 4 -33 11 -60 16 -60 5
0 11 -10 13 -22 2 -13 3 6 1 42 -3 57 -2 62 8 40 7 -14 17 -28 22 -32 6 -4 10
-29 9 -55 0 -26 1 -40 4 -30 7 28 22 19 29 -18 3 -19 10 -35 14 -35 4 0 11
-12 15 -27 4 -16 16 -37 27 -47 21 -20 21 -20 14 10 -4 16 -11 31 -14 34 -15
11 -32 51 -32 74 0 13 -5 26 -12 28 -15 5 -16 77 -2 86 6 4 16 22 23 40 8 17
17 32 21 32 10 0 20 -37 20 -72 0 -16 5 -28 10 -28 6 0 10 -16 10 -35 0 -19
-4 -35 -10 -35 -5 0 -10 -22 -10 -50 0 -27 4 -50 9 -50 9 0 21 80 21 143 0 20
5 37 10 37 6 0 10 33 10 78 1 115 18 286 30 290 5 2 13 21 16 43 4 21 10 39
15 39 5 0 9 15 9 34 0 39 17 57 34 34 6 -8 23 -18 39 -22 15 -3 27 -10 27 -15
0 -5 23 -14 50 -21 28 -7 50 -16 50 -21 0 -5 5 -9 10 -9 11 0 100 -85 100 -95
0 -7 32 -45 54 -64 35 -30 86 -84 86 -91 0 -4 11 -13 25 -20 14 -8 28 -25 32
-38 8 -34 34 -62 56 -62 16 0 18 5 12 33 -4 17 -11 34 -16 35 -5 2 -9 9 -9 16
0 14 -55 76 -68 76 -14 0 -112 99 -112 113 0 7 -9 18 -20 25 -11 7 -20 17 -20
23 0 17 -52 64 -87 80 -18 7 -33 17 -33 21 0 3 -18 9 -40 13 -22 4 -40 11 -40
16 0 5 -6 9 -14 9 -8 0 -21 6 -28 13 -7 7 -28 19 -45 26 -18 7 -33 17 -33 22
0 5 -6 9 -13 9 -15 0 -44 32 -60 68 -7 14 -23 38 -37 53 -66 71 -70 79 -70
134 0 29 -4 55 -10 57 -5 2 -12 22 -16 46 -5 35 -4 42 10 42 9 0 16 -4 16 -9
0 -5 11 -19 25 -32 13 -13 25 -30 25 -36 0 -7 4 -13 10 -13 5 0 12 -16 16 -35
3 -19 10 -35 15 -35 5 0 9 -7 9 -16 0 -8 17 -31 38 -50 20 -19 47 -44 60 -55
15 -15 29 -19 47 -15 14 4 25 10 25 15 0 4 8 17 18 29 19 21 19 92 1 92 -5 0
-9 7 -9 15 0 9 -7 18 -15 21 -8 4 -15 12 -15 19 0 14 -167 185 -181 185 -16 0
-89 81 -95 106 -3 13 -10 24 -15 24 -5 0 -9 5 -9 10 0 6 7 10 15 10 8 0 15 -7
15 -15 0 -8 6 -15 14 -15 8 0 16 -7 20 -15 3 -8 12 -15 21 -15 8 0 15 -4 15
-9 0 -5 14 -14 30 -20 17 -5 30 -14 30 -19 0 -6 11 -13 24 -16 14 -3 67 -49
119 -101 86 -87 127 -114 127 -84 0 6 -18 29 -40 51 -22 22 -40 44 -40 49 0 4
-10 11 -22 14 -19 6 -78 59 -78 70 0 2 9 1 20 -2 11 -3 20 -9 20 -13 0 -4 12
-11 26 -14 28 -7 36 -13 96 -68 22 -21 47 -38 54 -38 22 0 51 -35 59 -69 4
-17 10 -31 13 -31 4 0 14 -15 21 -32 8 -18 21 -39 28 -46 7 -7 13 -20 13 -28
0 -8 4 -14 10 -14 5 0 12 -11 16 -25 3 -14 10 -25 14 -25 4 0 13 -21 19 -46
13 -50 34 -78 69 -88 12 -4 22 -11 22 -15 0 -14 169 -179 190 -186 11 -3 20
-11 20 -16 0 -5 6 -9 12 -9 7 0 26 -15 43 -34 32 -35 69 -53 79 -37 3 5 -7 23
-24 39 -16 17 -30 35 -30 40 0 5 -15 16 -32 23 -30 12 -88 65 -88 80 0 3 -12
12 -27 20 -16 8 -53 39 -83 69 -30 31 -63 59 -72 63 -10 3 -18 13 -18 22 0 8
-4 15 -10 15 -5 0 -12 16 -16 35 -3 19 -9 35 -13 35 -4 0 -13 16 -21 35 -8 19
-17 35 -21 35 -4 0 -10 12 -13 26 -4 14 -17 35 -29 47 -32 32 -47 63 -47 97 0
20 -5 30 -15 30 -8 0 -15 5 -15 10 0 6 -11 10 -25 10 -14 0 -29 8 -35 20 -6
11 -17 20 -25 20 -9 0 -23 9 -32 20 -10 11 -23 20 -30 20 -7 0 -13 4 -13 9 0
5 -13 12 -30 16 -16 4 -30 11 -30 16 0 5 -7 9 -15 9 -12 0 -15 18 -15 105 0
87 3 105 15 105 8 0 15 -9 15 -20 0 -11 4 -20 10 -20 5 0 12 -11 16 -25 3 -14
9 -25 13 -25 4 0 12 -21 19 -46 7 -25 18 -52 25 -60 30 -33 37 -44 42 -67 12
-48 59 -45 70 4 4 16 10 29 15 29 5 0 11 14 15 30 4 17 10 30 14 30 4 0 13 16
21 35 8 19 17 35 21 35 4 0 9 9 12 20 3 11 10 20 16 20 7 0 11 -40 11 -120 0
-73 -4 -120 -10 -120 -5 0 -10 -7 -10 -15 0 -12 17 -15 95 -15 57 0 95 4 95
10 0 6 7 10 15 10 13 0 15 22 15 140 0 87 -4 140 -10 140 -6 0 -10 43 -10 110
0 67 4 110 10 110 6 0 10 16 10 35 0 21 -5 35 -12 35 -8 0 -9 3 -3 8 9 6 35
69 35 85 0 4 -34 7 -75 7 -60 0 -75 -3 -75 -15 0 -8 -4 -15 -9 -15 -4 0 -14
-20 -21 -45 -7 -25 -16 -45 -20 -45 -4 0 -11 -11 -14 -25 -4 -14 -10 -25 -15
-25 -5 0 -12 -13 -16 -30 -4 -16 -10 -30 -14 -30 -4 0 -13 -16 -21 -35 -8 -19
-17 -35 -21 -35 -4 0 -9 -12 -11 -27 -4 -37 -25 -40 -33 -4 -4 17 -10 31 -14
31 -4 0 -13 23 -20 50 -7 28 -17 50 -21 50 -5 0 -12 16 -16 35 -3 19 -10 35
-15 35 -5 0 -9 6 -9 13 0 8 -9 24 -19 36 -11 13 -23 35 -26 51 -6 27 -9 28
-83 34 -127 9 -152 7 -152 -10 0 -8 6 -17 14 -20 8 -3 19 -25 26 -50 7 -24 17
-44 21 -44 5 0 9 -93 9 -206 l0 -206 -31 6 c-16 3 -37 13 -45 21 -9 8 -22 15
-30 15 -21 0 -22 49 -1 62 15 9 16 226 2 236 -6 4 -17 26 -23 49 -14 46 -120
163 -147 163 -8 0 -15 5 -15 10 0 6 -6 10 -14 10 -8 0 -22 8 -31 17 -14 13
-40 17 -124 19 -58 1 -116 0 -128 -2z m-37 -188 c7 -8 19 -16 25 -18 9 -3 9
-9 0 -25 -6 -12 -11 -31 -11 -42 0 -12 -4 -21 -10 -21 -5 0 -10 -9 -10 -21 0
-18 -4 -20 -27 -14 -15 3 -31 12 -36 18 -12 19 1 95 20 116 22 24 30 25 49 7z
m214 -1 c0 -8 -4 -15 -10 -15 -5 0 -10 7 -10 15 0 8 5 15 10 15 6 0 10 -7 10
-15z m34 -37 c7 -5 4 -8 -6 -8 -12 0 -18 7 -17 23 0 15 2 17 6 7 3 -8 11 -18
17 -22z m291 -508 c17 -7 15 -9 -12 -9 -17 -1 -35 4 -38 9 -7 12 22 12 50 0z
m55 -50 c0 -5 6 -10 13 -10 15 0 57 -44 57 -59 0 -6 -13 -11 -29 -11 -30 0
-81 37 -81 59 0 6 -4 11 -10 11 -5 0 -10 5 -10 10 0 6 14 10 30 10 17 0 30 -4
30 -10z m114 -116 c8 -3 18 -21 22 -40 3 -19 10 -34 15 -34 5 0 9 -13 9 -29 0
-40 -25 -47 -54 -16 -13 14 -26 25 -30 25 -9 0 -46 33 -46 42 0 4 15 8 33 10
32 4 32 4 -10 12 -63 12 -65 36 -4 36 27 0 56 -3 65 -6z m-1048 -79 c-1 -26 4
-49 11 -53 7 -4 15 -27 19 -50 4 -23 10 -42 15 -42 15 0 10 -80 -6 -96 -13
-13 -15 -13 -15 -1 0 8 -7 17 -15 21 -8 3 -15 12 -15 21 0 8 -4 15 -9 15 -5 0
-14 21 -21 47 -6 26 -16 51 -22 54 -5 3 -12 34 -15 68 l-6 61 40 0 40 0 -1
-45z m67 5 c3 -22 12 -47 21 -55 9 -9 16 -22 16 -30 0 -7 6 -15 12 -17 8 -3 2
-15 -17 -32 l-30 -28 -9 43 c-6 24 -16 50 -23 57 -7 7 -13 24 -13 38 0 13 -4
24 -10 24 -5 0 -2 9 7 20 26 30 40 24 46 -20z m94 -6 c-7 -68 -49 -84 -62 -23
-4 16 -11 29 -16 29 -5 0 -9 9 -9 20 0 17 7 20 46 20 l47 0 -6 -46z m52 -144
c5 -3 11 -21 15 -40 3 -19 3 -28 -1 -20 -3 8 -19 27 -36 42 -32 30 -35 46 -22
138 13 92 30 81 33 -22 2 -51 7 -95 11 -98z m98 182 c6 -4 15 -20 18 -35 4
-15 11 -27 16 -27 5 0 9 -13 9 -30 0 -16 -4 -30 -9 -30 -5 0 -12 -13 -16 -29
-3 -16 -13 -32 -21 -35 -8 -3 -14 -12 -14 -21 0 -8 -2 -15 -4 -15 -2 0 -11 -3
-20 -6 -12 -5 -16 0 -16 19 0 14 -5 27 -11 29 -12 4 -25 148 -16 172 7 17 62
22 84 8z m53 -17 c0 -9 -6 -12 -15 -9 -8 4 -15 10 -15 15 0 5 7 9 15 9 8 0 15
-7 15 -15z m60 -50 c0 -40 -4 -65 -11 -65 -6 0 -13 9 -16 20 -3 11 -9 20 -14
20 -5 0 -9 9 -9 20 0 11 5 20 10 20 6 0 10 11 10 25 0 16 6 25 15 25 12 0 15
-14 15 -65z m133 28 c-3 -21 -9 -40 -13 -43 -4 -3 -11 -25 -15 -49 -4 -25 -13
-51 -20 -58 -7 -7 -15 -18 -18 -25 -6 -17 -36 20 -37 45 0 9 -4 17 -10 17 -6
0 -10 32 -10 75 l0 75 64 0 65 0 -6 -37z m83 21 c-3 -9 -6 -38 -6 -65 0 -38
-3 -47 -15 -43 -8 3 -17 21 -21 40 -3 19 -10 34 -15 34 -5 0 -9 11 -9 25 0 22
4 25 36 25 29 0 35 -3 30 -16z m91 -41 c-3 -31 -10 -59 -16 -62 -5 -3 -12 -23
-16 -44 -8 -39 -35 -53 -35 -17 0 11 -4 20 -10 20 -6 0 -10 28 -10 65 0 37 4
65 10 65 6 0 10 7 10 15 0 11 11 15 36 15 l37 0 -6 -57z m73 27 c0 -16 4 -30
8 -30 10 0 35 -50 28 -57 -7 -7 -46 30 -46 43 0 7 -7 14 -15 18 -8 3 -15 17
-15 31 0 18 5 25 20 25 16 0 20 -7 20 -30z m-36 -56 c4 -14 20 -38 36 -52 28
-26 28 -29 27 -120 -2 -53 -7 -96 -13 -100 -6 -4 -14 -19 -18 -34 -8 -35 -26
-37 -26 -4 0 14 -7 32 -15 40 -9 8 -21 30 -27 48 -7 18 -18 39 -25 47 -14 13
-9 70 6 81 4 3 13 31 20 63 13 62 25 72 35 31z m-184 -34 c4 0 11 -12 14 -26
4 -15 14 -33 22 -41 8 -9 18 -28 21 -44 3 -16 9 -29 14 -29 5 0 9 -7 9 -15 0
-8 -4 -15 -9 -15 -5 0 -11 -12 -14 -28 -6 -30 -46 -82 -64 -82 -6 0 -14 18
-18 40 -4 22 -11 40 -15 40 -5 0 -11 14 -15 30 -4 17 -11 30 -16 30 -5 0 -9 9
-9 20 0 11 4 20 10 20 5 0 12 16 16 35 3 19 10 35 15 35 5 0 9 13 9 28 0 35
14 52 18 23 2 -12 7 -21 12 -21z m-190 -25 c0 -6 9 -22 20 -35 11 -13 20 -34
20 -47 0 -12 5 -23 10 -23 6 0 10 -11 10 -25 0 -14 -4 -25 -10 -25 -5 0 -10
-7 -10 -15 0 -8 -6 -15 -14 -15 -8 0 -17 -13 -21 -30 -4 -16 -10 -30 -15 -30
-4 0 -11 -10 -15 -22 -6 -20 -8 -20 -12 -5 -2 9 -9 17 -14 17 -5 0 -9 7 -9 15
0 9 -7 18 -15 21 -8 4 -15 11 -15 18 0 6 -9 19 -20 29 -11 9 -20 23 -20 30 0
8 9 24 20 37 11 13 20 29 20 35 0 7 7 15 15 19 8 3 15 12 15 21 0 8 4 15 9 15
5 0 11 9 14 20 6 22 37 18 37 -5z m473 1 c4 -10 1 -13 -9 -9 -15 6 -19 23 -5
23 5 0 11 -7 14 -14z m-693 -68 c0 -5 5 -14 10 -21 41 -49 47 -60 43 -77 -3
-11 -9 -20 -13 -20 -4 0 -11 -16 -14 -35 -4 -19 -11 -35 -16 -35 -6 0 -10 -11
-10 -25 0 -14 -2 -25 -5 -25 -9 0 -45 35 -45 44 0 5 -11 19 -25 32 -21 20 -25
32 -25 84 0 33 4 60 10 60 6 0 10 7 10 15 0 9 7 18 15 21 8 4 15 12 15 20 0
10 7 7 25 -8 14 -12 25 -25 25 -30z m690 12 c0 -11 -4 -20 -10 -20 -5 0 -10 9
-10 20 0 11 5 20 10 20 6 0 10 -9 10 -20z m-879 -60 c5 0 9 -7 9 -15 0 -9 7
-18 15 -21 18 -7 20 -40 3 -58 -19 -20 -32 0 -46 70 -14 72 -14 102 0 57 6
-18 15 -33 19 -33z m914 30 c4 -16 10 -30 14 -30 5 0 13 -15 19 -32 11 -32 11
-31 7 15 l-5 47 21 -19 c19 -17 20 -26 14 -85 -4 -36 -11 -66 -15 -66 -12 0
-30 -84 -30 -139 0 -28 -4 -51 -10 -51 -5 0 -11 -24 -11 -52 -1 -29 -3 -45 -6
-35 -2 9 -9 17 -14 17 -13 0 -11 28 3 32 15 5 13 199 -2 208 -13 8 -24 139
-16 184 8 44 22 47 31 6z m-399 -65 c3 -14 10 -25 15 -25 5 0 12 -18 15 -40 4
-22 10 -40 15 -40 5 0 9 -16 9 -35 0 -19 -4 -35 -10 -35 -5 0 -13 -18 -16 -40
-4 -22 -10 -40 -15 -40 -5 0 -9 -11 -9 -24 0 -38 -12 -86 -21 -86 -5 0 -9 23
-9 50 0 28 5 50 10 50 6 0 10 47 10 120 0 73 -4 120 -10 120 -5 0 -10 11 -10
25 0 14 4 25 10 25 5 0 12 -11 16 -25z m-32 -216 c-6 -133 -7 -136 -25 -121
-11 9 -19 22 -19 29 0 7 -4 13 -9 13 -5 0 -13 15 -16 33 -4 17 -12 35 -17 38
-13 8 -13 92 1 97 6 2 11 9 11 16 0 12 11 28 52 75 22 26 29 -35 22 -180z
m226 85 c0 -56 -4 -94 -10 -94 -6 0 -10 -28 -10 -65 0 -64 0 -65 -20 -48 -11
10 -20 27 -20 40 0 12 -6 28 -14 35 -7 8 -17 33 -21 56 -4 23 -11 42 -16 42
-16 0 -10 20 14 43 12 12 29 36 37 52 18 36 29 45 47 38 9 -4 13 -30 13 -99z
m-436 80 c3 -9 6 -86 6 -171 l0 -156 -20 23 c-11 13 -20 31 -20 42 0 10 -4 18
-9 18 -6 0 -13 20 -17 45 -3 25 -10 45 -15 45 -5 0 -9 11 -9 25 0 14 4 25 9
25 5 0 12 14 16 30 4 17 10 30 15 30 4 0 10 14 14 30 6 33 20 39 30 14z m474
-9 c7 -14 12 -34 12 -45 0 -10 5 -20 12 -22 19 -7 13 -64 -10 -89 -12 -12 -22
-29 -22 -36 0 -7 -4 -13 -10 -13 -6 0 -10 45 -10 115 0 115 7 137 28 90z
m-666 -101 c4 -54 12 -100 18 -102 12 -4 14 -42 1 -42 -4 0 -14 -33 -21 -74
-7 -44 -18 -77 -26 -80 -8 -3 -14 1 -14 9 0 8 -4 15 -9 15 -5 0 -12 16 -15 35
-4 19 -11 35 -16 35 -6 0 -10 29 -10 65 0 36 4 65 9 65 5 0 10 29 13 64 2 42
9 69 21 80 9 10 17 22 17 28 0 5 6 8 13 6 8 -3 14 -39 19 -104z m787 56 c5 0
11 -23 14 -51 7 -55 -1 -139 -13 -139 -4 0 -13 20 -20 45 -7 25 -17 45 -21 45
-5 0 -9 18 -9 40 0 22 5 40 10 40 6 0 10 9 10 19 0 11 3 28 8 38 6 15 8 13 10
-9 2 -16 7 -28 11 -28z m-549 10 c11 -11 22 -31 26 -45 3 -14 10 -25 15 -25 5
0 9 -7 9 -15 0 -8 -4 -15 -9 -15 -5 0 -12 -18 -16 -40 -4 -22 -11 -40 -16 -40
-5 0 -9 -11 -9 -25 0 -16 -6 -25 -15 -25 -12 0 -15 16 -15 84 0 58 4 86 13 90
10 5 10 7 0 12 -12 5 -19 64 -8 64 3 0 14 -9 25 -20z m-200 -21 c0 -6 7 -18
16 -26 11 -12 14 -27 10 -51 -3 -19 -7 -37 -10 -39 -11 -11 -26 10 -26 38 0
16 -4 29 -10 29 -5 0 -10 14 -10 30 0 20 5 30 15 30 8 0 15 -5 15 -11z m80
-159 c4 -3 10 -20 13 -38 4 -18 14 -40 22 -48 21 -21 19 -67 -5 -94 l-20 -23
0 26 c0 15 -4 27 -10 27 -5 0 -10 9 -10 20 0 23 -21 72 -35 82 -15 11 -11 82
5 100 14 15 16 13 24 -15 6 -18 13 -34 16 -37z m616 35 c3 -19 10 -35 14 -35
4 0 13 -19 20 -42 8 -24 19 -46 25 -50 7 -5 6 -8 -1 -8 -6 0 -17 -20 -24 -45
-7 -25 -17 -45 -21 -45 -5 0 -9 -9 -9 -20 0 -12 -7 -20 -16 -20 -9 0 -18 9
-21 20 -3 11 -9 20 -14 20 -5 0 -9 6 -9 13 0 7 -10 24 -22 37 -24 26 -32 95
-12 108 5 4 16 22 23 40 8 17 17 32 22 32 5 0 9 7 9 15 0 31 29 14 36 -20z
m-414 -55 c4 0 8 -9 8 -19 0 -19 8 -30 50 -64 17 -14 20 -25 15 -45 -4 -15
-13 -31 -21 -35 -8 -4 -14 -15 -14 -22 0 -8 -4 -15 -10 -15 -5 0 -10 -7 -10
-15 0 -24 -27 -17 -34 8 -3 13 -15 34 -26 47 -11 13 -20 29 -20 36 0 7 -5 14
-12 16 -15 5 -15 71 0 76 6 2 14 19 18 38 3 19 10 34 15 34 5 0 10 8 10 18 1
9 6 0 12 -20 6 -21 14 -38 19 -38z m-15 -287 c-3 -10 -5 -2 -5 17 0 19 2 27 5
18 2 -10 2 -26 0 -35z"/>
<path d="M337 3783 c-4 -3 -7 -118 -7 -255 0 -159 -4 -248 -10 -248 -6 0 -10
-35 -10 -85 l0 -85 221 2 c198 3 221 5 230 21 6 9 26 32 44 51 19 18 35 38 35
44 0 6 6 12 13 15 8 2 12 27 11 76 0 58 -4 75 -17 83 -9 5 -17 13 -17 19 0 12
-49 59 -61 59 -19 0 -7 29 26 63 31 31 35 42 35 87 0 27 -4 50 -9 50 -5 0 -12
11 -15 25 -3 13 -18 37 -32 52 -23 25 -34 28 -101 32 -42 2 -94 -2 -116 -9
-28 -8 -43 -8 -50 -1 -12 12 -159 15 -170 4z m273 -52 c0 -5 13 -12 29 -16 47
-10 58 -96 17 -139 -20 -23 -31 -26 -89 -26 l-65 0 6 62 c4 50 10 66 31 85 14
12 31 27 36 32 13 13 35 14 35 2z m58 -298 c41 -40 42 -43 42 -108 0 -59 -3
-70 -27 -96 -16 -16 -38 -29 -50 -29 -13 0 -23 -4 -23 -10 0 -5 -9 -10 -20
-10 -11 0 -20 5 -20 10 0 6 -6 10 -13 10 -7 0 -23 9 -35 20 -20 19 -22 30 -22
142 l0 120 63 -4 c59 -3 67 -7 105 -45z"/>
<path d="M2843 3773 c-18 -2 -33 -8 -33 -14 0 -5 -14 -9 -30 -9 -18 0 -33 -6
-36 -15 -9 -23 -23 -18 -30 10 -6 22 -11 25 -55 25 -27 0 -49 -4 -49 -10 0 -5
-7 -10 -15 -10 -8 0 -15 5 -15 10 0 6 -9 10 -20 10 -19 0 -20 -7 -20 -179 0
-100 -4 -181 -9 -183 -5 -1 -11 -76 -13 -166 l-3 -162 80 0 c67 0 83 3 94 19
11 15 17 16 37 7 13 -6 24 -14 24 -18 0 -5 38 -8 85 -8 47 0 85 4 85 9 0 5 18
11 39 15 22 3 46 13 55 21 8 8 19 15 25 15 6 0 11 6 11 14 0 8 7 16 15 20 8 3
15 12 15 20 0 8 6 16 13 19 8 2 12 26 11 74 -1 64 -4 72 -33 102 -17 17 -31
36 -31 41 0 6 -7 10 -15 10 -26 0 -28 28 -3 54 47 51 52 61 56 117 4 55 3 58
-37 98 -22 22 -47 41 -55 41 -8 0 -16 4 -18 9 -4 10 -82 19 -125 14z m30 -105
c29 -28 38 -61 31 -110 -8 -45 -37 -58 -130 -58 l-64 0 0 68 c0 58 3 70 22 87
48 42 104 47 141 13z m-33 -237 c3 -3 17 -12 33 -20 15 -8 30 -25 33 -38 10
-40 -1 -144 -17 -154 -36 -23 -122 -23 -159 1 -11 7 -16 34 -18 114 l-4 105
34 4 c36 4 90 -2 98 -12z"/>
<path d="M4540 3761 c0 -5 -18 -11 -40 -15 -22 -3 -40 -11 -40 -16 0 -6 -8
-14 -17 -17 -25 -10 -73 -61 -73 -78 0 -8 -4 -15 -10 -15 -5 0 -10 -25 -10
-55 0 -30 4 -55 8 -55 4 0 14 -20 21 -45 7 -25 16 -45 20 -45 5 0 25 -15 78
-59 6 -6 23 -13 37 -17 14 -3 26 -10 26 -14 0 -4 13 -13 29 -18 47 -16 76 -52
75 -92 0 -36 -28 -80 -51 -80 -7 0 -13 -4 -13 -10 0 -5 -20 -10 -45 -10 -25 0
-45 5 -45 10 0 6 -9 10 -21 10 -12 0 -23 8 -26 20 -3 11 -9 20 -13 20 -4 0
-10 20 -12 44 -3 25 -13 52 -22 61 -14 15 -17 14 -37 -4 -20 -19 -21 -26 -15
-98 4 -43 11 -80 16 -83 5 -3 12 -18 15 -33 8 -30 35 -36 59 -12 17 17 46 20
46 5 0 -6 30 -10 70 -10 39 0 70 4 70 9 0 5 16 12 35 15 19 4 35 11 35 16 0 6
7 10 15 10 20 0 71 52 80 81 4 13 13 27 19 31 17 11 14 151 -4 170 -8 9 -24
28 -35 44 -29 40 -45 54 -60 54 -7 0 -15 6 -18 14 -3 7 -22 16 -41 20 -20 4
-36 11 -36 16 0 6 -11 10 -25 10 -14 0 -29 8 -35 20 -6 11 -17 20 -25 20 -10
0 -15 11 -15 35 0 19 5 35 11 35 6 0 18 7 27 16 12 13 28 15 71 11 31 -3 57
-11 59 -17 2 -5 10 -10 18 -10 8 0 14 -5 14 -11 0 -20 50 -59 74 -59 13 0 26
6 29 14 7 18 -3 56 -14 56 -5 0 -9 19 -9 43 0 30 -6 47 -20 60 -19 16 -22 16
-37 2 -16 -17 -65 -13 -71 6 -5 11 -122 12 -122 0z m40 -431 c0 -5 -4 -10 -10
-10 -5 0 -10 5 -10 10 0 6 5 10 10 10 6 0 10 -4 10 -10z"/>
<path d="M3188 3741 c25 -16 29 -72 20 -339 -7 -220 -11 -277 -23 -289 -8 -8
-15 -19 -15 -24 0 -5 91 -9 220 -9 l221 0 6 30 c3 17 9 30 14 30 5 0 9 9 9 19
0 17 -6 19 -62 14 -35 -3 -64 -10 -66 -14 -2 -5 -33 -9 -68 -9 l-64 0 0 135 0
135 101 0 c109 0 129 8 129 54 0 33 -20 38 -133 35 l-92 -3 -3 44 c-2 25 -1
64 3 88 l6 43 57 -7 c31 -4 59 -10 62 -14 3 -4 21 -11 40 -15 19 -4 38 -13 43
-19 5 -8 10 -7 17 4 11 16 8 96 -5 108 -3 4 -102 8 -218 9 -117 1 -206 -1
-199 -6z"/>
<path d="M3730 3740 c-4 -3 -10 -146 -13 -319 -5 -233 -10 -317 -19 -322 -21
-13 -6 -17 92 -21 l95 -3 2 267 c2 252 3 269 22 289 28 30 105 23 144 -13 23
-22 27 -34 29 -84 2 -80 -18 -134 -50 -134 -6 0 -12 -7 -16 -15 -4 -10 -20
-15 -50 -15 -35 0 -46 -4 -51 -19 -7 -23 4 -71 16 -71 5 0 9 -7 9 -15 0 -7 6
-18 13 -22 6 -4 19 -21 27 -38 8 -16 21 -36 28 -43 6 -7 12 -20 12 -28 0 -7
11 -16 25 -20 14 -3 30 -15 36 -25 5 -11 16 -19 24 -19 8 0 15 -4 15 -10 0 -5
14 -10 30 -10 17 0 30 4 30 9 0 4 19 11 41 14 23 3 45 10 48 15 3 5 16 14 29
21 34 18 21 36 -24 37 -44 0 -77 25 -89 66 -5 12 -26 41 -48 63 -40 40 -40 40
-116 39 -42 -1 -68 1 -58 3 9 3 17 8 17 12 0 5 35 11 77 14 43 3 79 11 81 16
2 6 8 11 14 11 17 0 87 77 94 104 3 14 10 26 15 26 5 0 9 23 9 50 0 28 -4 50
-9 50 -5 0 -12 16 -15 35 -4 19 -10 35 -14 35 -6 0 -30 19 -80 61 -15 13 -163
13 -171 0 -3 -4 -21 -12 -38 -16 -26 -5 -33 -3 -33 8 0 12 -18 16 -86 19 -47
2 -89 1 -94 -2z m480 -630 c0 -16 -4 -30 -10 -30 -5 0 -10 14 -10 30 0 17 5
30 10 30 6 0 10 -13 10 -30z"/>
<path d="M1550 1910 c0 -16 -4 -30 -10 -30 -5 0 -10 -10 -10 -22 l0 -22 20 22
c21 22 28 82 10 82 -5 0 -10 -13 -10 -30z"/>
<path d="M961 1914 c0 -11 3 -14 6 -6 3 7 2 16 -1 19 -3 4 -6 -2 -5 -13z"/>
<path d="M940 1860 c0 -11 5 -20 10 -20 6 0 10 9 10 20 0 11 -4 20 -10 20 -5
0 -10 -9 -10 -20z"/>
</g>
</svg>
