<?xml version="1.0" standalone="no"?>
<!DOCTYPE svg PUBLIC "-//W3C//DTD SVG 20010904//EN"
 "http://www.w3.org/TR/2001/REC-SVG-20010904/DTD/svg10.dtd">
<svg version="1.0" xmlns="http://www.w3.org/2000/svg"
 width="805.000000pt" height="905.000000pt" viewBox="0 0 805.000000 905.000000"
 preserveAspectRatio="xMidYMid meet">

<g transform="translate(0.000000,905.000000) scale(0.100000,-0.100000)"
fill="#000000" stroke="none">
<path d="M6969 8920 c0 -8 0 -72 1 -143 1 -157 -6 -165 -84 -88 -28 28 -58 51
-65 51 -11 0 -10 -4 2 -18 10 -10 15 -21 12 -24 -3 -3 1 -11 10 -18 8 -7 15
-21 15 -31 0 -21 51 -123 76 -150 13 -15 16 -30 10 -73 -3 -30 -11 -67 -16
-81 -9 -23 -14 -26 -42 -20 -62 14 -292 146 -327 189 -16 19 -41 21 -41 3 0
-7 20 -33 45 -57 25 -24 45 -49 45 -55 0 -13 202 -215 216 -215 15 0 67 -57
70 -76 3 -23 -40 -230 -60 -284 -8 -25 -16 -55 -16 -67 0 -12 -4 -25 -10 -28
-5 -3 -10 -17 -10 -30 0 -13 -4 -27 -10 -30 -5 -3 -10 -14 -10 -24 0 -10 -6
-31 -14 -47 -35 -72 -76 -174 -76 -187 0 -9 -3 -17 -7 -19 -5 -1 -19 -25 -32
-53 -14 -27 -32 -58 -40 -68 -16 -19 -35 -51 -50 -82 -5 -12 -16 -27 -25 -34
-9 -7 -16 -17 -16 -22 0 -5 -29 -39 -65 -76 l-64 -68 -168 -7 c-218 -9 -313
-18 -393 -38 -19 -4 -60 -14 -90 -20 -64 -13 -270 -79 -285 -90 -5 -5 -31 -11
-58 -15 -35 -5 -53 -3 -70 8 -23 15 -23 17 -13 100 6 47 14 89 19 93 4 4 7 18
7 31 0 12 5 23 10 23 6 0 10 9 10 19 0 11 4 21 8 23 9 4 64 116 60 122 -2 2 6
15 18 28 18 21 54 91 98 190 9 20 16 45 16 56 0 12 4 23 9 26 9 6 12 16 35
146 28 154 18 398 -24 580 -6 25 -12 54 -14 66 -18 104 -118 416 -136 422 -9
3 -11 -6 -6 -34 15 -98 27 -268 32 -484 7 -254 -4 -370 -47 -488 -11 -31 -21
-61 -22 -66 -4 -21 -115 -234 -143 -275 -16 -24 -34 -52 -40 -62 -6 -11 -18
-27 -27 -37 -10 -10 -17 -23 -17 -29 0 -5 -9 -18 -20 -28 -11 -10 -17 -21 -15
-25 2 -4 -3 -15 -13 -23 -10 -9 -24 -32 -32 -52 -8 -19 -17 -35 -22 -35 -4 0
-8 -9 -8 -20 0 -11 -4 -20 -10 -20 -5 0 -10 -6 -10 -14 0 -7 -7 -27 -15 -42
-8 -16 -15 -37 -15 -46 0 -9 -4 -19 -9 -22 -5 -4 -12 -29 -16 -56 -4 -28 -13
-57 -21 -65 -36 -35 -176 -81 -274 -90 -72 -6 -78 -5 -150 31 -239 117 -356
396 -310 741 14 105 40 243 50 268 4 11 14 40 21 65 7 25 21 65 31 88 19 47
16 71 -8 51 -8 -6 -28 -41 -45 -78 -18 -36 -37 -73 -45 -81 -7 -8 -13 -18 -13
-23 0 -4 -12 -32 -26 -62 -14 -31 -25 -61 -25 -69 0 -7 -3 -16 -7 -20 -4 -4
-13 -26 -19 -49 -7 -23 -22 -76 -34 -117 -45 -156 -54 -213 -54 -355 -1 -131
1 -145 28 -220 16 -44 38 -95 48 -112 10 -18 28 -50 39 -70 12 -21 24 -40 28
-43 4 -3 15 -22 25 -44 l18 -38 -48 -49 c-53 -54 -66 -57 -155 -38 -57 12
-149 2 -239 -27 -52 -17 -213 -95 -218 -106 -2 -5 -14 -8 -26 -8 -12 0 -26 -4
-31 -9 -6 -4 -40 -19 -77 -31 -66 -23 -68 -23 -88 -5 -11 10 -20 14 -20 10 0
-5 -10 1 -22 12 -13 11 -38 26 -55 34 -18 8 -33 17 -33 21 0 5 -7 8 -15 8 -8
0 -29 8 -47 18 -40 23 -72 32 -168 48 -33 6 -100 57 -100 77 0 6 -20 33 -45
61 -81 91 -85 95 -85 104 0 5 -13 22 -28 38 -16 17 -32 36 -36 44 -17 36 -35
63 -60 90 -14 16 -26 34 -26 38 0 5 -9 17 -20 27 -11 10 -17 21 -15 25 2 4 -4
15 -15 25 -11 10 -20 23 -20 30 0 7 -9 20 -20 30 -11 10 -20 24 -20 32 0 7 -4
13 -10 13 -5 0 -10 6 -10 13 0 7 -9 23 -20 35 -11 12 -19 24 -18 26 2 3 -4 13
-12 23 -9 10 -23 35 -33 55 -10 20 -21 39 -26 42 -12 8 -127 242 -142 291 -7
22 -17 44 -21 49 -4 6 -8 25 -8 42 0 18 -4 35 -8 38 -5 3 -9 22 -10 43 -1 21
-7 62 -13 92 -6 30 -10 98 -8 152 8 211 -35 75 -63 -197 -14 -139 1 -302 33
-370 6 -11 9 -24 8 -30 -5 -19 59 -237 81 -276 6 -10 10 -24 10 -33 0 -8 9
-30 20 -50 11 -19 20 -38 21 -43 5 -23 15 -47 59 -137 41 -84 56 -119 65 -155
1 -3 7 -18 13 -33 7 -16 12 -42 12 -58 0 -29 -1 -30 -37 -23 -21 4 -48 11 -61
15 -13 5 -36 9 -51 9 -18 0 -39 13 -66 40 -21 22 -44 40 -50 40 -6 0 -42 32
-80 70 -38 39 -74 70 -79 70 -5 0 -16 8 -25 18 -28 30 -129 112 -138 112 -5 0
-22 13 -38 30 -16 16 -34 30 -41 30 -6 0 -18 7 -25 16 -7 9 -22 20 -34 25 -32
15 -63 35 -82 51 -10 8 -33 21 -50 29 -18 8 -33 17 -33 21 0 5 -9 8 -20 8 -11
0 -20 3 -20 8 0 4 -10 12 -23 18 -106 55 -140 74 -155 86 -9 8 -30 20 -47 28
-16 8 -32 18 -35 21 -3 4 -31 23 -63 43 -31 20 -57 43 -57 51 0 9 -4 23 -10
33 -17 32 -40 148 -40 208 0 63 14 97 62 153 15 17 32 31 39 31 7 0 27 11 45
25 18 14 39 25 47 25 8 0 32 8 54 19 61 30 184 64 278 77 176 24 268 34 315
34 74 0 93 13 49 32 -101 44 -274 72 -399 64 -47 -2 -94 -5 -105 -5 -43 -2
-164 -24 -259 -47 -55 -14 -106 -22 -114 -19 -19 7 -8 81 20 145 11 25 26 59
33 75 34 83 40 95 47 95 5 0 8 5 8 11 0 13 33 56 102 133 27 29 48 58 48 64 0
7 6 12 13 12 17 0 63 48 54 56 -3 4 -53 -17 -111 -46 -72 -36 -126 -72 -175
-117 -39 -36 -71 -69 -71 -75 0 -5 -12 -22 -27 -37 -31 -30 -37 -40 -99 -159
-40 -77 -68 -145 -81 -197 -16 -67 -26 -115 -32 -155 -5 -36 -10 -45 -26 -45
-12 0 -25 11 -33 28 -16 34 -32 35 -32 2 0 -38 -27 -42 -60 -10 -16 16 -27 32
-24 36 2 4 -1 11 -6 14 -9 6 -27 40 -35 65 -1 3 -7 23 -14 45 -31 100 -40 157
-41 257 0 86 -3 106 -14 102 -7 -3 -19 -24 -26 -47 -8 -23 -17 -46 -20 -52 -4
-5 -8 -17 -8 -25 -1 -8 -9 -53 -17 -100 -15 -77 -15 -92 0 -179 16 -96 62
-211 97 -242 10 -9 18 -21 18 -27 0 -15 209 -222 225 -222 12 0 14 -13 32
-237 5 -68 4 -73 -14 -73 -23 0 -73 22 -73 33 0 4 -7 7 -15 7 -20 0 -42 19
-174 150 -114 114 -161 166 -161 178 0 5 -8 17 -17 28 -10 11 -23 29 -30 40
-24 39 -153 297 -153 305 0 5 -9 31 -21 57 -36 81 -38 86 -54 142 -22 73 -35
104 -41 98 -8 -9 29 -278 66 -468 10 -56 49 -170 63 -189 6 -7 12 -20 13 -28
2 -8 9 -22 17 -31 7 -10 21 -33 30 -53 9 -20 23 -42 32 -49 8 -7 13 -16 10
-20 -2 -4 9 -20 25 -35 17 -16 30 -33 30 -39 0 -14 272 -286 286 -286 6 0 21
-11 34 -25 13 -14 29 -25 35 -25 6 0 24 -14 40 -30 16 -17 34 -30 40 -30 7 0
20 -9 29 -19 10 -11 31 -23 46 -26 15 -3 36 -15 46 -26 9 -10 21 -19 25 -19 5
0 18 -8 29 -17 28 -24 80 -54 177 -103 45 -23 85 -45 88 -50 3 -5 63 -37 133
-72 70 -34 136 -70 146 -80 11 -10 24 -18 29 -18 11 0 67 -56 67 -67 0 -3 31
-39 70 -79 71 -73 83 -97 53 -108 -14 -6 -13 -10 10 -34 15 -16 27 -31 27 -36
0 -9 58 -85 82 -107 10 -9 18 -21 18 -26 0 -6 9 -18 19 -27 27 -24 33 -54 13
-65 -15 -9 -7 -20 47 -75 36 -36 68 -63 72 -61 4 3 12 -2 19 -10 23 -27 143
-76 221 -89 30 -5 38 -13 53 -49 28 -68 39 -87 48 -87 15 0 8 -61 -8 -78 -14
-13 -15 -29 -11 -88 6 -67 39 -154 59 -154 4 0 8 -9 8 -20 0 -58 64 -195 118
-254 49 -54 125 -85 227 -95 74 -7 78 -18 40 -128 -41 -118 -61 -151 -100
-167 -36 -15 -75 -67 -75 -100 0 -11 -4 -33 -9 -50 -5 -17 -19 -64 -31 -105
-12 -41 -18 -77 -13 -82 5 -5 32 -2 63 6 70 19 160 19 230 0 59 -16 51 -17
245 35 253 67 509 89 755 64 242 -25 449 -76 639 -160 l54 -24 31 23 c69 53
136 79 205 80 36 0 76 -5 89 -12 26 -14 62 -6 62 15 0 14 -34 133 -70 244 -23
68 -59 200 -60 213 0 4 18 7 41 7 34 0 40 3 35 16 -4 9 -13 51 -22 93 -9 42
-20 80 -25 86 -5 5 -9 20 -9 32 0 13 -9 42 -19 64 -11 22 -23 54 -26 72 -7 32
-34 93 -106 245 -21 45 -39 93 -39 107 0 16 14 39 38 63 22 20 49 52 61 69 15
22 35 36 64 44 23 6 51 15 62 19 11 5 43 16 70 26 28 10 62 26 77 36 14 10 30
18 35 18 4 0 22 14 40 30 18 17 36 30 40 30 17 0 168 162 156 167 -27 10 -11
41 36 71 76 50 261 237 268 272 3 17 9 30 14 30 5 0 18 18 29 40 20 39 20 40
1 40 -33 0 -33 17 -4 79 20 43 35 61 53 66 43 11 131 24 235 35 55 6 136 15
180 20 44 5 87 10 95 10 24 2 223 41 250 50 14 4 59 18 100 30 41 12 82 26 90
30 9 4 31 11 50 15 43 8 300 134 300 146 0 5 6 9 13 9 7 0 23 9 35 20 12 11
25 20 30 20 5 0 17 9 27 20 10 11 23 20 29 20 14 0 273 258 291 291 8 13 18
33 24 44 5 12 16 27 25 34 9 7 16 20 16 27 0 8 4 14 9 14 10 0 101 175 101
194 0 7 9 30 19 52 10 21 29 82 41 134 22 92 25 97 87 160 34 36 63 70 63 76
0 5 16 25 35 44 19 19 35 39 35 46 0 6 7 17 15 24 17 14 66 115 106 220 21 54
18 251 -4 322 -19 60 -74 154 -84 144 -3 -3 -7 -38 -9 -78 -3 -71 -14 -143
-29 -183 -17 -47 -52 -112 -72 -135 -13 -14 -23 -28 -23 -33 0 -9 -58 -67 -86
-84 -72 -46 -144 -66 -144 -40 0 7 -9 23 -20 35 -11 12 -20 25 -20 29 0 12
-113 123 -125 123 -7 0 -22 11 -35 25 -13 14 -29 25 -37 25 -7 0 -13 3 -13 8
0 4 -28 16 -62 27 -78 24 -135 52 -142 70 -2 7 -8 42 -12 77 -4 35 -10 68 -14
73 -4 6 -10 24 -13 40 -17 91 -29 131 -42 144 -13 13 -15 13 -16 1z m70 -530
c20 -279 -10 -526 -95 -780 -47 -144 -160 -365 -245 -483 -39 -54 -68 -101
-65 -104 18 -18 291 99 404 174 219 145 363 379 387 628 l7 70 -104 52 c-57
29 -126 68 -153 86 -47 30 -50 35 -53 80 -2 26 -1 47 1 47 3 0 29 -11 59 -25
68 -31 148 -48 148 -30 0 33 -154 209 -212 241 -21 12 -37 114 -18 114 22 0
133 -61 188 -103 65 -49 122 -113 174 -191 21 -33 40 -61 42 -63 8 -9 132 40
171 67 84 58 162 164 210 288 27 68 51 98 41 50 -3 -13 -7 -41 -10 -64 -23
-170 -159 -397 -309 -514 l-54 -42 -12 -82 c-33 -209 -90 -355 -190 -479 -185
-229 -451 -383 -801 -465 -146 -34 -181 -41 -310 -57 -127 -17 -197 -29 -260
-45 -19 -5 -62 -16 -95 -24 -33 -8 -100 -26 -149 -41 -48 -14 -90 -24 -93 -22
-2 3 3 22 11 42 18 43 21 96 6 111 -17 17 7 30 100 52 126 30 340 59 570 78
89 7 123 25 215 120 251 257 409 721 456 1339 7 86 15 152 19 148 4 -4 13 -82
19 -173z m-5879 74 c0 -3 -8 -18 -19 -32 -29 -42 -76 -140 -100 -210 -21 -62
-46 -201 -37 -209 3 -3 31 4 63 15 97 34 227 62 338 73 99 10 199 8 211 -4 3
-3 -21 -10 -53 -17 -128 -24 -276 -62 -345 -86 -123 -45 -257 -116 -280 -149
-4 -5 -8 -49 -8 -97 0 -49 -4 -88 -8 -88 -5 0 -28 26 -51 57 -47 64 -48 73 -9
208 51 180 101 302 160 395 58 90 138 173 138 144z m4404 -494 c0 -160 -3
-197 -22 -270 -42 -162 -88 -267 -194 -443 -126 -210 -164 -339 -123 -417 31
-60 80 -69 238 -44 51 8 49 -13 -6 -47 -147 -92 -371 -180 -552 -215 -111 -22
-330 -22 -425 -1 -36 8 -65 14 -65 13 0 -10 -50 -96 -56 -96 -8 0 -15 77 -10
104 1 5 -11 25 -26 45 -85 107 -149 227 -189 356 -27 83 -29 103 -29 242 0
126 3 155 16 168 15 15 16 11 17 -47 7 -265 89 -485 229 -607 72 -64 177 -111
248 -111 105 0 258 54 386 137 55 36 55 36 68 107 26 139 95 294 203 452 138
204 236 519 254 815 7 109 7 110 22 77 12 -26 16 -74 16 -218z m-5010 -24 c49
-95 141 -226 162 -233 6 -2 14 14 18 37 4 23 10 40 15 38 4 -2 46 -50 92 -108
45 -58 103 -127 128 -154 66 -70 243 -200 432 -317 404 -250 497 -322 659
-509 30 -34 60 -60 71 -60 38 0 216 -52 294 -86 44 -20 86 -38 93 -41 20 -9
14 66 -13 160 -13 47 -58 156 -100 242 -41 86 -75 158 -75 160 0 3 -12 30 -26
62 -67 145 -120 310 -159 486 -2 10 1 17 8 14 6 -2 39 -75 74 -163 34 -87 67
-168 72 -179 6 -11 32 -68 59 -126 91 -197 208 -371 385 -572 47 -54 84 -104
81 -110 -3 -7 -27 -22 -53 -34 -44 -21 -110 -80 -145 -128 -14 -19 -15 -18
-59 22 -108 100 -315 162 -541 163 -63 0 -99 7 -185 36 -99 33 -113 35 -211
32 -121 -3 -112 -6 -355 118 -522 265 -884 580 -1030 897 -19 42 -35 80 -35
86 0 23 16 9 32 -26 42 -97 206 -295 330 -400 135 -115 367 -258 376 -233 2 5
-10 51 -27 103 -44 137 -70 239 -90 352 -12 65 -21 94 -26 83 -11 -26 -20 -23
-71 24 -107 99 -203 275 -239 437 -11 52 6 31 59 -73z m6661 -54 c38 -27 85
-68 104 -92 29 -40 33 -50 28 -90 -13 -105 -111 -262 -223 -354 -66 -54 -169
-114 -179 -105 -3 4 10 40 29 80 70 150 118 340 132 522 8 105 11 106 109 39z
m-1625 -1144 c-1 -88 -68 -251 -132 -321 -21 -22 -38 -42 -38 -44 0 -1 16 -3
35 -3 19 0 35 -5 35 -11 0 -18 -82 -132 -139 -193 -60 -62 -149 -130 -218
-165 -48 -24 -55 -41 -18 -41 37 0 31 -18 -22 -68 -101 -94 -187 -137 -320
-161 l-91 -16 -38 -55 c-20 -30 -59 -78 -85 -107 -27 -28 -49 -61 -49 -72 0
-11 18 -59 41 -108 86 -185 156 -397 174 -530 8 -61 -3 -68 -37 -23 -27 38
-42 39 -33 3 20 -77 53 -279 47 -285 -4 -4 -27 17 -51 47 -23 31 -46 53 -50
50 -5 -2 -11 -25 -14 -50 -4 -25 -17 -69 -29 -98 -21 -52 -99 -170 -119 -183
-11 -6 -113 22 -135 38 -7 5 -13 48 -16 97 -2 53 -9 96 -17 105 -13 16 -12 17
11 20 7 0 15 17 18 36 8 44 17 60 36 60 10 0 14 12 14 43 0 52 -13 75 -32 59
-8 -6 -24 -9 -36 -5 -21 5 -22 3 -12 -21 15 -40 12 -86 -5 -92 -9 -4 -25 6
-41 26 -33 38 -53 27 -31 -17 9 -16 18 -45 22 -66 8 -42 -5 -49 -33 -16 -48
57 -235 189 -249 176 -3 -3 26 -39 64 -79 38 -40 78 -86 90 -103 32 -46 83
-150 83 -170 0 -19 -5 -19 -125 5 -78 15 -342 40 -422 40 -71 0 -73 1 -73 25
0 36 -26 109 -71 199 -22 43 -38 81 -35 83 2 2 23 -7 45 -21 23 -15 41 -24 41
-21 0 31 -128 195 -194 250 l-46 38 -25 -26 c-45 -44 -161 -55 -153 -15 2 8
-15 15 -49 18 -35 4 -60 13 -74 27 -23 23 -18 43 10 43 11 0 29 8 40 18 18 13
35 16 84 12 34 -3 85 -1 114 4 61 11 116 -6 201 -62 29 -19 55 -32 58 -29 4 3
-19 31 -50 62 -70 71 -142 105 -225 107 -70 2 -74 12 -15 45 75 43 173 24 262
-53 22 -19 45 -34 51 -34 5 0 16 18 22 40 10 31 10 46 0 67 -8 17 -9 29 -2 36
17 17 106 -83 128 -143 11 -30 25 -56 31 -58 31 -10 27 137 -7 232 -33 94 -79
163 -172 257 -91 93 -122 133 -112 143 4 3 23 6 44 6 32 0 36 3 32 20 -3 10
-27 39 -53 64 -65 60 -105 70 -227 56 -73 -9 -115 -9 -182 1 -47 7 -107 13
-133 13 -39 1 -51 5 -64 26 -9 14 -33 41 -52 62 l-34 36 43 32 c99 71 234 114
342 109 51 -3 52 -3 55 26 8 67 80 104 220 112 l96 6 -37 -43 c-52 -61 -49
-69 21 -63 43 4 67 1 91 -11 32 -17 32 -17 70 17 61 55 123 86 202 103 121 25
226 -2 302 -78 49 -49 54 -64 25 -82 -13 -8 -26 -2 -60 26 -53 43 -81 58 -107
58 -29 0 -26 -26 3 -34 33 -8 126 -83 126 -101 0 -21 -3 -20 -71 30 -109 81
-175 80 -254 -1 -42 -43 -73 -118 -62 -148 7 -18 -38 -76 -59 -76 -8 0 -14 10
-14 23 0 29 -37 90 -53 84 -8 -2 -14 -36 -18 -93 -3 -50 -9 -96 -13 -103 -12
-19 67 -115 141 -171 36 -27 70 -50 74 -50 16 0 9 16 -17 41 -30 28 -59 81
-67 126 -5 28 -1 36 38 72 l44 41 34 -20 c71 -42 167 -22 244 53 34 32 73 104
73 135 0 12 16 26 50 41 27 12 59 34 69 48 28 34 43 20 39 -36 -3 -44 0 -49
39 -85 23 -21 50 -55 60 -77 9 -21 20 -39 23 -39 25 0 117 132 127 182 6 29 7
30 14 10 10 -25 -12 -164 -36 -231 -8 -24 -13 -46 -11 -48 5 -6 50 54 71 96
43 85 55 142 55 260 0 115 1 116 33 158 73 96 182 166 357 228 228 81 425 173
500 235 43 35 50 36 50 8z m-3760 -259 c41 -11 103 -36 138 -55 l64 -34 117 6
c147 8 202 -7 268 -72 82 -82 174 -252 178 -328 1 -17 11 -50 23 -73 26 -49
28 -92 7 -133 l-15 -28 -46 14 c-66 20 -185 18 -229 -3 -30 -14 -44 -15 -95
-5 -60 11 -180 59 -180 72 0 4 12 12 26 19 l26 11 -51 46 c-28 25 -75 80 -105
122 -30 43 -63 86 -75 96 -24 22 -28 46 -6 46 8 0 15 3 15 6 0 13 -120 164
-182 230 -38 39 -68 74 -68 78 0 14 120 5 190 -15z m1153 -168 c82 -79 124
-135 109 -145 -4 -2 -28 0 -52 5 -60 14 -133 3 -198 -28 -30 -14 -57 -21 -61
-17 -4 5 -22 27 -39 50 l-31 41 28 45 c31 48 123 125 154 127 4 1 44 -35 90
-78z m1497 -159 c0 -5 -7 -17 -15 -28 -15 -19 -15 -19 -30 0 -22 29 -19 36 15
36 17 0 30 -4 30 -8z m-534 -87 c2 -5 -16 -19 -39 -30 -29 -14 -48 -32 -60
-57 -14 -29 -25 -38 -43 -38 -22 0 -24 3 -19 23 14 44 49 89 79 103 34 15 78
15 82 -1z m-31 -195 c18 -20 18 -21 -3 -42 -18 -18 -26 -20 -49 -12 -33 11
-42 43 -17 61 25 19 48 16 69 -7z m-1135 -95 c0 -18 -24 -30 -40 -20 -8 5 -5
11 7 21 24 18 33 17 33 -1z m297 -49 c69 -18 123 -52 123 -77 0 -31 -25 -33
-99 -9 -88 28 -132 21 -183 -30 -21 -21 -38 -47 -38 -58 0 -45 79 -106 174
-136 14 -5 16 -9 6 -20 -21 -26 -65 -29 -114 -7 -25 12 -52 21 -61 21 -63 0
-125 76 -125 152 0 44 -11 49 -105 50 -36 1 -65 5 -65 9 0 20 50 31 141 33 84
1 101 4 121 22 64 59 134 74 225 50z m-585 -23 c47 -43 -13 -210 -68 -189 -14
5 -15 15 -10 55 8 59 -6 94 -43 111 l-26 12 25 20 c19 16 33 18 64 13 22 -3
48 -13 58 -22z m312 -473 c18 -18 -8 -30 -67 -31 -88 -1 -172 -20 -172 -39 0
-14 92 -25 263 -31 47 -2 67 38 35 73 -29 32 -7 31 74 -4 87 -38 98 -55 61
-95 -58 -64 -186 -94 -274 -64 -31 10 -46 11 -62 2 -27 -14 -85 -14 -114 0
-55 27 -104 118 -91 169 4 15 14 20 42 21 20 1 47 5 61 10 30 10 231 2 244
-11z m562 -546 c32 -36 86 -130 118 -207 15 -37 15 -38 -7 -46 -12 -4 -58 -11
-102 -15 -78 -6 -80 -6 -80 16 -1 13 -4 47 -8 76 l-8 54 42 -7 41 -7 -7 43
c-4 24 -16 62 -26 86 -23 53 -8 56 37 7z"/>
<path d="M930 7437 c0 -6 11 -50 24 -97 50 -180 146 -382 205 -431 20 -16 104
-63 186 -103 249 -123 238 -119 365 -127 81 -5 131 -13 169 -28 29 -12 56 -19
59 -16 12 11 -27 62 -123 158 -115 116 -245 217 -358 279 -142 79 -281 174
-399 277 -65 55 -120 101 -123 101 -3 0 -5 -6 -5 -13z m430 -418 c204 -152
282 -218 275 -229 -10 -17 -169 32 -258 81 -45 24 -69 47 -108 102 -45 64 -99
157 -99 172 0 14 27 -4 190 -126z"/>
<path d="M5195 6403 c-55 -8 -164 -43 -217 -72 -99 -51 -108 -60 -108 -100 -1
-57 -36 -204 -69 -281 -33 -79 -26 -88 40 -47 65 40 98 73 93 93 -4 15 8 26
51 48 55 29 205 159 205 178 0 5 -8 8 -17 7 -46 -4 -45 4 8 59 56 57 89 100
89 114 0 8 -21 8 -75 1z"/>
<path d="M4136 5838 c-11 -18 -42 -55 -70 -81 l-51 -48 40 16 c64 26 137 108
120 135 -10 17 -20 11 -39 -22z"/>
<path d="M1933 6343 c22 -32 53 -58 88 -76 48 -24 58 -35 87 -94 18 -37 41
-77 52 -88 26 -28 26 -48 0 -40 -51 16 6 -42 77 -79 42 -21 163 -23 163 -2 0
8 -5 18 -10 21 -17 10 -87 118 -126 194 -50 97 -75 116 -159 124 -56 5 -78 13
-130 47 -34 22 -65 40 -69 40 -4 0 8 -21 27 -47z"/>
<path d="M4330 8020 c0 -5 4 -10 9 -10 6 0 13 5 16 10 3 6 -1 10 -9 10 -9 0
-16 -4 -16 -10z"/>
<path d="M1904 4182 c-185 -64 -310 -342 -248 -553 32 -108 152 -184 260 -165
33 6 148 54 203 84 40 23 74 148 52 191 -22 40 -61 28 -119 -39 -44 -50 -59
-60 -85 -60 -38 0 -47 6 -70 42 -42 67 -7 291 54 342 17 14 34 26 38 26 18 0
51 -34 71 -72 26 -50 35 -58 72 -58 83 0 94 174 15 248 -19 18 -30 22 -42 14
-11 -6 -29 -5 -54 4 -49 18 -86 17 -147 -4z"/>
<path d="M3535 4191 c-162 -42 -285 -235 -285 -446 0 -148 56 -239 167 -271
73 -21 145 -9 241 42 89 47 100 58 118 121 12 43 13 60 4 88 -18 56 -52 49
-121 -26 -52 -56 -59 -60 -94 -57 -53 4 -77 40 -83 119 -8 102 36 244 84 276
35 22 61 8 95 -52 17 -30 39 -57 50 -60 73 -24 118 61 88 167 -16 61 -47 89
-99 93 -25 2 -65 5 -90 8 -25 4 -58 2 -75 -2z"/>
<path d="M4105 4191 c-31 -13 -41 -30 -55 -91 -32 -143 -188 -473 -240 -510
-26 -19 -31 -27 -28 -58 4 -52 32 -64 131 -58 115 6 149 47 90 108 -41 43 -20
58 78 58 67 0 80 -3 89 -19 8 -16 5 -23 -16 -40 -20 -15 -25 -27 -22 -53 5
-49 33 -59 152 -55 94 4 101 6 123 32 27 31 24 59 -12 90 -15 13 -27 39 -34
75 -81 420 -91 458 -134 498 -27 26 -89 37 -122 23z m34 -339 c16 -71 7 -92
-39 -92 -55 0 -56 18 -11 133 17 42 34 28 50 -41z"/>
<path d="M4719 4191 c-102 -32 -188 -123 -239 -256 -20 -50 -24 -80 -24 -175
-1 -105 1 -120 25 -165 65 -127 234 -169 379 -95 54 27 115 99 131 154 10 35
22 52 42 63 24 12 28 19 25 50 -6 67 -93 98 -212 73 -95 -20 -127 -77 -66
-120 17 -12 30 -29 30 -38 0 -28 -29 -62 -54 -62 -59 0 -91 103 -70 221 27
157 71 224 133 204 10 -3 32 -31 47 -62 35 -69 64 -85 102 -56 39 29 52 84 37
151 -16 70 -48 103 -95 101 -19 -1 -48 3 -63 10 -32 12 -89 13 -128 2z"/>
<path d="M5375 4191 c-168 -44 -287 -226 -289 -440 -1 -167 58 -254 192 -282
180 -37 351 117 399 361 40 200 -49 352 -213 365 -33 2 -72 1 -89 -4z m80
-279 c-1 -195 -45 -324 -107 -309 -19 5 -29 16 -34 39 -19 78 6 301 42 370 8
15 24 34 36 42 21 15 24 14 43 -4 18 -18 20 -33 20 -138z"/>
<path d="M2310 4179 c-63 -26 -75 -62 -34 -106 26 -28 26 -29 20 -145 -9 -196
-33 -314 -71 -352 -31 -31 -32 -57 -4 -82 18 -16 37 -19 131 -19 103 0 111 1
129 24 24 30 24 49 0 75 -17 19 -19 30 -12 104 8 92 16 104 70 100 47 -4 55
-22 46 -103 -5 -52 -12 -73 -31 -92 -28 -28 -32 -74 -8 -94 23 -19 179 -24
229 -7 35 11 40 17 43 47 2 23 -3 40 -18 56 -21 23 -22 26 -11 152 25 292 29
315 62 348 35 37 37 68 7 89 -28 20 -200 22 -238 3 -39 -20 -47 -58 -20 -95
20 -27 22 -39 17 -98 -3 -40 -10 -70 -18 -75 -8 -5 -34 -8 -59 -7 -42 3 -45 5
-48 32 -6 52 9 115 34 145 30 36 31 75 2 95 -26 18 -176 21 -218 5z"/>
<path d="M2950 4172 c-46 -22 -53 -63 -16 -88 23 -14 26 -23 26 -77 0 -34 -4
-97 -10 -141 -5 -45 -14 -117 -19 -161 -9 -74 -12 -82 -45 -110 -41 -34 -47
-72 -18 -98 36 -33 252 -35 294 -3 9 7 20 24 23 38 6 21 1 32 -25 55 -37 32
-37 27 -5 288 20 168 25 187 59 203 23 12 27 19 24 50 -4 51 -30 62 -153 62
-75 0 -109 -4 -135 -18z"/>
<path d="M2183 3867 c-24 -12 -43 -24 -43 -28 0 -4 15 -13 33 -20 17 -7 35
-14 39 -16 8 -5 22 61 17 75 -2 5 -23 0 -46 -11z"/>
<path d="M3260 3484 c0 -3 20 -65 44 -137 60 -179 96 -329 112 -469 5 -45 11
-60 30 -73 13 -8 25 -15 28 -15 14 0 66 95 66 120 0 65 -42 250 -106 472 -3 9
-22 22 -42 29 -20 6 -58 27 -84 45 -27 19 -48 31 -48 28z"/>
<path d="M4442 3446 c-28 -28 -38 -51 -62 -151 -17 -65 -28 -120 -26 -122 6
-6 158 99 161 111 2 6 10 40 18 76 l15 65 -31 28 c-17 15 -34 27 -37 27 -3 0
-20 -16 -38 -34z"/>
<path d="M5475 3430 c-3 -5 -1 -18 5 -29 5 -11 10 -40 10 -66 0 -35 13 -73 55
-161 30 -63 70 -157 88 -210 l32 -96 -98 -94 c-98 -93 -99 -94 -88 -126 6 -17
11 -46 11 -65 0 -42 1 -42 120 61 50 43 93 76 95 74 1 -1 10 -38 19 -81 59
-287 41 -628 -50 -957 -38 -138 -106 -310 -122 -310 -5 0 -33 5 -63 10 -29 6
-100 17 -158 25 -461 65 -709 108 -862 151 l-86 25 -50 -25 c-58 -29 -144 -50
-179 -43 -13 2 -28 -1 -33 -7 -5 -6 -13 -61 -17 -121 -11 -178 36 -448 118
-685 58 -167 68 -242 43 -316 -21 -62 -63 -150 -78 -162 -7 -5 -52 -19 -102
-30 -376 -87 -799 -66 -1150 58 -89 31 -155 58 -155 64 0 2 79 84 176 182 194
196 375 402 512 582 95 125 202 276 202 285 0 3 -19 10 -42 15 -24 6 -52 13
-64 17 -16 5 -26 -2 -49 -37 -152 -232 -607 -756 -805 -928 l-61 -53 -47 22
c-109 53 -285 180 -414 298 -57 52 -77 60 -126 47 -18 -5 -20 -9 -11 -20 6 -8
19 -14 28 -14 9 0 54 -38 101 -85 47 -47 89 -85 95 -85 6 0 26 -16 45 -35 19
-19 40 -35 47 -35 7 0 13 -4 13 -8 0 -5 12 -15 28 -23 15 -8 34 -21 42 -29 20
-20 43 -33 117 -70 34 -17 65 -35 68 -40 7 -11 94 -54 110 -55 6 0 34 -12 64
-27 29 -16 61 -28 71 -28 11 0 22 -5 25 -10 3 -6 16 -10 29 -10 12 0 26 -4 32
-8 9 -9 114 -43 149 -48 11 -2 40 -8 65 -14 167 -38 341 -53 550 -47 167 5
302 20 345 38 11 4 36 10 55 12 74 10 198 44 214 59 6 4 18 8 28 8 9 0 33 9
53 20 20 11 42 20 50 20 8 0 30 9 50 20 19 11 36 20 38 20 25 4 47 14 47 21 0
5 9 9 19 9 11 0 21 4 23 8 2 4 28 20 59 35 32 15 62 34 69 42 7 8 16 13 20 10
4 -2 15 4 25 15 10 11 24 20 31 20 8 0 19 9 26 20 7 11 20 20 28 20 9 0 22 9
30 20 8 11 19 20 25 20 5 0 27 16 47 35 20 19 40 35 45 35 10 0 263 252 263
263 0 4 18 26 40 49 22 24 40 48 40 54 0 7 7 14 15 18 8 3 21 18 27 33 7 15
21 34 30 41 10 7 18 18 18 24 0 6 7 20 17 30 9 10 21 28 27 41 l12 22 332 3
332 2 0 1025 c0 808 -3 1026 -12 1032 -7 4 -141 11 -298 14 -157 3 -286 6
-287 7 -2 1 -3 11 -3 22 0 11 -4 20 -9 20 -5 0 -11 13 -14 28 -8 37 -78 152
-94 152 -6 0 -15 -4 -18 -10z m-990 -2011 c61 -16 175 -41 255 -55 150 -27
180 -32 365 -58 61 -9 139 -20 175 -26 36 -5 98 -15 138 -21 39 -6 72 -13 72
-16 0 -12 -67 -123 -119 -198 -227 -326 -556 -588 -945 -754 -27 -12 -51 -19
-54 -16 -2 2 4 21 14 42 39 81 28 256 -24 373 -37 84 -67 197 -108 405 -16 81
-24 361 -11 382 5 7 27 4 69 -9 35 -11 113 -34 173 -49z"/>
<path d="M1770 3386 c-5 -15 -28 -54 -49 -88 -22 -33 -42 -66 -44 -72 -3 -8
-104 -13 -328 -16 l-324 -5 -3 -1032 -2 -1033 187 -2 c104 -1 231 -2 283 -3
52 0 130 -1 173 -2 75 -3 79 -4 95 -33 9 -16 20 -30 24 -30 4 0 12 19 18 41
11 40 10 46 -54 173 -36 72 -67 142 -68 156 l-3 24 151 -3 151 -3 58 38 c48
32 65 38 112 38 48 1 58 -2 79 -27 13 -16 29 -25 34 -22 6 3 10 30 10 58 l0
52 -320 0 c-199 0 -323 4 -329 10 -15 15 -59 199 -76 316 -28 198 -16 538 25
739 13 59 65 246 80 283 4 12 18 48 30 80 12 31 27 57 34 57 6 0 29 -25 50
-55 31 -43 195 -214 259 -270 50 -44 129 -105 225 -174 l113 -82 60 4 c44 3
63 9 74 23 17 23 33 8 -187 173 -231 172 -387 325 -497 484 l-33 48 47 81 c25
44 45 81 43 83 -2 1 -22 6 -45 10 -40 6 -44 5 -53 -19z"/>
<path d="M5343 3381 c-17 -11 -36 -28 -41 -37 -9 -16 -14 -16 -37 -6 -96 44
-233 -36 -395 -229 -115 -136 -188 -315 -164 -400 14 -49 62 -72 134 -64 30 3
96 8 145 11 100 5 129 -4 154 -48 20 -35 4 -101 -52 -218 -82 -168 -210 -305
-253 -269 -8 6 -14 25 -14 41 0 35 48 160 91 235 37 67 38 93 4 93 -93 0 -216
-164 -260 -347 -36 -147 -10 -269 65 -308 39 -20 144 -19 205 2 123 44 377
362 471 591 66 162 13 309 -135 375 -40 17 -58 19 -164 13 -105 -6 -121 -5
-138 10 -24 22 -24 57 1 108 31 64 115 145 168 161 21 6 22 4 22 -42 0 -61 25
-93 74 -93 51 0 96 63 96 135 0 49 33 129 69 170 33 38 43 99 19 123 -16 16
-28 15 -65 -7z"/>
<path d="M4655 3261 c-132 -33 -367 -221 -508 -406 -66 -87 -137 -226 -163
-320 -87 -313 -108 -626 -52 -770 43 -111 114 -172 211 -182 167 -17 307 114
391 367 40 121 76 288 76 354 0 42 3 48 41 76 61 44 89 86 89 135 0 63 -15 76
-87 76 -176 1 -447 -169 -480 -300 -9 -36 9 -74 40 -85 35 -13 108 6 159 40
45 29 48 29 48 6 0 -82 -80 -261 -147 -331 -57 -59 -90 -66 -122 -25 -35 44
-45 94 -46 219 0 135 15 221 55 311 53 118 176 305 255 387 63 66 77 59 59
-29 -8 -41 14 -59 61 -50 46 9 101 77 160 200 54 110 79 204 72 265 -7 65 -35
81 -112 62z"/>
<path d="M3733 2921 c-29 -10 -77 -36 -107 -59 -51 -39 -59 -52 -145 -226 -50
-101 -103 -212 -119 -247 -17 -35 -46 -100 -67 -143 -71 -153 -225 -507 -225
-519 0 -7 -4 -17 -9 -22 -13 -15 -87 -233 -95 -281 -16 -96 62 -173 175 -174
52 0 53 2 99 175 40 150 72 226 116 273 41 43 42 43 105 40 l64 -3 0 -100 c0
-117 16 -158 70 -181 101 -42 168 16 180 153 10 120 26 343 35 483 5 80 19
267 30 415 26 327 24 379 -14 412 -32 27 -26 27 -93 4z m-157 -623 c-8 -133
-30 -274 -44 -291 -13 -15 -129 -53 -138 -45 -5 6 12 61 64 203 56 153 94 235
110 235 13 0 14 -15 8 -102z"/>
<path d="M3200 2731 c-47 -16 -119 -44 -160 -63 -41 -19 -118 -52 -170 -72
-103 -41 -133 -66 -149 -124 -33 -117 12 -167 116 -130 18 6 34 10 37 7 2 -2
-22 -83 -54 -179 -89 -268 -128 -428 -170 -701 -22 -143 -5 -305 36 -350 24
-27 68 -24 92 5 10 13 26 53 35 88 17 62 72 268 127 478 39 143 109 389 120
420 5 14 23 71 40 128 49 159 62 184 122 224 139 93 230 206 209 260 -5 14
-17 28 -26 32 -36 13 -124 4 -205 -23z"/>
<path d="M2594 2520 c-11 -4 -40 -30 -63 -56 -32 -36 -44 -45 -53 -36 -45 45
-245 -55 -384 -193 -104 -103 -133 -161 -144 -286 -8 -100 1 -163 28 -192 21
-23 76 -18 139 13 84 40 143 22 191 -59 24 -41 27 -55 27 -141 0 -86 -3 -101
-32 -161 -82 -168 -210 -271 -244 -196 -9 20 -6 34 19 84 17 33 47 81 66 106
41 54 43 63 17 70 -43 11 -124 -46 -180 -128 -82 -119 -121 -225 -121 -329 0
-84 18 -126 73 -170 35 -28 45 -31 110 -31 92 0 151 31 261 135 155 148 251
322 271 490 9 81 10 206 0 251 -11 53 -53 121 -92 151 -45 35 -133 54 -190 41
-145 -34 -114 119 50 248 58 47 77 49 77 12 0 -46 34 -91 75 -99 64 -12 74 8
90 169 7 72 24 119 64 182 35 55 39 94 13 118 -20 19 -36 20 -68 7z"/>
</g>
</svg>
