<?xml version="1.0" encoding="UTF-8"?>
<svg version="1.1" xmlns="http://www.w3.org/2000/svg" width="800" height="446">
<path d="M0 0 C16.19752549 -0.39952899 32.15381104 -0.21290527 48.23486328 1.91552734 C49.48493164 2.08076904 50.735 2.24601074 52.02294922 2.41625977 C62.32265826 3.90597401 71.97812436 5.99894172 81.23486328 10.85302734 C81.91419922 11.20155762 82.59353516 11.55008789 83.29345703 11.90917969 C89.16570496 14.96879847 94.77805506 18.3492426 100.23486328 22.10302734 C100.96189453 22.59416016 101.68892578 23.08529297 102.43798828 23.59130859 C107.49799715 27.17387212 111.26980252 31.37189327 115.23486328 36.10302734 C116.68661564 37.73390937 118.14530418 39.35863617 119.60986328 40.97802734 C120.36654297 41.81720703 121.12322266 42.65638672 121.90283203 43.52099609 C123.46738081 45.2532687 125.0324921 46.98503342 126.59814453 48.71630859 C132.99836204 55.80495286 139.18125401 62.98027075 145.11767578 70.46240234 C146.49055384 72.17470043 147.8803187 73.87364712 149.28955078 75.55615234 C153.97352271 81.14946681 158.26735723 86.90368909 162.48486328 92.85302734 C172.29233249 106.5944198 182.46017848 119.46712003 197.23486328 128.10302734 C197.23486328 127.44302734 197.23486328 126.78302734 197.23486328 126.10302734 C197.89486328 126.10302734 198.55486328 126.10302734 199.23486328 126.10302734 C199.51072266 125.51392578 199.78658203 124.92482422 200.07080078 124.31787109 C201.17937766 122.20859897 202.37810422 120.52393466 203.85986328 118.66552734 C219.16714103 98.56770791 226.68199117 75.99952088 229.71923828 51.13818359 C230.23486328 48.10302734 230.23486328 48.10302734 232.23486328 46.10302734 C238.76047811 45.96772503 245.37671142 47.65045978 251.73486328 48.97802734 C259.97042482 50.61764937 268.20574409 51.83075332 276.54736328 52.79052734 C277.57087891 52.90960449 278.59439453 53.02868164 279.64892578 53.15136719 C295.81726348 54.93101427 311.98637394 55.34092853 328.23486328 55.66552734 C330.28174466 55.70884673 332.32861975 55.7524646 334.37548828 55.79638672 C339.32854763 55.90203294 344.28167396 56.00366964 349.23486328 56.10302734 C348.76643897 57.52329864 348.29669761 58.94313558 347.82641602 60.36279297 C347.56497299 61.15351196 347.30352997 61.94423096 347.03416443 62.75891113 C345.89817594 66.09043273 344.61263068 69.33753588 343.29736328 72.60302734 C342.81396484 73.80958984 342.33056641 75.01615234 341.83251953 76.25927734 C341.03234324 78.22937182 340.20517495 80.16573614 339.29516602 82.08789062 C336.11722493 88.82944903 334.15414182 95.80696741 332.17236328 102.97802734 C331.66479492 104.78207031 331.66479492 104.78207031 331.14697266 106.62255859 C330.1671371 110.11357811 329.20050456 113.60805999 328.23486328 117.10302734 C327.79678345 118.65497803 327.79678345 118.65497803 327.34985352 120.23828125 C326.94875366 121.67179932 326.94875366 121.67179932 326.53955078 123.13427734 C326.30606934 123.9625 326.07258789 124.79072266 325.83203125 125.64404297 C324.02783145 133.07327451 323.30547641 140.87305123 326.23486328 148.10302734 C329.76141936 151.7433433 333.51235263 152.22229925 338.45123291 152.34385681 C339.144245 152.35461746 339.83725708 152.36537811 340.55126953 152.37646484 C341.27562195 152.38903824 341.99997437 152.40161163 342.74627686 152.41456604 C364.96341682 152.84150499 364.96341682 152.84150499 386.23486328 147.10302734 C386.86569824 146.84070313 387.4965332 146.57837891 388.14648438 146.30810547 C396.4771565 142.76060455 403.41817427 138.03009952 410.23486328 132.10302734 C417.33063724 126.10418463 424.64502226 120.58444868 432.19775391 115.18017578 C439.60413327 109.86930474 446.8495594 104.3658968 454.05664062 98.78857422 C456.32834217 97.03069174 458.60388188 95.27784775 460.87939453 93.52490234 C462.43570294 92.3221898 463.99169485 91.11906757 465.54736328 89.91552734 C466.67815308 89.04335571 466.67815308 89.04335571 467.83178711 88.15356445 C471.22938256 85.51555002 474.57063177 82.85198506 477.78955078 79.99755859 C478.32539795 79.52664795 478.86124512 79.0557373 479.41333008 78.57055664 C480.80922289 77.32868403 482.18511358 76.06442633 483.55908203 74.79833984 C487.08658055 72.56339918 489.10822853 72.66578447 493.23486328 73.10302734 C495.87451172 74.97973633 495.87451172 74.97973633 498.34423828 77.59912109 C498.79655823 78.06608902 499.24887817 78.53305695 499.71490479 79.01417542 C501.15582556 80.5072264 502.57098151 82.02188671 503.98486328 83.54052734 C505.8459191 85.50601698 507.71725781 87.46134002 509.59423828 89.41162109 C510.06556686 89.90335815 510.53689545 90.39509521 511.02250671 90.9017334 C513.95384579 93.9172301 516.99153851 96.60361066 520.30126953 99.19287109 C529.01955752 106.12169748 536.61418336 114.31176208 544.42236328 122.22802734 C546.83196509 124.66544248 549.24310789 127.10128309 551.65730286 129.53414917 C553.14836452 131.03726677 554.63674969 132.54304629 556.12187195 134.05203247 C560.12022742 138.08852914 564.21849928 141.93064345 568.53450012 145.6265564 C570.71116926 147.5166166 572.72817153 149.53459123 574.73486328 151.60302734 C578.74264258 155.65163292 582.90401754 159.40631542 587.23486328 163.10302734 C588.29929708 164.03068841 589.36304173 164.95914054 590.42626953 165.88818359 C597.07166279 171.66795374 603.77782798 177.12506877 611.00439453 182.16552734 C613.45237674 184.29197073 613.8829828 184.96704543 614.23486328 188.10302734 C613.49389648 190.04736328 613.49389648 190.04736328 612.28564453 192.08740234 C611.63378174 193.2300354 611.63378174 193.2300354 610.96875 194.39575195 C610.49969238 195.20665283 610.03063477 196.01755371 609.54736328 196.85302734 C599.1245284 215.89759939 597.39726978 235.24906415 603.05102539 256.23046875 C606.87505249 269.25618215 614.77440665 279.25649769 622.72851562 290.05322266 C624.67251629 292.69857591 626.58752961 295.36147649 628.48486328 298.04052734 C629.00564453 298.77142578 629.52642578 299.50232422 630.06298828 300.25537109 C635.09768085 308.19340305 633.04332924 323.04625303 631.62158203 331.93896484 C628.39793495 342.76019425 620.21440713 350.50548294 612.23486328 358.10302734 C612.93611328 358.74240234 613.63736328 359.38177734 614.35986328 360.04052734 C622.3424094 368.02307346 625.7272271 376.27892038 625.73681641 387.43847656 C625.47952512 396.5625715 622.05951858 403.79839485 615.42236328 410.10302734 C614.05824562 411.14587618 612.66232899 412.14872532 611.23486328 413.10302734 C610.61482422 413.53486328 609.99478516 413.96669922 609.35595703 414.41162109 C601.36164795 418.93286439 589.80175433 418.62254352 581.12939453 416.25537109 C571.43418878 411.8211297 565.02959461 403.91824588 561.23486328 394.10302734 C561.23486328 393.44302734 561.23486328 392.78302734 561.23486328 392.10302734 C559.734262 392.99785311 558.23442125 393.89395428 556.73486328 394.79052734 C555.89955078 395.28939453 555.06423828 395.78826172 554.20361328 396.30224609 C552.59518782 397.27788312 550.99192581 398.26353493 549.42236328 399.30053711 C544.55387682 402.482803 539.70775716 404.71979866 534.23486328 406.66552734 C533.40817139 406.96434814 532.58147949 407.26316895 531.72973633 407.57104492 C525.34817661 409.82512418 518.95072968 411.62456828 512.35717773 413.13696289 C508.4897484 414.02915835 504.65887593 415.04095247 500.82080078 416.05224609 C492.30640926 418.22588529 483.74498618 419.53713562 475.04736328 420.72802734 C472.86318949 421.03562307 470.67936263 421.34560752 468.49552917 421.65560913 C466.52349452 421.9342305 464.55071401 422.20755869 462.57788086 422.48046875 C460.22183563 422.8076797 457.87607387 423.16282423 455.52960205 423.55389404 C445.53689504 425.19563973 435.51149411 426.09307483 425.43017578 426.97802734 C423.50192888 427.14958145 421.57369636 427.32129734 419.64547729 427.49316406 C415.60293455 427.85238031 411.56011452 428.20826282 407.51708984 428.56201172 C403.45834015 428.91749451 399.40010527 429.27810282 395.34228516 429.64404297 C372.26116733 431.72498743 349.21425816 433.49807847 326.06392193 434.57887936 C325.30306695 434.6144019 324.54221197 434.64992445 323.75830078 434.68652344 C323.01564122 434.72111695 322.27298166 434.75571047 321.50781727 434.79135227 C311.37856013 435.27298303 301.27671978 436.06904638 291.17236328 436.91552734 C289.104589 437.08409241 287.03679874 437.25246158 284.96899414 437.4206543 C266.48716819 438.93930779 248.022646 440.65612005 229.56469727 442.44018555 C217.12694339 443.63266189 204.71995459 444.59938628 192.23486328 445.10302734 C190.9304126 445.15821533 189.62596191 445.21340332 188.28198242 445.27026367 C138.70668168 447.18629307 89.13776159 447.25201247 39.72216797 442.61132812 C34.88822118 442.15759007 30.05190156 441.75702401 25.21142578 441.38037109 C-10.41567486 438.55723381 -45.51018491 433.48318091 -80.27099609 425.16455078 C-83.32784968 424.43410049 -86.3902307 423.74358258 -89.46240234 423.08056641 C-90.22494324 422.9121524 -90.98748413 422.7437384 -91.77313232 422.57022095 C-93.20022751 422.2557295 -94.62920533 421.9495949 -96.06036377 421.65414429 C-97.98336021 421.22349097 -99.87607742 420.66412675 -101.76513672 420.10302734 C-102.42850037 419.94293686 -103.09186401 419.78284637 -103.77532959 419.61790466 C-106.14430732 418.75879821 -107.22130806 418.11578348 -108.76513672 416.10302734 C-109.81017616 411.1054872 -109.64543063 406.1359002 -109.56201172 401.06005859 C-109.563783 399.53382081 -109.56907564 398.00758348 -109.57769775 396.48136902 C-109.59298502 392.44467304 -109.56913286 388.40922267 -109.53448486 384.37268066 C-109.47821777 377.22693762 -109.48158039 370.08095481 -109.49951172 362.93505859 C-109.50075169 362.16408215 -109.50199165 361.3931057 -109.5032692 360.59876633 C-109.61102538 324.94986651 -119.17929902 295.41264401 -135.76513672 264.10302734 C-136.15846191 263.35891602 -136.55178711 262.61480469 -136.95703125 261.84814453 C-141.96638642 252.44018792 -147.17421284 243.51403899 -153.76513672 235.10302734 C-154.36068359 234.31669922 -154.95623047 233.53037109 -155.56982422 232.72021484 C-158.99231538 228.23294865 -162.56283397 224.09409838 -166.57763672 220.12255859 C-167.76513672 218.10302734 -167.76513672 218.10302734 -167.72216797 215.41943359 C-166.46131105 211.05017838 -164.58425106 207.23420961 -162.45263672 203.22802734 C-162.01040771 202.3944873 -161.56817871 201.56094727 -161.11254883 200.70214844 C-154.73694237 189.02556326 -146.43461754 178.93299375 -137.77587891 168.89672852 C-133.11485516 163.44791425 -128.97562046 157.66886546 -124.91308594 151.765625 C-123.83641847 150.20626612 -122.74086616 148.65999424 -121.64404297 147.11474609 C-112.02725256 133.26131897 -101.67541359 115.56311712 -101.61987305 98.3918457 C-101.61651443 97.73739471 -101.61315582 97.08294373 -101.60969543 96.40866089 C-101.60022908 94.25337806 -101.59824395 92.0981734 -101.59716797 89.94287109 C-101.59395046 88.43176747 -101.59058602 86.92066415 -101.58708191 85.40956116 C-101.58110002 82.24137654 -101.57924085 79.07321916 -101.57983398 75.9050293 C-101.57993511 71.87627667 -101.56633052 67.84770226 -101.54906178 63.81899166 C-101.53785085 60.6951266 -101.53591761 57.57130323 -101.53644371 54.44742012 C-101.53527541 52.96410068 -101.53091949 51.48077974 -101.52311134 49.99748039 C-101.48109218 41.18458737 -101.96093972 32.75574868 -103.76513672 24.10302734 C-101.05927912 22.02223838 -98.67523733 20.49797902 -95.48388672 19.27099609 C-94.65236084 18.9503418 -93.82083496 18.6296875 -92.96411133 18.29931641 C-92.07344971 17.96641602 -91.18278809 17.63351563 -90.26513672 17.29052734 C-89.33386963 16.94086914 -88.40260254 16.59121094 -87.44311523 16.23095703 C-58.9437607 5.69612938 -30.31950039 0.82964785 0 0 Z M607.23486328 361.10302734 C606.40847952 363.9953705 606.23486328 365.99045165 606.23486328 369.10302734 C607.22486328 369.43302734 608.21486328 369.76302734 609.23486328 370.10302734 C610.23486328 371.91552734 610.23486328 371.91552734 611.23486328 374.10302734 C612.21068087 375.45415939 613.20516069 376.79249678 614.23486328 378.10302734 C617.96100481 376.98448148 617.96100481 376.98448148 620.23486328 374.10302734 C615.72079376 366.71518846 615.72079376 366.71518846 609.23486328 361.10302734 C608.57486328 361.10302734 607.91486328 361.10302734 607.23486328 361.10302734 Z M596.67236328 369.47802734 C595.01400532 370.99109797 595.01400532 370.99109797 595.23486328 373.10302734 C596.55486328 373.10302734 597.87486328 373.10302734 599.23486328 373.10302734 C599.23486328 374.75302734 599.23486328 376.40302734 599.23486328 378.10302734 C601.87486328 377.44302734 604.51486328 376.78302734 607.23486328 376.10302734 C606.90486328 377.09302734 606.57486328 378.08302734 606.23486328 379.10302734 C607.22486328 379.10302734 608.21486328 379.10302734 609.23486328 379.10302734 C607.6833982 383.75742258 604.18028365 385.28486994 600.23486328 388.10302734 C601.22486328 391.73302734 602.21486328 395.36302734 603.23486328 399.10302734 C599.93486328 397.12302734 596.63486328 395.14302734 593.23486328 393.10302734 C591.59517578 394.30958984 591.59517578 394.30958984 589.92236328 395.54052734 C587.59836461 397.25063957 586.0201115 398.17461127 583.23486328 399.10302734 C583.56486328 397.78302734 583.89486328 396.46302734 584.23486328 395.10302734 C582.58486328 395.43302734 580.93486328 395.76302734 579.23486328 396.10302734 C580.24793224 399.04092733 581.16653691 400.05803193 583.79736328 401.79052734 C590.18239704 404.22844932 595.97069687 405.02614723 602.37548828 402.25927734 C606.65427108 399.59852166 609.65260107 395.84981396 611.23486328 391.10302734 C611.98183686 384.49764666 611.7513017 379.26421792 607.80908203 373.76318359 C605.24795087 371.06223882 602.60777927 369.6597578 599.23486328 368.10302734 C598.01309 367.99292269 598.01309 367.99292269 596.67236328 369.47802734 Z M620.23486328 376.10302734 C619.57486328 377.09302734 618.91486328 378.08302734 618.23486328 379.10302734 C617.24486328 379.76302734 616.25486328 380.42302734 615.23486328 381.10302734 C614.61453556 383.71641886 614.61453556 383.71641886 614.35986328 386.72802734 C613.34396699 393.51421455 611.67988475 398.26798956 606.29345703 402.70068359 C600.49951556 406.42165853 594.99420737 407.16292449 588.23486328 406.10302734 C582.11582153 404.30951511 577.54387943 400.53460319 574.23486328 395.10302734 C573.25295098 392.40748924 572.73376767 389.94678238 572.23486328 387.10302734 C567.75602632 387.55006721 567.75602632 387.55006721 564.23486328 390.10302734 C567.77292396 399.9265813 571.04017384 406.68604 580.43017578 411.86865234 C588.2491726 415.30988214 595.56332336 415.87109087 603.69189453 413.22021484 C611.55885286 409.76407032 616.94936544 404.261033 620.48486328 396.47802734 C622.72580339 390.5845313 623.82910733 383.7174585 621.21142578 377.78271484 C620.88916016 377.22841797 620.56689453 376.67412109 620.23486328 376.10302734 Z M593.23486328 377.10302734 C592.24486328 377.59802734 592.24486328 377.59802734 591.23486328 378.10302734 C591.23486328 379.42302734 591.23486328 380.74302734 591.23486328 382.10302734 C589.91486328 381.77302734 588.59486328 381.44302734 587.23486328 381.10302734 C586.57486328 382.09302734 585.91486328 383.08302734 585.23486328 384.10302734 C585.56486328 384.76302734 585.89486328 385.42302734 586.23486328 386.10302734 C589.17912145 386.34838219 590.89255892 386.27880526 593.54736328 384.91552734 C595.50317018 383.18475213 595.50317018 383.18475213 595.48486328 380.41552734 C595.36111328 379.27083984 595.36111328 379.27083984 595.23486328 378.10302734 C594.57486328 377.77302734 593.91486328 377.44302734 593.23486328 377.10302734 Z M614.23486328 379.10302734 C615.23486328 381.10302734 615.23486328 381.10302734 615.23486328 381.10302734 Z M577.23486328 382.10302734 C576.24486328 382.59802734 576.24486328 382.59802734 575.23486328 383.10302734 C574.91923146 388.36355771 575.56895391 391.5487655 578.23486328 396.10302734 C580.54486328 394.12302734 582.85486328 392.14302734 585.23486328 390.10302734 C584.90486328 389.44302734 584.57486328 388.78302734 584.23486328 388.10302734 C582.58486328 388.10302734 580.93486328 388.10302734 579.23486328 388.10302734 C579.89486328 386.78302734 580.55486328 385.46302734 581.23486328 384.10302734 C579.35170169 382.99466312 579.35170169 382.99466312 577.23486328 382.10302734 Z M599.23486328 383.10302734 C596.59486328 385.08302734 593.95486328 387.06302734 591.23486328 389.10302734 C594.99916102 391.10302734 594.99916102 391.10302734 598.23486328 392.10302734 C597.90486328 390.12302734 597.57486328 388.14302734 597.23486328 386.10302734 C598.55486328 385.44302734 599.87486328 384.78302734 601.23486328 384.10302734 C600.57486328 383.77302734 599.91486328 383.44302734 599.23486328 383.10302734 Z M588.23486328 391.10302734 C587.90486328 391.76302734 587.57486328 392.42302734 587.23486328 393.10302734 C588.22486328 392.77302734 589.21486328 392.44302734 590.23486328 392.10302734 C589.57486328 391.77302734 588.91486328 391.44302734 588.23486328 391.10302734 Z " fill="#DF0102" transform="translate(167.76513671875,-0.10302734375)"/>
<path d="M0 0 C16.19752549 -0.39952899 32.15381104 -0.21290527 48.23486328 1.91552734 C49.48493164 2.08076904 50.735 2.24601074 52.02294922 2.41625977 C62.32265826 3.90597401 71.97812436 5.99894172 81.23486328 10.85302734 C81.91419922 11.20155762 82.59353516 11.55008789 83.29345703 11.90917969 C89.16570496 14.96879847 94.77805506 18.3492426 100.23486328 22.10302734 C100.96189453 22.59416016 101.68892578 23.08529297 102.43798828 23.59130859 C107.49799715 27.17387212 111.26980252 31.37189327 115.23486328 36.10302734 C116.68661564 37.73390937 118.14530418 39.35863617 119.60986328 40.97802734 C120.36654297 41.81720703 121.12322266 42.65638672 121.90283203 43.52099609 C123.46738081 45.2532687 125.0324921 46.98503342 126.59814453 48.71630859 C132.99836204 55.80495286 139.18125401 62.98027075 145.11767578 70.46240234 C146.49055384 72.17470043 147.8803187 73.87364712 149.28955078 75.55615234 C153.97352271 81.14946681 158.26735723 86.90368909 162.48486328 92.85302734 C172.29233249 106.5944198 182.46017848 119.46712003 197.23486328 128.10302734 C197.23486328 127.44302734 197.23486328 126.78302734 197.23486328 126.10302734 C197.89486328 126.10302734 198.55486328 126.10302734 199.23486328 126.10302734 C199.51072266 125.51392578 199.78658203 124.92482422 200.07080078 124.31787109 C201.17937766 122.20859897 202.37810422 120.52393466 203.85986328 118.66552734 C219.16714103 98.56770791 226.68199117 75.99952088 229.71923828 51.13818359 C230.23486328 48.10302734 230.23486328 48.10302734 232.23486328 46.10302734 C238.76047811 45.96772503 245.37671142 47.65045978 251.73486328 48.97802734 C259.97042482 50.61764937 268.20574409 51.83075332 276.54736328 52.79052734 C277.57087891 52.90960449 278.59439453 53.02868164 279.64892578 53.15136719 C295.81726348 54.93101427 311.98637394 55.34092853 328.23486328 55.66552734 C330.28174466 55.70884673 332.32861975 55.7524646 334.37548828 55.79638672 C339.32854763 55.90203294 344.28167396 56.00366964 349.23486328 56.10302734 C348.76643897 57.52329864 348.29669761 58.94313558 347.82641602 60.36279297 C347.56497299 61.15351196 347.30352997 61.94423096 347.03416443 62.75891113 C345.89817594 66.09043273 344.61263068 69.33753588 343.29736328 72.60302734 C342.81396484 73.80958984 342.33056641 75.01615234 341.83251953 76.25927734 C341.03234324 78.22937182 340.20517495 80.16573614 339.29516602 82.08789062 C336.11722493 88.82944903 334.15414182 95.80696741 332.17236328 102.97802734 C331.66479492 104.78207031 331.66479492 104.78207031 331.14697266 106.62255859 C330.1671371 110.11357811 329.20050456 113.60805999 328.23486328 117.10302734 C327.79678345 118.65497803 327.79678345 118.65497803 327.34985352 120.23828125 C326.94875366 121.67179932 326.94875366 121.67179932 326.53955078 123.13427734 C326.30606934 123.9625 326.07258789 124.79072266 325.83203125 125.64404297 C324.02783145 133.07327451 323.30547641 140.87305123 326.23486328 148.10302734 C329.76141936 151.7433433 333.51235263 152.22229925 338.45123291 152.34385681 C339.144245 152.35461746 339.83725708 152.36537811 340.55126953 152.37646484 C341.27562195 152.38903824 341.99997437 152.40161163 342.74627686 152.41456604 C364.96341682 152.84150499 364.96341682 152.84150499 386.23486328 147.10302734 C386.86569824 146.84070313 387.4965332 146.57837891 388.14648438 146.30810547 C396.4771565 142.76060455 403.41817427 138.03009952 410.23486328 132.10302734 C417.33063724 126.10418463 424.64502226 120.58444868 432.19775391 115.18017578 C439.60413327 109.86930474 446.8495594 104.3658968 454.05664062 98.78857422 C456.32834217 97.03069174 458.60388188 95.27784775 460.87939453 93.52490234 C462.43570294 92.3221898 463.99169485 91.11906757 465.54736328 89.91552734 C466.67815308 89.04335571 466.67815308 89.04335571 467.83178711 88.15356445 C471.22938256 85.51555002 474.57063177 82.85198506 477.78955078 79.99755859 C478.32539795 79.52664795 478.86124512 79.0557373 479.41333008 78.57055664 C480.80922289 77.32868403 482.18511358 76.06442633 483.55908203 74.79833984 C487.08658055 72.56339918 489.10822853 72.66578447 493.23486328 73.10302734 C495.87451172 74.97973633 495.87451172 74.97973633 498.34423828 77.59912109 C498.79655823 78.06608902 499.24887817 78.53305695 499.71490479 79.01417542 C501.15582556 80.5072264 502.57098151 82.02188671 503.98486328 83.54052734 C505.8459191 85.50601698 507.71725781 87.46134002 509.59423828 89.41162109 C510.06556686 89.90335815 510.53689545 90.39509521 511.02250671 90.9017334 C513.95384579 93.9172301 516.99153851 96.60361066 520.30126953 99.19287109 C529.01955752 106.12169748 536.61418336 114.31176208 544.42236328 122.22802734 C546.83196509 124.66544248 549.24310789 127.10128309 551.65730286 129.53414917 C553.14836452 131.03726677 554.63674969 132.54304629 556.12187195 134.05203247 C560.12022742 138.08852914 564.21849928 141.93064345 568.53450012 145.6265564 C570.71116926 147.5166166 572.72817153 149.53459123 574.73486328 151.60302734 C578.74264258 155.65163292 582.90401754 159.40631542 587.23486328 163.10302734 C588.29929708 164.03068841 589.36304173 164.95914054 590.42626953 165.88818359 C597.07166279 171.66795374 603.77782798 177.12506877 611.00439453 182.16552734 C613.45237674 184.29197073 613.8829828 184.96704543 614.23486328 188.10302734 C613.49389648 190.04736328 613.49389648 190.04736328 612.28564453 192.08740234 C611.63378174 193.2300354 611.63378174 193.2300354 610.96875 194.39575195 C610.49969238 195.20665283 610.03063477 196.01755371 609.54736328 196.85302734 C599.1245284 215.89759939 597.39726978 235.24906415 603.05102539 256.23046875 C606.87505249 269.25618215 614.77440665 279.25649769 622.72851562 290.05322266 C624.67251629 292.69857591 626.58752961 295.36147649 628.48486328 298.04052734 C629.00564453 298.77142578 629.52642578 299.50232422 630.06298828 300.25537109 C635.09768085 308.19340305 633.04332924 323.04625303 631.62158203 331.93896484 C628.39793495 342.76019425 620.21440713 350.50548294 612.23486328 358.10302734 C612.93611328 358.74240234 613.63736328 359.38177734 614.35986328 360.04052734 C622.3424094 368.02307346 625.7272271 376.27892038 625.73681641 387.43847656 C625.47952512 396.5625715 622.05951858 403.79839485 615.42236328 410.10302734 C614.05824562 411.14587618 612.66232899 412.14872532 611.23486328 413.10302734 C610.61482422 413.53486328 609.99478516 413.96669922 609.35595703 414.41162109 C601.36164795 418.93286439 589.80175433 418.62254352 581.12939453 416.25537109 C571.43418878 411.8211297 565.02959461 403.91824588 561.23486328 394.10302734 C561.23486328 393.44302734 561.23486328 392.78302734 561.23486328 392.10302734 C559.734262 392.99785311 558.23442125 393.89395428 556.73486328 394.79052734 C555.89955078 395.28939453 555.06423828 395.78826172 554.20361328 396.30224609 C552.59518782 397.27788312 550.99192581 398.26353493 549.42236328 399.30053711 C544.55387682 402.482803 539.70775716 404.71979866 534.23486328 406.66552734 C533.40817139 406.96434814 532.58147949 407.26316895 531.72973633 407.57104492 C525.34817661 409.82512418 518.95072968 411.62456828 512.35717773 413.13696289 C508.4897484 414.02915835 504.65887593 415.04095247 500.82080078 416.05224609 C492.30640926 418.22588529 483.74498618 419.53713562 475.04736328 420.72802734 C472.86318949 421.03562307 470.67936263 421.34560752 468.49552917 421.65560913 C466.52349452 421.9342305 464.55071401 422.20755869 462.57788086 422.48046875 C460.22183563 422.8076797 457.87607387 423.16282423 455.52960205 423.55389404 C445.53689504 425.19563973 435.51149411 426.09307483 425.43017578 426.97802734 C423.50192888 427.14958145 421.57369636 427.32129734 419.64547729 427.49316406 C415.60293455 427.85238031 411.56011452 428.20826282 407.51708984 428.56201172 C403.45834015 428.91749451 399.40010527 429.27810282 395.34228516 429.64404297 C372.26116733 431.72498743 349.21425816 433.49807847 326.06392193 434.57887936 C325.30306695 434.6144019 324.54221197 434.64992445 323.75830078 434.68652344 C323.01564122 434.72111695 322.27298166 434.75571047 321.50781727 434.79135227 C311.37856013 435.27298303 301.27671978 436.06904638 291.17236328 436.91552734 C289.104589 437.08409241 287.03679874 437.25246158 284.96899414 437.4206543 C266.48716819 438.93930779 248.022646 440.65612005 229.56469727 442.44018555 C217.12694339 443.63266189 204.71995459 444.59938628 192.23486328 445.10302734 C190.9304126 445.15821533 189.62596191 445.21340332 188.28198242 445.27026367 C138.70668168 447.18629307 89.13776159 447.25201247 39.72216797 442.61132812 C34.88822118 442.15759007 30.05190156 441.75702401 25.21142578 441.38037109 C-10.41567486 438.55723381 -45.51018491 433.48318091 -80.27099609 425.16455078 C-83.32784968 424.43410049 -86.3902307 423.74358258 -89.46240234 423.08056641 C-90.22494324 422.9121524 -90.98748413 422.7437384 -91.77313232 422.57022095 C-93.20022751 422.2557295 -94.62920533 421.9495949 -96.06036377 421.65414429 C-97.98336021 421.22349097 -99.87607742 420.66412675 -101.76513672 420.10302734 C-102.42850037 419.94293686 -103.09186401 419.78284637 -103.77532959 419.61790466 C-106.14430732 418.75879821 -107.22130806 418.11578348 -108.76513672 416.10302734 C-109.81017616 411.1054872 -109.64543063 406.1359002 -109.56201172 401.06005859 C-109.563783 399.53382081 -109.56907564 398.00758348 -109.57769775 396.48136902 C-109.59298502 392.44467304 -109.56913286 388.40922267 -109.53448486 384.37268066 C-109.47821777 377.22693762 -109.48158039 370.08095481 -109.49951172 362.93505859 C-109.50075169 362.16408215 -109.50199165 361.3931057 -109.5032692 360.59876633 C-109.61102538 324.94986651 -119.17929902 295.41264401 -135.76513672 264.10302734 C-136.15846191 263.35891602 -136.55178711 262.61480469 -136.95703125 261.84814453 C-141.96638642 252.44018792 -147.17421284 243.51403899 -153.76513672 235.10302734 C-154.36068359 234.31669922 -154.95623047 233.53037109 -155.56982422 232.72021484 C-158.99231538 228.23294865 -162.56283397 224.09409838 -166.57763672 220.12255859 C-167.76513672 218.10302734 -167.76513672 218.10302734 -167.72216797 215.41943359 C-166.46131105 211.05017838 -164.58425106 207.23420961 -162.45263672 203.22802734 C-162.01040771 202.3944873 -161.56817871 201.56094727 -161.11254883 200.70214844 C-154.73694237 189.02556326 -146.43461754 178.93299375 -137.77587891 168.89672852 C-133.11485516 163.44791425 -128.97562046 157.66886546 -124.91308594 151.765625 C-123.83641847 150.20626612 -122.74086616 148.65999424 -121.64404297 147.11474609 C-112.02725256 133.26131897 -101.67541359 115.56311712 -101.61987305 98.3918457 C-101.61651443 97.73739471 -101.61315582 97.08294373 -101.60969543 96.40866089 C-101.60022908 94.25337806 -101.59824395 92.0981734 -101.59716797 89.94287109 C-101.59395046 88.43176747 -101.59058602 86.92066415 -101.58708191 85.40956116 C-101.58110002 82.24137654 -101.57924085 79.07321916 -101.57983398 75.9050293 C-101.57993511 71.87627667 -101.56633052 67.84770226 -101.54906178 63.81899166 C-101.53785085 60.6951266 -101.53591761 57.57130323 -101.53644371 54.44742012 C-101.53527541 52.96410068 -101.53091949 51.48077974 -101.52311134 49.99748039 C-101.48109218 41.18458737 -101.96093972 32.75574868 -103.76513672 24.10302734 C-101.05927912 22.02223838 -98.67523733 20.49797902 -95.48388672 19.27099609 C-94.65236084 18.9503418 -93.82083496 18.6296875 -92.96411133 18.29931641 C-92.07344971 17.96641602 -91.18278809 17.63351563 -90.26513672 17.29052734 C-89.33386963 16.94086914 -88.40260254 16.59121094 -87.44311523 16.23095703 C-58.9437607 5.69612938 -30.31950039 0.82964785 0 0 Z M-61.83935547 43.48583984 C-71.01977613 54.30700387 -75.71261146 66.9102425 -74.76513672 81.10302734 C-73.2016665 88.55957762 -70.54064432 93.78757776 -64.87451172 98.80615234 C-59.51320673 102.10236208 -53.97415264 102.33681524 -47.82763672 102.22802734 C-47.14378906 102.21900391 -46.45994141 102.20998047 -45.75537109 102.20068359 C-44.09180385 102.17741692 -42.42842041 102.14155901 -40.76513672 102.10302734 C-40.66716797 101.16201172 -40.56919922 100.22099609 -40.46826172 99.25146484 C-38.97192495 86.79059137 -38.97192495 86.79059137 -34.76513672 82.10302734 C-33.67265625 80.86166016 -33.67265625 80.86166016 -32.55810547 79.59521484 C-22.17386405 70.32927635 -3.64145225 72.66298501 9.23486328 73.10302734 C8.44724609 73.49232422 7.65962891 73.88162109 6.84814453 74.28271484 C-6.71448166 81.24860806 -17.7827724 90.61848998 -28.76513672 101.10302734 C-29.64169922 101.92673828 -30.51826172 102.75044922 -31.42138672 103.59912109 C-37.61838003 109.57615939 -42.88004831 116.0155707 -47.76513672 123.10302734 C-48.16587402 123.66957031 -48.56661133 124.23611328 -48.97949219 124.81982422 C-52.86530372 130.60433348 -55.02893609 136.7866573 -57.26513672 143.35302734 C-59.84823091 150.82848368 -62.56116866 158.18564788 -65.64941406 165.46875 C-69.02818975 173.44620946 -72.00744856 181.60337489 -74.92529297 189.75927734 C-75.5589013 191.52748664 -76.21836665 193.28646104 -76.89013672 195.04052734 C-77.75038841 198.05140826 -78.23172819 200.94707944 -78.70263672 204.04052734 C-80.52618925 215.27416774 -80.52618925 215.27416774 -85.40966797 219.26318359 C-91.55583007 222.63319797 -99.46339463 222.19058533 -106.19091797 220.48974609 C-111.78454345 218.15407807 -114.28123253 215.54396032 -116.76513672 210.10302734 C-117.42513672 210.10302734 -118.08513672 210.10302734 -118.76513672 210.10302734 C-119.24638249 212.93602132 -119.72518281 215.76939391 -120.20263672 218.60302734 C-120.33734375 219.39451172 -120.47205078 220.18599609 -120.61083984 221.00146484 C-123.13856179 236.04449299 -124.88698585 249.05724677 -116.15576172 262.59912109 C-111.91381429 267.90155539 -107.27603554 270.57971899 -100.46704102 271.36962891 C-98.05885279 271.46835989 -95.67469848 271.46387329 -93.26513672 271.41552734 C-92.46205078 271.41875 -91.65896484 271.42197266 -90.83154297 271.42529297 C-79.67344383 271.32582855 -68.86680833 267.71967312 -60.53857422 260.07568359 C-56.413827 255.48758371 -53.09994148 250.27632447 -49.76513672 245.10302734 C-49.05873047 244.00990234 -48.35232422 242.91677734 -47.62451172 241.79052734 C-45.61100672 238.59351177 -43.67258581 235.36428034 -41.76513672 232.10302734 C-40.94529297 230.74371094 -40.94529297 230.74371094 -40.10888672 229.35693359 C-34.87657814 219.94678679 -32.92908878 209.55308945 -30.76513672 199.10302734 C-30.49709229 197.89211426 -30.49709229 197.89211426 -30.22363281 196.65673828 C-29.7362884 193.94234929 -29.55647116 191.33857949 -29.44873047 188.58349609 C-29.40683594 187.56191406 -29.36494141 186.54033203 -29.32177734 185.48779297 C-29.28246094 184.43269531 -29.24314453 183.37759766 -29.20263672 182.29052734 C-29.13786133 180.67887695 -29.13786133 180.67887695 -29.07177734 179.03466797 C-28.96602689 176.39090652 -28.86393439 173.74705624 -28.76513672 171.10302734 C-27.72228516 171.72822266 -26.67943359 172.35341797 -25.60498047 172.99755859 C-22.57116518 174.7284429 -19.72692764 175.91671259 -16.32763672 176.79052734 C-15.46267578 177.02126953 -14.59771484 177.25201172 -13.70654297 177.48974609 C-7.15428191 178.85588817 -0.74867924 179.28456573 5.92236328 179.29052734 C6.65519531 179.30277344 7.38802734 179.31501953 8.14306641 179.32763672 C12.29300011 179.33886287 15.50550995 178.96402614 19.23486328 177.10302734 C18.82494141 177.96025391 18.41501953 178.81748047 17.99267578 179.70068359 C15.28774557 185.44057139 12.71223257 190.9249376 11.23486328 197.10302734 C10.90486328 198.09302734 10.57486328 199.08302734 10.23486328 200.10302734 C9.21934522 208.93990156 8.99845171 217.84089853 8.92236328 226.72802734 C8.89335937 227.86498047 8.86435547 229.00193359 8.83447266 230.17333984 C8.776727 237.92014222 10.07670515 244.02639724 13.23486328 251.10302734 C13.89486328 251.10302734 14.55486328 251.10302734 15.23486328 251.10302734 C15.42048828 251.80427734 15.60611328 252.50552734 15.79736328 253.22802734 C18.88720639 259.40771355 25.18600346 263.13165761 31.23486328 266.10302734 C51.94163184 272.42883136 70.64274836 266.25765101 89.23486328 257.10302734 C89.23486328 258.09302734 89.23486328 259.08302734 89.23486328 260.10302734 C89.89486328 260.10302734 90.55486328 260.10302734 91.23486328 260.10302734 C91.47462891 260.83650391 91.71439453 261.56998047 91.96142578 262.32568359 C95.53802758 270.12618629 104.30026406 275.38823284 111.84033203 278.89208984 C117.81857027 281.02471798 123.93214456 281.94995811 130.20214844 282.81054688 C132.00527327 283.06999241 133.79906488 283.39255942 135.59033203 283.72412109 C160.37779439 288.10193113 187.98593987 285.55297936 210.54345703 273.91162109 C212.23486328 273.10302734 212.23486328 273.10302734 214.17236328 273.29052734 C216.23486328 274.10302734 216.23486328 274.10302734 218.29736328 275.47802734 C231.27256974 282.65580113 248.24852987 282.28519378 262.66757202 282.39956665 C264.62863479 282.41517921 266.58959854 282.44195948 268.55053711 282.46899414 C278.68020072 282.4617261 286.64214676 280.708078 295.67236328 276.10302734 C296.66107422 275.60802734 297.64978516 275.11302734 298.66845703 274.60302734 C300.95484287 273.26669224 302.58614006 272.1597397 304.23486328 270.10302734 C304.23486328 269.44302734 304.23486328 268.78302734 304.23486328 268.10302734 C304.9096875 268.72177734 304.9096875 268.72177734 305.59814453 269.35302734 C310.29272329 273.56779946 315.17770892 277.34366077 320.32470703 280.98974609 C322.29336486 282.4193352 324.22323476 283.90364848 326.11376953 285.43505859 C333.37195478 291.26286912 340.32326986 294.49552234 349.23486328 297.10302734 C350.27255859 297.46783203 351.31025391 297.83263672 352.37939453 298.20849609 C373.95005749 303.21323958 395.72044995 298.32830157 414.23486328 287.10302734 C415.22486328 286.44302734 416.21486328 285.78302734 417.23486328 285.10302734 C417.60998047 285.82748047 417.98509766 286.55193359 418.37158203 287.29833984 C424.29125702 298.90779195 424.29125702 298.90779195 435.00830078 305.66162109 C450.39701765 308.71236672 468.05401304 302.45565597 481.10205078 294.31396484 C482.87172364 292.98513576 484.56718776 291.55780812 486.23486328 290.10302734 C486.32123047 290.65990234 486.40759766 291.21677734 486.49658203 291.79052734 C488.02629904 300.09871515 491.18813194 306.21529454 498.23486328 311.10302734 C511.10498705 316.34162044 529.81504554 318.34864114 543.15283203 314.06787109 C546.17215388 312.66562459 548.6067747 311.13958473 551.23486328 309.10302734 C552.56130859 308.14009766 552.56130859 308.14009766 553.91455078 307.15771484 C560.89258511 301.54629851 564.50626079 295.09112606 568.23486328 287.10302734 C571.20210381 288.69262048 573.29587686 290.33167206 575.23486328 293.10302734 C576.08750104 297.85579523 576.16617799 302.36075002 575.23486328 307.10302734 C570.88821569 313.33216465 562.2051515 313.63808254 555.23486328 315.10302734 C554.56072388 315.24577591 553.88658447 315.38852448 553.1920166 315.53559875 C536.55668326 318.896325 519.75607938 318.53573749 502.87164307 318.42923737 C500.46162566 318.41539386 498.05164914 318.40713643 495.64160156 318.40057373 C466.48256426 318.31704769 437.45600804 317.5342472 408.40600586 314.85351562 C398.08559868 313.92508618 387.73962526 313.4860795 377.39193726 312.97903442 C367.83363057 312.50642531 358.34097804 311.95015255 348.83764648 310.78491211 C341.23070024 309.8925468 333.59608517 309.6765154 325.94458008 309.44458008 C324.44471558 309.39732788 324.44471558 309.39732788 322.91455078 309.34912109 C321.59559814 309.31322876 321.59559814 309.31322876 320.25 309.27661133 C317.8244753 309.13697181 315.47540993 308.89705363 313.06762695 308.59863281 C307.78552604 307.99091349 302.54313696 307.94878995 297.23095703 307.92724609 C295.05109576 307.90725406 292.87124542 307.88604149 290.69140625 307.86376953 C289.5500824 307.85261108 288.40875854 307.84145264 287.23284912 307.82995605 C266.7111943 307.60269988 246.40344505 306.7244208 225.97216797 304.83081055 C212.9923202 303.63547022 200.01103199 302.64425012 187.00439453 301.79833984 C186.16030533 301.74341873 185.31621613 301.68849762 184.44654846 301.63191223 C176.76582525 301.13371674 169.08452835 300.64469743 161.402771 300.16271973 C156.6109259 299.86205122 151.81927158 299.5585298 147.02783203 299.25146484 C146.26686659 299.20278763 145.50590115 299.15411041 144.72187614 299.10395813 C135.61914676 298.5169711 126.54966057 297.81171853 117.48651123 296.76571655 C108.2822899 295.72168395 99.03441376 295.40329905 89.78442383 294.99853516 C80.31555587 294.5763625 70.95287045 293.9137078 61.5398407 292.79281616 C55.34976264 292.07153981 49.21543962 291.82650639 42.98486328 291.72802734 C31.38052889 291.41310848 19.90115582 290.42799229 8.35986328 289.22802734 C7.55270874 289.14675598 6.7455542 289.06548462 5.91394043 288.98175049 C-2.94122055 288.08152017 -11.45901374 286.95491557 -20.0703125 284.58691406 C-22.96961348 284.06631119 -24.94249118 284.33777107 -27.76513672 285.10302734 C-27.60432617 286.10374268 -27.44351563 287.10445801 -27.27783203 288.13549805 C-26.43203309 294.08379267 -26.54081234 300.07496489 -26.52490234 306.07104492 C-26.5152374 308.26764399 -26.48417194 310.46328921 -26.45263672 312.65966797 C-26.35919086 324.76989228 -28.48050765 335.25150931 -33.51513672 346.29052734 C-33.86729248 347.06734863 -34.21944824 347.84416992 -34.58227539 348.64453125 C-37.30879246 354.47786697 -40.37883568 359.36201557 -44.76513672 364.10302734 C-45.63525391 365.07755859 -46.50537109 366.05208984 -47.40185547 367.05615234 C-60.40477323 381.52945169 -60.40477323 381.52945169 -65.20263672 384.72802734 C-67.07071523 386.05481013 -67.07071523 386.05481013 -67.01513672 388.79052734 C-66.93263672 389.55365234 -66.85013672 390.31677734 -66.76513672 391.10302734 C-61.90869232 392.84078587 -57.05485702 394.01128096 -52.01660156 395.05786133 C-51.18249441 395.2313507 -50.34838726 395.40484007 -49.48900414 395.58358669 C-40.94879513 397.32243715 -32.38279526 398.69875727 -23.74169922 399.82568359 C-22.51070433 399.98699611 -22.51070433 399.98699611 -21.25484085 400.15156746 C-1.78839748 402.63586186 17.56973254 402.76154716 37.16436768 402.56292725 C40.79874552 402.53272512 44.43295364 402.52937478 48.06744003 402.5260973 C65.14327288 402.50634936 82.04856095 402.34931173 99.02508545 400.33847046 C102.90936368 399.92461593 106.80372397 399.713624 110.70361328 399.50537109 C111.45742279 399.46494186 112.2112323 399.42451263 112.98788452 399.38285828 C115.23672263 399.26544753 117.48575303 399.15259222 119.73486328 399.04052734 C122.76623223 398.88521328 125.79745043 398.727153 128.82861328 398.56787109 C129.93187958 398.51070168 129.93187958 398.51070168 131.05743408 398.45237732 C135.12953949 398.23583271 139.1873058 397.95408685 143.25048828 397.60302734 C152.80640419 396.83471623 162.39582747 396.61774842 171.97463989 396.28735352 C189.1649226 395.69074581 206.32830484 395.00583176 223.49072266 393.85546875 C239.0734984 392.85146459 254.67966649 392.35002343 270.28393555 391.80029297 C282.66541848 391.39535775 282.66541848 391.39535775 295.02392578 390.57568359 C304.66514519 389.74678956 314.35890585 389.74004992 324.02929688 389.55078125 C326.64216535 389.49839893 329.25490818 389.44144033 331.86767578 389.38427734 C333.03376877 389.36391418 333.03376877 389.36391418 334.22341919 389.34313965 C338.27761521 389.25372984 342.27402388 389.02280552 346.30908203 388.61450195 C352.91484809 387.98016178 359.52600567 387.83357966 366.15667343 387.68803596 C368.48656315 387.63659361 370.81628469 387.58005619 373.14602661 387.52232361 C379.76532451 387.35920053 386.38481956 387.20488794 393.00439453 387.0534668 C411.3057273 386.63209887 429.58659367 386.07694273 447.86767578 385.09912109 C448.66520138 385.05735308 449.46272697 385.01558506 450.28442001 384.97255135 C452.53267392 384.8533013 454.78052128 384.72834039 457.02832031 384.60083008 C458.3032132 384.52904037 459.57810608 384.45725067 460.89163208 384.38328552 C463.75899982 384.14291828 466.43077167 383.72105256 469.23486328 383.10302734 C470.84951319 382.93357035 472.46719599 382.79125889 474.08642578 382.67333984 C475.01044189 382.60203857 475.93445801 382.5307373 476.88647461 382.45727539 C477.86769287 382.38162354 478.84891113 382.30597168 479.85986328 382.22802734 C495.37066874 380.93291239 510.15414397 378.73345075 525.08642578 374.28662109 C527.99102039 373.42579544 530.89179547 372.72413804 533.85595703 372.09912109 C537.61547632 371.28836344 541.0942416 370.15927601 544.67236328 368.72802734 C545.78611328 368.28330078 546.89986328 367.83857422 548.04736328 367.38037109 C549.09923828 366.95884766 550.15111328 366.53732422 551.23486328 366.10302734 C552.08048828 365.79494141 552.92611328 365.48685547 553.79736328 365.16943359 C565.41359739 360.87066275 576.00719688 354.33065108 585.23486328 346.10302734 C586.11271484 345.33087891 586.99056641 344.55873047 587.89501953 343.76318359 C597.53787514 334.7735995 602.05344398 324.10891629 602.53564453 310.98193359 C602.55003043 309.20985226 602.55384509 307.43765521 602.54736328 305.66552734 C602.56347656 304.78832031 602.57958984 303.91111328 602.59619141 303.00732422 C602.60091755 296.59394331 601.3781927 291.13565222 599.23486328 285.10302734 C598.57486328 285.10302734 597.91486328 285.10302734 597.23486328 285.10302734 C597.13431641 284.37986328 597.03376953 283.65669922 596.93017578 282.91162109 C595.05058319 275.31933418 588.62957461 268.40879964 582.23486328 264.10302734 C578.23093936 261.84330204 574.83796161 260.96163525 570.23486328 261.10302734 C570.28707031 260.20777344 570.28707031 260.20777344 570.34033203 259.29443359 C570.55653501 252.36564281 569.66589276 245.9693162 568.30200195 239.20678711 C566.02096823 227.61458186 566.02096823 227.61458186 569.28173828 222.41943359 C570.16661137 221.15664596 571.06815652 219.90539899 571.98486328 218.66552734 C579.61316157 208.40227273 579.61316157 208.40227273 581.23486328 196.10302734 C578.93752676 193.80569082 572.85903972 194.85332505 569.65234375 194.85205078 C550.42478715 195.10034245 532.42957281 200.87750482 518.54736328 214.41552734 C514.47049226 218.64875564 510.73195735 223.05080147 507.13720703 227.69677734 C505.21331005 230.13028975 503.19215309 232.42924238 501.10986328 234.72802734 C494.58331719 241.73807799 494.58331719 241.73807799 490.23486328 250.10302734 C488.42626953 251.13037109 488.42626953 251.13037109 486.23486328 252.10302734 C484.18273622 253.3673897 482.16102839 254.67285912 480.13720703 255.98193359 C478.23486328 257.10302734 478.23486328 257.10302734 475.23486328 258.10302734 C475.23486328 258.76302734 475.23486328 259.42302734 475.23486328 260.10302734 C468.96486328 260.10302734 462.69486328 260.10302734 456.23486328 260.10302734 C454.13142975 254.84444352 453.88787526 251.42930039 453.92236328 245.91552734 C453.92365234 245.06925781 453.92494141 244.22298828 453.92626953 243.35107422 C454.01044099 237.87572059 454.59155375 233.06716318 456.57861328 227.91552734 C457.40508382 225.9541688 457.40508382 225.9541688 457.23486328 223.10302734 C457.86763184 223.12397461 458.50040039 223.14492187 459.15234375 223.16650391 C484.46971095 223.88998808 503.27576348 220.92132171 522.23486328 203.10302734 C533.61791322 191.25449953 537.58895656 176.52371449 537.60986328 160.54052734 C537.63435547 159.55117187 537.65884766 158.56181641 537.68408203 157.54248047 C537.71404593 150.01654719 536.19078577 144.97233708 531.62939453 139.00146484 C523.62162446 131.29027885 516.06527562 126.26636824 504.79736328 125.79052734 C493.86625149 126.04395343 478.84737295 127.49361295 470.27783203 134.76318359 C468.07083064 137.0960425 466.16310311 139.53318458 464.23486328 142.10302734 C463.77821289 142.69809082 463.3215625 143.2931543 462.85107422 143.90625 C449.96895858 160.80406097 442.53316148 178.9962175 436.37158203 199.18505859 C434.32603432 205.86808211 432.15200482 212.50404746 429.93530273 219.13208008 C429.29918837 221.03506745 428.66629004 222.93910314 428.03369141 224.84326172 C426.7798692 228.60085253 425.51019006 232.35268538 424.23486328 236.10302734 C424.0195697 236.74595734 423.80427612 237.38888733 423.5824585 238.05130005 C422.94277201 239.95691219 422.29013989 241.85816316 421.63720703 243.75927734 C421.07054321 245.42506836 421.07054321 245.42506836 420.49243164 247.12451172 C418.58546774 251.6411026 415.75741066 254.76889529 412.23486328 258.10302734 C411.45111328 258.92802734 410.66736328 259.75302734 409.85986328 260.60302734 C408.99361328 261.42802734 408.12736328 262.25302734 407.23486328 263.10302734 C406.65865234 263.69728516 406.08244141 264.29154297 405.48876953 264.90380859 C394.79938291 275.31030029 379.48363722 282.20338456 364.54736328 282.29052734 C362.77605784 282.24326252 361.00483534 282.18642917 359.23486328 282.10302734 C354.14045769 273.22890147 354.14045769 273.22890147 353.67236328 267.47802734 C353.54667969 265.97369141 353.54667969 265.97369141 353.41845703 264.43896484 C353.35787109 263.66810547 353.29728516 262.89724609 353.23486328 262.10302734 C353.79359131 262.11873779 354.35231934 262.13444824 354.92797852 262.15063477 C357.50933318 262.21377658 360.09052458 262.25226438 362.67236328 262.29052734 C363.55085938 262.31566406 364.42935547 262.34080078 365.33447266 262.36669922 C376.00734839 262.48484913 382.77804737 259.3066668 390.98486328 252.66552734 C391.71318359 252.09253906 392.44150391 251.51955078 393.19189453 250.92919922 C394.59626884 249.82175705 395.99508917 248.70722444 397.38745117 247.5847168 C398.91321386 246.36100149 400.46707327 245.17240721 402.02783203 243.99365234 C404.41615199 241.9477287 406.03374225 239.88890172 407.79736328 237.29052734 C408.35552734 236.47970703 408.91369141 235.66888672 409.48876953 234.83349609 C410.06498047 233.93244141 410.64119141 233.03138672 411.23486328 232.10302734 C411.95287109 231.06146484 412.67087891 230.01990234 413.41064453 228.94677734 C416.01152058 224.30868453 415.92039514 219.62616358 415.85986328 214.41552734 C415.85148438 213.43817627 415.84310547 212.4608252 415.83447266 211.45385742 C415.44727104 199.06649496 410.11284815 190.5344335 401.23486328 182.10302734 C391.6533048 174.28134695 375.93039955 176.40133644 364.23486328 177.10302734 C352.99301661 178.77518142 345.5057247 185.54617263 338.73486328 194.35302734 C334.77595646 200.28205052 331.92109154 206.84442855 329.04931641 213.35205078 C322.41942797 228.010745 322.41942797 228.010745 316.23486328 231.10302734 C316.59580078 230.39919922 316.95673828 229.69537109 317.32861328 228.97021484 C321.48202227 220.1326835 322.94131662 211.91930744 320.53564453 202.31005859 C316.21984234 190.56452097 308.32798428 180.74358021 296.92236328 175.35302734 C295.03845043 174.57356831 293.14183477 173.82423729 291.23486328 173.10302734 C289.68992187 172.51328125 289.68992187 172.51328125 288.11376953 171.91162109 C282.64179097 169.95099956 278.05324893 168.57408319 272.23486328 169.10302734 C274.58222947 165.28855728 277.14252848 162.03278099 280.17236328 158.72802734 C290.65135387 147.00708232 294.66321254 134.62785897 294.79736328 119.04052734 C294.8119458 118.0530249 294.82652832 117.06552246 294.84155273 116.0480957 C294.74603647 109.27801887 293.49142223 105.38295873 288.60205078 100.45849609 C283.38984291 96.37878365 280.50705787 95.67648272 273.93408203 95.77099609 C271.02486259 95.92979109 271.02486259 95.92979109 268.23486328 98.04052734 C265.6958611 101.92837444 264.49948933 105.6633827 263.23486328 110.10302734 C261.31956743 116.40609188 259.23233336 122.31825779 256.17236328 128.16552734 C253.30515942 133.70591375 251.69197593 139.06410493 250.23486328 145.10302734 C248.2124217 152.85572007 246.01510312 160.2003743 242.48095703 167.40771484 C241.13880255 170.21410621 241.13880255 170.21410621 239.92626953 173.67724609 C233.59332616 190.82503184 224.6413635 206.93928905 214.03564453 221.78125 C211.69192584 225.10317963 211.69192584 225.10317963 211.23486328 229.10302734 C210.57486328 229.10302734 209.91486328 229.10302734 209.23486328 229.10302734 C207.95609685 230.78851629 207.95609685 230.78851629 206.67236328 232.97802734 C199.04824686 244.78611009 187.9209691 256.66714764 174.01611328 260.75537109 C169.79752142 261.28269508 165.60764899 261.32815012 161.35986328 261.35302734 C160.05082031 261.38396484 160.05082031 261.38396484 158.71533203 261.41552734 C151.11299413 261.46125569 146.30781024 259.79777509 140.23486328 255.10302734 C140.83322998 255.09368164 141.43159668 255.08433594 142.0480957 255.07470703 C163.33187694 254.65773869 178.67032472 251.36788483 194.08642578 235.72924805 C204.27655856 224.93761438 208.40364945 213.34651631 208.48486328 198.72802734 C208.50548828 197.80763672 208.52611328 196.88724609 208.54736328 195.93896484 C208.58043569 190.15129325 207.93246538 186.2342657 205.23486328 181.10302734 C204.84427734 180.32056641 204.45369141 179.53810547 204.05126953 178.73193359 C198.71976651 169.94574948 190.8133116 164.78486335 180.98071289 162.12841797 C171.17780781 159.83514134 161.49315513 159.60551827 151.47070312 160.01318359 C149.4828896 160.09306079 147.49353313 160.13220146 145.50439453 160.16552734 C132.31156984 160.66991252 123.32508189 165.7866839 114.23486328 175.10302734 C113.50912109 175.79654297 112.78337891 176.49005859 112.03564453 177.20458984 C106.71682695 182.60934882 102.83629122 188.63677067 98.92236328 195.10302734 C98.41850098 195.93358643 97.91463867 196.76414551 97.39550781 197.61987305 C94.07262934 203.26587989 91.55489596 208.98651575 89.23486328 215.10302734 C88.81720703 216.04533203 88.39955078 216.98763672 87.96923828 217.95849609 C84.67871568 225.75390083 84.82996965 232.76896669 85.23486328 241.10302734 C83.59517578 241.31958984 83.59517578 241.31958984 81.92236328 241.54052734 C78.30363341 241.98590839 78.30363341 241.98590839 75.23486328 243.10302734 C73.00911993 243.32754193 70.77904809 243.51085612 68.54736328 243.66552734 C67.36787109 243.74931641 66.18837891 243.83310547 64.97314453 243.91943359 C64.06951172 243.98001953 63.16587891 244.04060547 62.23486328 244.10302734 C62.4632403 233.72329174 62.87514829 224.68576724 67.23486328 215.10302734 C68.13401058 212.93773384 69.02980262 210.77104424 69.92236328 208.60302734 C70.33873047 207.62333984 70.75509766 206.64365234 71.18408203 205.63427734 C73.34144784 200.43735153 73.42642439 196.2150312 73.42236328 190.66552734 C73.42333008 189.32312988 73.42333008 189.32312988 73.42431641 187.95361328 C73.37029439 181.14929446 72.7487002 174.75309667 71.23486328 168.10302734 C72.23904297 168.12623047 73.24322266 168.14943359 74.27783203 168.17333984 C90.45142501 168.6615626 90.45142501 168.6615626 105.23486328 163.10302734 C106.83580505 162.3874351 108.44002284 161.67912899 110.04736328 160.97802734 C118.89521662 156.57387978 124.02752508 149.25253231 127.23486328 140.10302734 C127.79173828 138.63542969 127.79173828 138.63542969 128.35986328 137.13818359 C133.53172637 122.32295079 131.86238739 107.99691992 125.35205078 93.86865234 C115.17906907 73.10272495 97.70815174 53.58392371 76.23486328 44.10302734 C75.57486328 44.10302734 74.91486328 44.10302734 74.23486328 44.10302734 C74.23486328 43.44302734 74.23486328 42.78302734 74.23486328 42.10302734 C73.32607422 41.73951172 73.32607422 41.73951172 72.39892578 41.36865234 C70.63033719 40.66121691 68.8621372 39.95280954 67.09423828 39.24365234 C65.27420632 38.51762866 63.45154294 37.79814218 61.62548828 37.08740234 C57.83380244 35.60369919 54.21084073 34.12051114 50.67236328 32.10302734 C19.99502125 16.64262084 -37.96746716 17.33300858 -61.83935547 43.48583984 Z M607.23486328 361.10302734 C606.40847952 363.9953705 606.23486328 365.99045165 606.23486328 369.10302734 C607.22486328 369.43302734 608.21486328 369.76302734 609.23486328 370.10302734 C610.23486328 371.91552734 610.23486328 371.91552734 611.23486328 374.10302734 C612.21068087 375.45415939 613.20516069 376.79249678 614.23486328 378.10302734 C617.96100481 376.98448148 617.96100481 376.98448148 620.23486328 374.10302734 C615.72079376 366.71518846 615.72079376 366.71518846 609.23486328 361.10302734 C608.57486328 361.10302734 607.91486328 361.10302734 607.23486328 361.10302734 Z M596.67236328 369.47802734 C595.01400532 370.99109797 595.01400532 370.99109797 595.23486328 373.10302734 C596.55486328 373.10302734 597.87486328 373.10302734 599.23486328 373.10302734 C599.23486328 374.75302734 599.23486328 376.40302734 599.23486328 378.10302734 C601.87486328 377.44302734 604.51486328 376.78302734 607.23486328 376.10302734 C606.90486328 377.09302734 606.57486328 378.08302734 606.23486328 379.10302734 C607.22486328 379.10302734 608.21486328 379.10302734 609.23486328 379.10302734 C607.6833982 383.75742258 604.18028365 385.28486994 600.23486328 388.10302734 C601.22486328 391.73302734 602.21486328 395.36302734 603.23486328 399.10302734 C599.93486328 397.12302734 596.63486328 395.14302734 593.23486328 393.10302734 C591.59517578 394.30958984 591.59517578 394.30958984 589.92236328 395.54052734 C587.59836461 397.25063957 586.0201115 398.17461127 583.23486328 399.10302734 C583.56486328 397.78302734 583.89486328 396.46302734 584.23486328 395.10302734 C582.58486328 395.43302734 580.93486328 395.76302734 579.23486328 396.10302734 C580.24793224 399.04092733 581.16653691 400.05803193 583.79736328 401.79052734 C590.18239704 404.22844932 595.97069687 405.02614723 602.37548828 402.25927734 C606.65427108 399.59852166 609.65260107 395.84981396 611.23486328 391.10302734 C611.98183686 384.49764666 611.7513017 379.26421792 607.80908203 373.76318359 C605.24795087 371.06223882 602.60777927 369.6597578 599.23486328 368.10302734 C598.01309 367.99292269 598.01309 367.99292269 596.67236328 369.47802734 Z M620.23486328 376.10302734 C619.57486328 377.09302734 618.91486328 378.08302734 618.23486328 379.10302734 C617.24486328 379.76302734 616.25486328 380.42302734 615.23486328 381.10302734 C614.61453556 383.71641886 614.61453556 383.71641886 614.35986328 386.72802734 C613.34396699 393.51421455 611.67988475 398.26798956 606.29345703 402.70068359 C600.49951556 406.42165853 594.99420737 407.16292449 588.23486328 406.10302734 C582.11582153 404.30951511 577.54387943 400.53460319 574.23486328 395.10302734 C573.25295098 392.40748924 572.73376767 389.94678238 572.23486328 387.10302734 C567.75602632 387.55006721 567.75602632 387.55006721 564.23486328 390.10302734 C567.77292396 399.9265813 571.04017384 406.68604 580.43017578 411.86865234 C588.2491726 415.30988214 595.56332336 415.87109087 603.69189453 413.22021484 C611.55885286 409.76407032 616.94936544 404.261033 620.48486328 396.47802734 C622.72580339 390.5845313 623.82910733 383.7174585 621.21142578 377.78271484 C620.88916016 377.22841797 620.56689453 376.67412109 620.23486328 376.10302734 Z M593.23486328 377.10302734 C592.24486328 377.59802734 592.24486328 377.59802734 591.23486328 378.10302734 C591.23486328 379.42302734 591.23486328 380.74302734 591.23486328 382.10302734 C589.91486328 381.77302734 588.59486328 381.44302734 587.23486328 381.10302734 C586.57486328 382.09302734 585.91486328 383.08302734 585.23486328 384.10302734 C585.56486328 384.76302734 585.89486328 385.42302734 586.23486328 386.10302734 C589.17912145 386.34838219 590.89255892 386.27880526 593.54736328 384.91552734 C595.50317018 383.18475213 595.50317018 383.18475213 595.48486328 380.41552734 C595.36111328 379.27083984 595.36111328 379.27083984 595.23486328 378.10302734 C594.57486328 377.77302734 593.91486328 377.44302734 593.23486328 377.10302734 Z M614.23486328 379.10302734 C615.23486328 381.10302734 615.23486328 381.10302734 615.23486328 381.10302734 Z M577.23486328 382.10302734 C576.24486328 382.59802734 576.24486328 382.59802734 575.23486328 383.10302734 C574.91923146 388.36355771 575.56895391 391.5487655 578.23486328 396.10302734 C580.54486328 394.12302734 582.85486328 392.14302734 585.23486328 390.10302734 C584.90486328 389.44302734 584.57486328 388.78302734 584.23486328 388.10302734 C582.58486328 388.10302734 580.93486328 388.10302734 579.23486328 388.10302734 C579.89486328 386.78302734 580.55486328 385.46302734 581.23486328 384.10302734 C579.35170169 382.99466312 579.35170169 382.99466312 577.23486328 382.10302734 Z M599.23486328 383.10302734 C596.59486328 385.08302734 593.95486328 387.06302734 591.23486328 389.10302734 C594.99916102 391.10302734 594.99916102 391.10302734 598.23486328 392.10302734 C597.90486328 390.12302734 597.57486328 388.14302734 597.23486328 386.10302734 C598.55486328 385.44302734 599.87486328 384.78302734 601.23486328 384.10302734 C600.57486328 383.77302734 599.91486328 383.44302734 599.23486328 383.10302734 Z M588.23486328 391.10302734 C587.90486328 391.76302734 587.57486328 392.42302734 587.23486328 393.10302734 C588.22486328 392.77302734 589.21486328 392.44302734 590.23486328 392.10302734 C589.57486328 391.77302734 588.91486328 391.44302734 588.23486328 391.10302734 Z " fill="#292174" transform="translate(167.76513671875,-0.10302734375)"/>
<path d="M0 0 C6.93 -0.0928125 6.93 -0.0928125 14 -0.1875 C16.16175781 -0.22846802 16.16175781 -0.22846802 18.3671875 -0.27026367 C25.28155679 -0.31501843 30.79737895 -0.18735412 37 3 C42.55143371 8.55143371 45.35339683 13.98169261 45.5703125 21.77709961 C45.52597335 35.81182612 45.52597335 35.81182612 40.85546875 42.1796875 C35.45476439 47.47806273 28.9716116 49.13109327 21.58203125 49.09765625 C19.88784058 49.09390991 19.88784058 49.09390991 18.15942383 49.09008789 C16.00769653 49.07643188 16.00769653 49.07643188 13.8125 49.0625 C9.254375 49.041875 4.69625 49.02125 0 49 C0 32.83 0 16.66 0 0 Z " fill="#FEF9F9" transform="translate(581,327)"/>
<path d="M0 0 C4.95 0 9.9 0 15 0 C18.63435236 3.84202964 20.53568904 6.50289245 23 11 C24.19131329 12.8871375 25.41302092 14.75146617 26.64306641 16.61352539 C28.45917806 19.38932037 30.22450694 22.19805002 32 25 C32.33 16.75 32.66 8.5 33 0 C37.62 0 42.24 0 47 0 C47 16.17 47 32.34 47 49 C33 49 33 49 29.18359375 45.52734375 C28.21809832 44.02852704 27.3026823 42.49637541 26.4375 40.9375 C25.97021484 40.18533203 25.50292969 39.43316406 25.02148438 38.65820312 C24.13993581 37.23813535 23.27857869 35.80513253 22.44702148 34.35522461 C20.46450566 31.12841 18.2012513 28.08175181 16 25 C15.67 32.92 15.34 40.84 15 49 C10.05 49 5.1 49 0 49 C0 32.83 0 16.66 0 0 Z " fill="#FEF8F8" transform="translate(523,327)"/>
<path d="M0 0 C5.61 0 11.22 0 17 0 C20.50907854 7.99743481 23.76617086 15.93810141 26.6328125 24.19140625 C28.51646968 29.53703611 30.64394337 34.79290469 32.76538086 40.04785156 C35 45.67504578 35 45.67504578 35 49 C29.72 49 24.44 49 19 49 C17 44 17 44 17 41 C11.06 41 5.12 41 -1 41 C-1.33 43.64 -1.66 46.28 -2 49 C-7.28 49 -12.56 49 -18 49 C-15.87947936 39.98778726 -12.55691341 31.66780186 -9.0703125 23.12109375 C-6.87656157 17.73633995 -4.82713776 12.30369283 -2.81518555 6.84887695 C-1.08789358 2.17578716 -1.08789358 2.17578716 0 0 Z " fill="#FDF6F6" transform="translate(483,327)"/>
<path d="M0 0 C13.2 0 26.4 0 40 0 C40 3.3 40 6.6 40 10 C31.75 10 23.5 10 15 10 C15 12.64 15 15.28 15 18 C22.92 18 30.84 18 39 18 C39 21.3 39 24.6 39 28 C31.08 28 23.16 28 15 28 C15 31.3 15 34.6 15 38 C23.91 38 32.82 38 42 38 C42 41.63 42 45.26 42 49 C28.14 49 14.28 49 0 49 C0 32.83 0 16.66 0 0 Z " fill="#FEF8F9" transform="translate(374,327)"/>
<path d="M0 0 C13.2 0 26.4 0 40 0 C40 3.3 40 6.6 40 10 C31.75 10 23.5 10 15 10 C15 12.64 15 15.28 15 18 C22.92 18 30.84 18 39 18 C39 21.3 39 24.6 39 28 C31.08 28 23.16 28 15 28 C15 31.3 15 34.6 15 38 C23.58 38 32.16 38 41 38 C41 41.63 41 45.26 41 49 C27.47 49 13.94 49 0 49 C0 32.83 0 16.66 0 0 Z " fill="#FEF9F9" transform="translate(271,327)"/>
<path d="M0 0 C2.25801382 2.25801382 3.7548202 4.24041095 5.125 7.125 C5.125 8.445 5.125 9.765 5.125 11.125 C0.28258367 12.46083899 -3.80937617 13.37828119 -8.875 13.125 C-9.16375 12.485625 -9.4525 11.84625 -9.75 11.1875 C-10.70323451 8.97293921 -10.70323451 8.97293921 -12.875 8.125 C-18.34500776 7.48002788 -18.34500776 7.48002788 -23.10546875 9.68359375 C-25.5424306 13.04584796 -25.37413473 15.38280015 -25.3125 19.5 C-25.31056641 21.42972656 -25.31056641 21.42972656 -25.30859375 23.3984375 C-24.85723958 27.27764364 -23.82996196 29.77511823 -21.875 33.125 C-15.78481394 33.71114264 -15.78481394 33.71114264 -10.375 31.375 C-8.93444967 29.2141745 -8.23984426 27.67890984 -7.875 25.125 C-3.02811808 25.90675515 1.5016367 27.52344278 6.125 29.125 C4.96293861 34.40709722 3.43911468 38.59434482 -0.875 42.125 C-8.075639 46.46419104 -15.63771945 47.12627345 -23.875 46.125 C-30.56311801 44.4379971 -35.24802386 40.98396145 -38.875 35.125 C-42.63328767 27.72231216 -43.07366347 19.41721228 -41.25390625 11.3828125 C-39.06018544 4.96739786 -35.54733513 0.80986923 -29.875 -2.875 C-20.19008028 -7.07788969 -8.74291288 -5.70189971 0 0 Z " fill="#FDF5F6" transform="translate(210.875,330.875)"/>
<path d="M0 0 C5.28 0 10.56 0 16 0 C17.29544076 3.83209452 18.58645847 7.66558577 19.875 11.5 C20.23980469 12.57765625 20.60460937 13.6553125 20.98046875 14.765625 C22.8945441 20.47304967 24.64723373 26.13326628 26 32 C29.01215232 25.15113971 31.21906448 18.16577735 33.2487793 10.97875977 C33.44769775 10.27807373 33.64661621 9.5773877 33.8515625 8.85546875 C34.11187256 7.92190552 34.11187256 7.92190552 34.37744141 6.96948242 C35.12558126 4.60271999 36.078137 2.30465751 37 0 C41.95 0 46.9 0 52 0 C51.24807313 5.2634881 50.7310305 8.16945485 48.6875 12.75 C44.9592593 21.36352161 41.90170611 30.14662994 39.02734375 39.078125 C37.8433922 42.44540926 36.40604055 45.71923872 35 49 C29.06 49 23.12 49 17 49 C16.278125 46.793125 15.55625 44.58625 14.8125 42.3125 C12.43070182 35.11702824 9.75763479 28.05986854 7 21 C5.90723879 18.17020238 4.82627649 15.33610339 3.75 12.5 C3.3624353 11.4936853 3.3624353 11.4936853 2.96704102 10.46704102 C1.63152328 6.93844384 0.74634484 3.73172418 0 0 Z " fill="#FDF6F6" transform="translate(316,327)"/>
<path d="M0 0 C1.57029224 0.34090105 3.13301434 0.71805335 4.6875 1.125 C6.4369657 1.44047742 8.18697202 1.75297128 9.9375 2.0625 C15.8077058 3.32364159 19.8916767 4.33847873 23.73046875 9.359375 C25.49626148 12.61708241 25.47447223 15.62953169 24.6875 19.125 C22.66226477 24.6032613 19.73513891 27.43080652 14.5625 30.0625 C3.03778913 35.22935366 -11.15507191 33.762249 -23.3125 31.125 C-26.01613101 30.01646898 -27.94339121 28.85849424 -30.3125 27.125 C-26.03258007 21.74452923 -21.24265547 17.20021827 -16.13305664 12.62915039 C-12.91039322 9.71617235 -10.17707678 6.80268446 -7.5625 3.3125 C-5.10655619 0.39795243 -3.82852369 -0.35289001 0 0 Z " fill="#2C2073" transform="translate(210.3125,86.875)"/>
<path d="M0 0 C4.95 0 9.9 0 15 0 C15 12.21 15 24.42 15 37 C22.92 37 30.84 37 39 37 C39 40.96 39 44.92 39 49 C26.13 49 13.26 49 0 49 C0 32.83 0 16.66 0 0 Z " fill="#FEF9F9" transform="translate(424,327)"/>
<path d="M0 0 C4.95 0 9.9 0 15 0 C15 12.21 15 24.42 15 37 C22.59 37 30.18 37 38 37 C38 40.96 38 44.92 38 49 C25.46 49 12.92 49 0 49 C0 32.83 0 16.66 0 0 Z " fill="#FEFAFA" transform="translate(225,327)"/>
<path d="M0 0 C1.14626322 0.97866338 2.29199788 1.95794587 3.4375 2.9375 C4.07558594 3.48277344 4.71367188 4.02804687 5.37109375 4.58984375 C7.98663567 6.85413783 7.98663567 6.85413783 8.2734375 9.984375 C8.30695313 11.22703125 8.34046875 12.4696875 8.375 13.75 C8.42398438 14.98234375 8.47296875 16.2146875 8.5234375 17.484375 C7.85159619 21.99674199 6.62524473 23.29198587 3 26 C-2.16012201 27.97569475 -7.5998698 28.88194355 -13 30 C-13.6591893 30.14175659 -14.3183786 30.28351318 -14.99754333 30.42956543 C-32.38877738 34.04277429 -50.08740801 33.35078838 -67.74975586 33.20599365 C-71.96072816 33.17484619 -76.17175728 33.16150664 -80.3828125 33.14648438 C-88.5886941 33.1146791 -96.79430447 33.06374114 -105 33 C-105 32.67 -105 32.34 -105 32 C-70.35 31.505 -70.35 31.505 -35 31 C-39.95 30.67 -44.9 30.34 -50 30 C-50 29.67 -50 29.34 -50 29 C-49.42668945 29.00112793 -48.85337891 29.00225586 -48.26269531 29.00341797 C-31.73212325 28.93886163 -31.73212325 28.93886163 -17 22 C-16.18402344 21.4328125 -15.36804688 20.865625 -14.52734375 20.28125 C-7.8914819 15.0523238 -4.66171528 8.42151222 -1 1 C-0.67 0.67 -0.34 0.34 0 0 Z " fill="#341F6F" transform="translate(736,286)"/>
<path d="M0 0 C1.41493551 -0.10884119 2.83232943 -0.18597617 4.25 -0.25 C5.03890625 -0.29640625 5.8278125 -0.3428125 6.640625 -0.390625 C9.95235254 0.15767426 11.02699844 1.31919519 13 4 C14.36203195 10.52714012 13.69832851 16.67771639 10.4375 22.5 C7.4559258 26.80749779 4.62280251 29.52349866 0 32 C-3.3125 32.4375 -3.3125 32.4375 -6 32 C-9.35507335 28.64492665 -8.82861889 24.33978351 -9.1015625 19.765625 C-8.93941453 13.75367725 -7.41990906 7.87520123 -3.484375 3.19921875 C-2 2 -2 2 0 2 C0 1.34 0 0.68 0 0 Z " fill="#2F2071" transform="translate(435,207)"/>
<path d="M0 0 C2.88273659 1.85714761 5.44315474 3.88630949 7 7 C8.09689781 13.5675021 6.53346359 17.67268041 2.80078125 23.0546875 C0.102073 25.9699949 -2.11283102 27.79972728 -6.1809082 28.23144531 C-8.73186309 28.29514967 -11.26191385 28.26167812 -13.8125 28.1875 C-15.13797852 28.16719727 -15.13797852 28.16719727 -16.49023438 28.14648438 C-18.66042023 28.11129217 -20.83029033 28.05748985 -23 28 C-22.22847725 24.53471667 -21.06115717 22.4311303 -18.9375 19.5625 C-15.21086608 14.4037299 -11.94610208 9.05660017 -8.69921875 3.58984375 C-6.25246191 -0.13935116 -4.34626929 -0.59267309 0 0 Z " fill="#302071" transform="translate(665,154)"/>
<path d="M0 0 C0.66 0 1.32 0 2 0 C2 0.66 2 1.32 2 2 C3.32 2 4.64 2 6 2 C6.33 3.32 6.66 4.64 7 6 C10.465 5.505 10.465 5.505 14 5 C14 5.66 14 6.32 14 7 C14.66 7.33 15.32 7.66 16 8 C15.61479436 10.53910197 15.29902057 11.72751123 13.37109375 13.484375 C11.58072917 14.65625 9.79036458 15.828125 8 17 C8.99 20.63 9.98 24.26 11 28 C7.58678765 28 6.60527115 27.33132534 3.8125 25.5 C3.09707031 25.0359375 2.38164063 24.571875 1.64453125 24.09375 C1.10183594 23.7328125 0.55914063 23.371875 0 23 C-0.47050781 23.3609375 -0.94101562 23.721875 -1.42578125 24.09375 C-2.04839844 24.5578125 -2.67101562 25.021875 -3.3125 25.5 C-3.92738281 25.9640625 -4.54226563 26.428125 -5.17578125 26.90625 C-7 28 -7 28 -10 28 C-10 27.01 -10 26.02 -10 25 C-11.32 25 -12.64 25 -14 25 C-12.70700306 22.11562221 -11.34058637 20.12780579 -9 18 C-10.65 17.67 -12.3 17.34 -14 17 C-13.835 16.4225 -13.67 15.845 -13.5 15.25 C-12.85537969 12.73335631 -12.85537969 12.73335631 -13 9 C-12.01 9 -11.02 9 -10 9 C-10 8.34 -10 7.68 -10 7 C-9.443125 6.938125 -8.88625 6.87625 -8.3125 6.8125 C-5.043233 5.66383862 -3.32340442 3.51178856 -1 1 C-0.67 0.67 -0.34 0.34 0 0 Z M0 6 C-0.99 6.495 -0.99 6.495 -2 7 C-2 8.32 -2 9.64 -2 11 C-3.32 10.67 -4.64 10.34 -6 10 C-6.66 10.99 -7.32 11.98 -8 13 C-7.67 13.66 -7.34 14.32 -7 15 C-4.05574183 15.24535485 -2.34230436 15.17577792 0.3125 13.8125 C2.2683069 12.08172479 2.2683069 12.08172479 2.25 9.3125 C2.12625 8.1678125 2.12625 8.1678125 2 7 C1.34 6.67 0.68 6.34 0 6 Z M6 12 C3.36 13.98 0.72 15.96 -2 18 C1.76429774 20 1.76429774 20 5 21 C4.67 19.02 4.34 17.04 4 15 C5.32 14.34 6.64 13.68 8 13 C7.34 12.67 6.68 12.34 6 12 Z M-5 20 C-5.33 20.66 -5.66 21.32 -6 22 C-5.01 21.67 -4.02 21.34 -3 21 C-3.66 20.67 -4.32 20.34 -5 20 Z " fill="#62676C" transform="translate(761,371)"/>
<path d="M0 0 C3.94622856 0.4228102 6.20892274 2.27537696 9 5 C15.59978285 14.72431772 17.42866678 23.37333609 16 35 C13.55772192 43.17397128 9.06742685 49.27522116 2 54 C1.37996094 54.43183594 0.75992188 54.86367188 0.12109375 55.30859375 C-7.87321533 59.82983705 -19.43310896 59.51951617 -28.10546875 57.15234375 C-37.10864582 53.0346116 -42.94674091 46.00142718 -47.28515625 37.296875 C-48.08393372 34.73031131 -47.90875448 33.49193054 -47 31 C-46.01 31 -45.02 31 -44 31 C-43.75765625 31.65226562 -43.5153125 32.30453125 -43.265625 32.9765625 C-39.50819907 42.7747732 -35.81548982 48.61205751 -26 53 C-17.87138098 55.56522331 -10.83450235 55.41102179 -3 52 C4.2210377 48.01980345 7.89774263 42.50483722 11.3125 35.1875 C13.19000985 26.4826816 12.35123252 18.81092811 8 11 C5.34291671 7.31615868 2.21284401 4.19377669 -1 1 C-0.67 0.67 -0.34 0.34 0 0 Z " fill="#63686C" transform="translate(777,359)"/>
<path d="M0 0 C9.48275862 0 9.48275862 0 13 3 C14.76795358 6.59154206 15.27238313 9.5158025 15.25 13.5 C15.25515625 14.4178125 15.2603125 15.335625 15.265625 16.28125 C14.7899739 21.1496789 13.4677073 23.5322927 10 27 C6.7 27 3.4 27 0 27 C0 18.09 0 9.18 0 0 Z " fill="#E20F0F" transform="translate(596,338)"/>
<path d="M0 0 C0.99 0 1.98 0 3 0 C2.34 1.98 1.68 3.96 1 6 C1.763125 6.7425 2.52625 7.485 3.3125 8.25 C5.4393702 10.4263323 7.2559956 12.52167796 9 15 C10.65 14.34 12.3 13.68 14 13 C14.495 15.475 14.495 15.475 15 18 C13.35 18.33 11.7 18.66 10 19 C10.1546875 20.918125 10.1546875 20.918125 10.3125 22.875 C10.28476154 28.74630689 8.37404714 33.23758896 5 38 C-0.92462685 43.69409663 -6.00690554 45.38758108 -14.15234375 45.26953125 C-20.45908582 44.67259682 -24.53574946 41.78567803 -28.875 37.3125 C-32.2733087 33.20201727 -33.4058307 29.23839055 -34 24 C-32.68 23.34 -31.36 22.68 -30 22 C-29.90203125 22.58007812 -29.8040625 23.16015625 -29.703125 23.7578125 C-28.70528919 28.97064439 -27.53627759 32.87434281 -24 37 C-18.87423054 40.45691429 -12.91519903 41.72269803 -6.8203125 40.59765625 C-1.63268956 38.94348969 0.93998681 36.45092828 4 32 C5.76006109 26.71981674 6.08596371 20.86937826 4.09375 15.60546875 C1.50856388 11.13939401 -1.05464917 8.84013054 -6 7 C-6 6.34 -6 5.68 -6 5 C-4.68 4.67 -3.36 4.34 -2 4 C-2 3.34 -2 2.68 -2 2 C-1.34 2 -0.68 2 0 2 C0 1.34 0 0.68 0 0 Z M9 17 C10 19 10 19 10 19 Z " fill="#63686D" transform="translate(773,362)"/>
<path d="M0 0 C2.5 1.0625 2.5 1.0625 4 3 C4.5625 6.375 4.5625 6.375 4 10 C1.16369676 13.6466756 -1.50840302 15.87710075 -6 17 C-13.98083509 17.78962326 -13.98083509 17.78962326 -16.734375 15.65625 C-18 14 -18 14 -18.625 11.1875 C-17.70266619 6.48359755 -14.78192327 4.68864781 -11 2 C-7.28958674 -0.47360884 -4.2997237 -0.53638404 0 0 Z " fill="#311F70" transform="translate(546,211)"/>
<path d="M0 0 C1.49002217 13.99556541 1.49002217 13.99556541 1 21 C-0.9862869 22.9862869 -4.66997322 22.27479052 -7.375 22.3125 C-8.06078125 22.34150391 -8.7465625 22.37050781 -9.453125 22.40039062 C-12.71280691 22.44161228 -14.53057259 22.40737666 -17.0390625 20.23046875 C-18 18 -18 18 -17.9453125 15.9921875 C-16.69742379 13.36233939 -15.0966568 12.00022896 -12.875 10.125 C-12.06804688 9.43664062 -11.26109375 8.74828125 -10.4296875 8.0390625 C-9.62789062 7.36617187 -8.82609375 6.69328125 -8 6 C-6.66636186 4.83368177 -5.33299064 3.6670582 -4 2.5 C-1 0 -1 0 0 0 Z " fill="#331F6F" transform="translate(701,244)"/>
<path d="M0 0 C1.04285156 -0.01417969 2.08570313 -0.02835938 3.16015625 -0.04296875 C5.9375 0.1875 5.9375 0.1875 8.9375 2.1875 C9.25 5.6875 9.25 5.6875 8.9375 9.1875 C5.6969819 12.4280181 1.85573244 12.06167362 -2.57421875 12.3671875 C-7.85388448 12.09522264 -11.69624994 10.03591144 -16.0625 7.1875 C-14.79971868 3.39915605 -13.54137048 2.96738722 -10.0625 1.1875 C-6.69895699 0.10793488 -3.52039518 0.02181162 0 0 Z " fill="#3B1D6A" transform="translate(330.0625,198.8125)"/>
<path d="M0 0 C1.74949772 2.62424658 2.65389981 4.55727216 3.625 7.5 C3.88539063 8.2734375 4.14578125 9.046875 4.4140625 9.84375 C5 12 5 12 5 15 C2.03 15 -0.94 15 -4 15 C-3.43179252 9.54520815 -2.05362055 5.08940744 0 0 Z " fill="#E20C0D" transform="translate(491,342)"/>
<path d="M0 0 C0.99 0.99 1.98 1.98 3 3 C2.67 3.66 2.34 4.32 2 5 C1.34 5 0.68 5 0 5 C-0.33 5.66 -0.66 6.32 -1 7 C-4.74198039 7.70603404 -8.18792739 8 -12 8 C-11.67 6.68 -11.34 5.36 -11 4 C-9.39125 3.566875 -9.39125 3.566875 -7.75 3.125 C-4.90599636 2.27179891 -2.56491017 1.4363497 0 0 Z " fill="#5C5C6D" transform="translate(774,404)"/>
<path d="M0 0 C3.69900008 0.88776002 7.34550461 1.94581864 11 3 C11 3.66 11 4.32 11 5 C11.66 5.66 12.32 6.32 13 7 C12.01 7.495 12.01 7.495 11 8 C9.32700041 7.34938905 7.66140763 6.67966676 6 6 C4.0075675 5.62406934 2.0081326 5.28020455 0 5 C-0.33 4.01 -0.66 3.02 -1 2 C-0.67 1.34 -0.34 0.68 0 0 Z " fill="#575762" transform="translate(747,405)"/>
<path d="M0 0 C0.33 0 0.66 0 1 0 C1 2.31 1 4.62 1 7 C1.66 7 2.32 7 3 7 C2.67 8.65 2.34 10.3 2 12 C7.28 12 12.56 12 18 12 C18 12.33 18 12.66 18 13 C15.18743719 13.02684312 12.37512759 13.04676188 9.5625 13.0625 C8.76005859 13.07087891 7.95761719 13.07925781 7.13085938 13.08789062 C5.08704779 13.0965143 3.04316098 13.0522815 1 13 C0 12 0 12 -0.09765625 9.27734375 C-0.08605469 8.17519531 -0.07445312 7.07304687 -0.0625 5.9375 C-0.05347656 4.83277344 -0.04445313 3.72804688 -0.03515625 2.58984375 C-0.02355469 1.73519531 -0.01195312 0.88054687 0 0 Z " fill="#E41E1F" transform="translate(463,364)"/>
<path d="M0 0 C0.66 0 1.32 0 2 0 C2.33 3.63 2.66 7.26 3 11 C2.01 10.67 1.02 10.34 0 10 C-0.80078125 8.22265625 -0.80078125 8.22265625 -1.3125 6.0625 C-1.49425781 5.35222656 -1.67601562 4.64195312 -1.86328125 3.91015625 C-1.90839844 3.27980469 -1.95351563 2.64945312 -2 2 C-1.34 1.34 -0.68 0.68 0 0 Z " fill="#676D6F" transform="translate(741,384)"/>
<path d="M0 0 C0.66 0.33 1.32 0.66 2 1 C-1.63 4.63 -5.26 8.26 -9 12 C-9.66 11.67 -10.32 11.34 -11 11 C-7.6189962 6.86378916 -4.33409466 3.18683431 0 0 Z " fill="#BB041A" transform="translate(520,181)"/>
<path d="M0 0 C0.33 0.66 0.66 1.32 1 2 C2.65 1.67 4.3 1.34 6 1 C6.33 2.32 6.66 3.64 7 5 C5.35 5.66 3.7 6.32 2 7 C1.01 5.02 0.02 3.04 -1 1 C-0.67 0.67 -0.34 0.34 0 0 Z " fill="#5E5E63" transform="translate(779,369)"/>
<path d="M0 0 C2.95183101 2.95183101 3.08663988 5.95511947 4 10 C3.01 10 2.02 10 1 10 C0.01 7.36 -0.98 4.72 -2 2 C-1.34 1.34 -0.68 0.68 0 0 Z " fill="#5D6065" transform="translate(768,389)"/>
<path d="M0 0 C0.33 0.66 0.66 1.32 1 2 C1.66 2.33 2.32 2.66 3 3 C0.36 4.65 -2.28 6.3 -5 8 C-5.3125 5.6875 -5.3125 5.6875 -5 3 C-2.5 1.1875 -2.5 1.1875 0 0 Z " fill="#666B70" transform="translate(759,385)"/>
<path d="M0 0 C0.66 0 1.32 0 2 0 C1.67 0.99 1.34 1.98 1 3 C0.34 3 -0.32 3 -1 3 C-1 4.32 -1 5.64 -1 7 C-2.65 7 -4.3 7 -6 7 C-5.67 5.35 -5.34 3.7 -5 2 C-3.35 2 -1.7 2 0 2 C0 1.34 0 0.68 0 0 Z " fill="#5B5F65" transform="translate(760,375)"/>
<path d="M0 0 C0.99 0 1.98 0 3 0 C1.71792641 2.86001033 0.50848764 5.07039412 -2 7 C-3.32 7 -4.64 7 -6 7 C-6 6.34 -6 5.68 -6 5 C-4.68 4.67 -3.36 4.34 -2 4 C-2 3.34 -2 2.68 -2 2 C-1.34 2 -0.68 2 0 2 C0 1.34 0 0.68 0 0 Z " fill="#686A6D" transform="translate(773,362)"/>
<path d="M0 0 C0.66 0 1.32 0 2 0 C0.34908222 4.29238623 -2.73754566 6.8793915 -6 10 C-6.66 9.67 -7.32 9.34 -8 9 C-6.71520959 7.49410612 -5.42195918 5.99542625 -4.125 4.5 C-3.04605469 3.24703125 -3.04605469 3.24703125 -1.9453125 1.96875 C-1.30335938 1.3190625 -0.66140625 0.669375 0 0 Z " fill="#C00318" transform="translate(640,133)"/>
<path d="M0 0 C1.2065625 0.0309375 1.2065625 0.0309375 2.4375 0.0625 C2.7675 1.3825 3.0975 2.7025 3.4375 4.0625 C1.4575 4.3925 -0.5225 4.7225 -2.5625 5.0625 C-3.125 3.125 -3.125 3.125 -3.5625 1.0625 C-2.5625 0.0625 -2.5625 0.0625 0 0 Z " fill="#676772" transform="translate(765.5625,407.9375)"/>
<path d="M0 0 C0.66 1.65 1.32 3.3 2 5 C1.01 5.495 1.01 5.495 0 6 C0 5.01 0 4.02 0 3 C-0.66 3 -1.32 3 -2 3 C-2 3.66 -2 4.32 -2 5 C-3.32 5 -4.64 5 -6 5 C-4.87312259 1.61936778 -3.78825335 0 0 0 Z " fill="#687070" transform="translate(762,372)"/>
<path d="M0 0 C0.99 0.33 1.98 0.66 3 1 C2.67 2.65 2.34 4.3 2 6 C0.35 5.67 -1.3 5.34 -3 5 C-3 4.34 -3 3.68 -3 3 C-2.34 3 -1.68 3 -1 3 C-0.67 2.01 -0.34 1.02 0 0 Z " fill="#67676F" transform="translate(777,363)"/>
<path d="M0 0 C0 0.33 0 0.66 0 1 C-1.60875 1.12375 -1.60875 1.12375 -3.25 1.25 C-7.34143104 2.06828621 -8.46485526 2.80759551 -11 6 C-11.66 6.99 -12.32 7.98 -13 9 C-12.52238806 3.62686567 -12.52238806 3.62686567 -10.4375 1.125 C-6.85660328 -0.52772156 -3.92364165 -0.19618208 0 0 Z " fill="#E62F33" transform="translate(198,338)"/>
<path d="M0 0 C1.98 0 3.96 0 6 0 C6 0.66 6 1.32 6 2 C6.66 2.66 7.32 3.32 8 4 C4.79937313 5.60031344 2.27728194 4.03173691 -1 3 C-0.67 2.01 -0.34 1.02 0 0 Z " fill="#5C5C6B" transform="translate(752,408)"/>
<path d="M0 0 C0.99 0.33 1.98 0.66 3 1 C2.67 2.32 2.34 3.64 2 5 C0.68 5.33 -0.64 5.66 -2 6 C-2 4.35 -2 2.7 -2 1 C-1.34 0.67 -0.68 0.34 0 0 Z " fill="#54545F" transform="translate(785,375)"/>
<path d="M0 0 C0 0.99 0 1.98 0 3 C-1.98 3.66 -3.96 4.32 -6 5 C-6.33 3.68 -6.66 2.36 -7 1 C-4.50935112 0.31292445 -2.62113708 0 0 0 Z " fill="#5B5F63" transform="translate(775,412)"/>
<path d="M0 0 C0 3 0 3 -1.2421875 4.60546875 C-1.78101562 5.12753906 -2.31984375 5.64960938 -2.875 6.1875 C-3.40867187 6.71730469 -3.94234375 7.24710937 -4.4921875 7.79296875 C-6 9 -6 9 -8 9 C-6.4169423 4.7257442 -3.49431596 2.73468206 0 0 Z " fill="#C10317" transform="translate(109,379)"/>
<path d="M0 0 C1.32 0 2.64 0 4 0 C4 0.66 4 1.32 4 2 C4.66 2.33 5.32 2.66 6 3 C5.67 4.32 5.34 5.64 5 7 C4.67 6.34 4.34 5.68 4 5 C3.01 5 2.02 5 1 5 C1.33 3.68 1.66 2.36 2 1 C1.34 0.67 0.68 0.34 0 0 Z " fill="#535363" transform="translate(771,376)"/>
<path d="M0 0 C0.66 0.33 1.32 0.66 2 1 C2.625 3.5625 2.625 3.5625 3 6 C1.68 6.33 0.36 6.66 -1 7 C-1.33 5.35 -1.66 3.7 -2 2 C-1.34 2 -0.68 2 0 2 C0 1.34 0 0.68 0 0 Z " fill="#5A5F67" transform="translate(790,373)"/>
<path d="M0 0 C0 1.32 0 2.64 0 4 C-1.65 4 -3.3 4 -5 4 C-5 3.01 -5 2.02 -5 1 C-2 0 -2 0 0 0 Z " fill="#66666C" transform="translate(789,381)"/>
<path d="M0 0 C2.16874252 0.50603992 3.99967627 0.99983813 6 2 C5.67 2.66 5.34 3.32 5 4 C3.35 3.67 1.7 3.34 0 3 C0 2.01 0 1.02 0 0 Z " fill="#5E636A" transform="translate(771,368)"/>
<path d="M0 0 C0.99 0.33 1.98 0.66 3 1 C2.67 1.99 2.34 2.98 2 4 C1.01 3.67 0.02 3.34 -1 3 C-0.67 2.01 -0.34 1.02 0 0 Z " fill="#484957" transform="translate(738,395)"/>
<path d="M0 0 C0.99 0 1.98 0 3 0 C2.67 1.32 2.34 2.64 2 4 C1.34 3.67 0.68 3.34 0 3 C0 2.01 0 1.02 0 0 Z " fill="#646672" transform="translate(782,395)"/>
</svg>
