<?xml version="1.0" standalone="no"?>
<!DOCTYPE svg PUBLIC "-//W3C//DTD SVG 20010904//EN"
 "http://www.w3.org/TR/2001/REC-SVG-20010904/DTD/svg10.dtd">
<svg version="1.0" xmlns="http://www.w3.org/2000/svg"
 width="250.000000pt" height="250.000000pt" viewBox="0 0 250.000000 250.000000"
 preserveAspectRatio="xMidYMid meet">

<g transform="translate(0.000000,250.000000) scale(0.100000,-0.100000)"
fill="#000000" stroke="none">
<path d="M1130 2491 c0 -5 -38 -12 -85 -16 -47 -4 -85 -11 -85 -16 0 -5 -19
-9 -42 -9 -28 0 -38 -3 -29 -9 8 -6 -6 -11 -43 -15 -31 -4 -56 -12 -56 -17 0
-5 -7 -9 -15 -9 -8 0 -15 -4 -15 -10 0 -5 -16 -12 -35 -16 -19 -3 -35 -10 -35
-15 0 -5 -7 -9 -15 -9 -8 0 -15 -4 -15 -10 0 -5 -16 -12 -35 -16 -21 -4 -37
-13 -40 -25 -4 -10 -14 -19 -24 -19 -10 0 -27 -11 -37 -25 -10 -14 -24 -25
-31 -25 -7 0 -36 -22 -64 -50 -28 -27 -55 -50 -60 -50 -5 0 -9 -7 -9 -16 0 -8
-5 -12 -10 -9 -5 3 -10 1 -10 -6 0 -6 -13 -25 -30 -41 -16 -15 -30 -34 -30
-41 0 -7 -11 -21 -25 -31 -14 -10 -25 -27 -25 -37 0 -10 -9 -20 -19 -24 -12
-3 -21 -19 -25 -40 -4 -19 -11 -35 -16 -35 -6 0 -10 -7 -10 -15 0 -8 -4 -15
-9 -15 -5 0 -12 -16 -15 -35 -4 -19 -11 -35 -16 -35 -6 0 -10 -7 -10 -15 0 -8
-4 -15 -9 -15 -5 0 -12 -20 -15 -45 -4 -25 -13 -45 -19 -45 -7 0 -6 -4 3 -11
11 -8 12 -12 3 -16 -7 -2 -13 -11 -13 -18 0 -7 -4 -15 -10 -17 -5 -1 -13 -56
-16 -120 -4 -65 -11 -118 -16 -118 -4 0 -8 -36 -8 -80 0 -44 4 -80 8 -80 5 0
12 -53 16 -117 3 -65 11 -119 16 -121 6 -2 10 -17 10 -33 0 -16 4 -29 9 -29 5
0 12 -20 15 -45 4 -25 11 -45 17 -45 5 0 9 -11 9 -25 0 -14 4 -25 9 -25 5 0
12 -14 16 -30 4 -17 11 -30 16 -30 5 0 9 -9 9 -19 0 -10 7 -21 15 -25 8 -3 15
-14 15 -25 0 -11 9 -22 20 -26 11 -3 20 -15 20 -25 0 -10 7 -25 15 -34 8 -8
15 -17 15 -21 0 -3 11 -16 25 -29 14 -13 25 -29 25 -36 0 -7 3 -11 6 -8 3 3
45 -34 94 -83 50 -49 94 -89 100 -89 6 0 21 -11 34 -25 13 -14 28 -25 35 -25
6 0 11 -4 11 -10 0 -5 11 -12 25 -16 14 -3 25 -10 25 -15 0 -5 9 -9 20 -9 11
0 20 -4 20 -9 0 -5 14 -12 30 -16 17 -4 30 -11 30 -16 0 -5 9 -9 20 -9 11 0
20 -4 20 -9 0 -5 23 -12 50 -16 28 -4 50 -11 50 -16 0 -5 13 -9 29 -9 16 0 31
-4 33 -10 2 -5 51 -13 111 -16 59 -4 107 -11 107 -16 0 -4 38 -8 85 -8 47 0
85 4 85 9 0 4 48 11 108 15 59 4 109 11 110 16 2 6 17 10 33 10 16 0 29 4 29
9 0 5 20 12 45 15 25 4 45 11 45 17 0 5 11 9 25 9 14 0 25 4 25 9 0 5 14 12
30 16 17 4 30 11 30 16 0 5 9 9 20 9 11 0 20 4 20 9 0 5 11 12 25 15 14 4 25
11 25 16 0 6 5 10 11 10 7 0 22 11 35 25 13 14 30 25 37 25 8 0 17 7 21 15 3
8 15 15 26 15 12 0 20 7 20 16 0 9 44 60 99 113 54 54 102 108 106 120 3 11
11 21 16 21 5 0 9 7 9 15 0 8 4 15 9 15 5 0 12 15 15 33 3 18 15 39 26 47 12
8 23 31 27 52 3 21 9 38 14 38 5 0 9 7 9 15 0 8 4 15 10 15 5 0 12 23 16 50 4
28 10 50 15 50 5 0 9 11 9 24 0 13 4 26 10 28 5 2 13 56 16 121 4 64 11 117
16 117 4 0 8 36 8 80 0 44 -4 80 -8 80 -5 0 -12 53 -16 117 -3 64 -10 119 -14
123 -4 3 -13 15 -20 28 -10 18 -10 22 0 22 10 0 10 2 1 8 -7 4 -15 27 -19 50
-4 23 -10 42 -15 42 -5 0 -9 7 -9 15 0 8 -4 15 -10 15 -5 0 -12 16 -16 35 -3
19 -10 35 -15 35 -5 0 -9 7 -9 15 0 8 -4 15 -10 15 -5 0 -12 16 -16 35 -4 21
-13 37 -25 40 -10 4 -19 14 -19 24 0 10 -11 27 -25 37 -14 10 -25 25 -25 32 0
7 -25 37 -55 67 -30 29 -55 59 -55 66 0 7 -3 10 -6 7 -3 -3 -23 12 -45 33 -22
21 -45 39 -52 39 -7 0 -21 11 -31 25 -10 14 -27 25 -37 25 -10 0 -20 9 -24 19
-3 12 -19 21 -40 25 -19 4 -35 11 -35 16 0 6 -7 10 -15 10 -8 0 -15 4 -15 9 0
5 -16 12 -35 15 -19 4 -35 11 -35 16 0 6 -7 10 -15 10 -8 0 -15 4 -15 9 0 5
-25 13 -55 16 -30 4 -55 11 -55 16 0 5 -13 9 -30 9 -16 0 -30 4 -30 9 0 5 -38
12 -85 16 -47 4 -85 11 -85 16 0 5 -52 9 -115 9 -63 0 -115 -4 -115 -9z m-70
-689 c0 -10 4 -22 9 -27 5 -6 12 -32 16 -58 l6 -48 -28 3 c-22 2 -29 9 -31 31
-4 37 -22 35 -22 -3 0 -16 4 -30 9 -30 5 0 12 -31 16 -70 4 -38 11 -70 16 -70
5 0 9 -6 9 -14 0 -8 6 -17 13 -19 20 -9 -13 -27 -50 -27 -17 0 -34 -6 -36 -12
-3 -8 -6 -6 -6 5 -1 9 -5 17 -11 17 -5 0 -10 23 -10 50 0 28 -4 50 -10 50 -5
0 -12 27 -16 60 -7 67 -21 79 -26 23 -2 -31 -7 -39 -25 -41 -16 -2 -23 2 -23
12 0 9 -4 16 -9 16 -10 0 -21 87 -14 106 2 7 34 15 74 19 38 4 69 11 69 16 0
5 14 9 30 9 17 0 30 5 30 10 0 6 5 10 10 10 6 0 10 -8 10 -18z m300 8 c0 -5 9
-10 19 -10 14 0 21 -9 26 -31 8 -36 -2 -99 -15 -99 -6 0 -10 -9 -10 -20 0 -11
5 -20 10 -20 6 0 10 -32 10 -75 l0 -75 -45 0 c-50 0 -51 1 -46 93 2 37 0 47
-13 47 -13 0 -16 -11 -16 -56 0 -73 -16 -90 -66 -72 l-36 13 6 50 c3 27 6 98
6 158 l0 107 85 0 c50 0 85 -4 85 -10z m250 -50 c0 11 3 11 12 2 7 -7 20 -12
31 -12 30 0 77 -54 77 -89 0 -17 -4 -31 -9 -31 -5 0 -12 -22 -16 -50 -4 -27
-11 -50 -16 -50 -5 0 -9 -11 -9 -25 0 -14 -4 -25 -9 -25 -5 0 -12 -11 -15 -24
-3 -14 -15 -28 -27 -31 -26 -9 -119 4 -119 16 0 5 -7 9 -15 9 -8 0 -15 7 -15
15 0 8 -4 15 -10 15 -5 0 -10 16 -10 35 0 19 5 35 10 35 6 0 10 11 10 25 0 14
4 25 9 25 5 0 11 18 15 40 3 22 11 40 16 40 6 0 10 9 10 20 0 11 5 20 10 20 6
0 10 6 10 13 0 17 43 36 52 22 5 -6 8 -4 8 5z m-876 -85 c4 -14 11 -25 16 -25
15 0 12 -40 -4 -56 -17 -16 -56 -19 -56 -4 0 6 -7 10 -15 10 -8 0 -15 -7 -15
-15 0 -8 5 -15 10 -15 6 0 10 -10 10 -22 0 -19 2 -20 10 -8 7 11 10 12 10 2 0
-10 5 -8 18 4 16 16 17 16 20 1 2 -9 8 -17 13 -17 5 0 9 -7 9 -15 0 -8 -4 -15
-9 -15 -13 0 -23 -34 -15 -54 3 -9 15 -16 25 -16 15 0 19 7 19 35 0 24 5 35
15 35 8 0 15 5 15 10 0 6 7 10 15 10 8 0 15 -9 15 -19 0 -11 9 -22 19 -26 19
-6 36 -55 18 -55 -5 0 -17 -8 -26 -19 -9 -10 -26 -21 -38 -25 -13 -4 -23 -12
-23 -17 0 -5 -7 -9 -15 -9 -8 0 -15 -4 -15 -9 0 -11 -38 -21 -55 -15 -7 3 -16
21 -19 40 -4 19 -11 34 -16 34 -6 0 -10 7 -10 15 0 8 -4 15 -9 15 -5 0 -12 11
-15 25 -4 14 -11 25 -16 25 -6 0 -10 6 -10 13 0 7 -16 30 -35 50 -19 20 -35
40 -35 43 0 10 26 31 48 38 12 4 22 12 22 17 0 5 7 9 15 9 8 0 15 4 15 10 0 5
11 12 25 16 14 3 25 10 25 15 0 21 38 8 44 -16z m1146 -35 c0 -5 11 -12 25
-16 27 -7 34 -36 13 -59 -27 -30 -38 -44 -38 -50 0 -6 -11 -20 -37 -50 -7 -7
-13 -18 -13 -24 0 -6 -4 -11 -10 -11 -5 0 -12 -17 -16 -37 -4 -21 -13 -43 -20
-50 -15 -15 -54 -17 -54 -3 0 6 -5 10 -11 10 -6 0 -17 7 -25 15 -9 8 -11 15
-5 15 6 0 11 8 11 19 0 10 11 26 24 37 14 10 27 28 31 41 3 13 10 23 16 23 6
0 7 5 4 10 -3 6 1 13 9 16 9 3 16 15 16 25 0 11 7 22 15 25 8 4 15 15 15 25 0
11 6 26 13 34 14 16 37 20 37 5z m239 -187 l78 -77 -42 -41 c-23 -23 -44 -47
-46 -54 -3 -9 -11 -7 -27 7 -27 24 -27 30 0 53 11 11 19 22 16 25 -7 6 -138
-122 -138 -135 0 -4 -9 -19 -21 -32 -17 -19 -22 -21 -29 -9 -6 8 -10 18 -10
22 0 4 -9 9 -19 13 -29 9 -34 35 -12 57 11 10 23 18 26 18 14 0 56 42 124 125
23 28 3 29 -23 0 l-25 -26 -20 20 -21 21 42 45 c24 24 49 44 56 45 7 0 48 -35
91 -77z m-1605 -7 c20 -18 38 -31 41 -28 3 3 5 -2 5 -11 0 -9 9 -22 20 -30 11
-8 17 -17 13 -20 -3 -4 1 -7 10 -7 35 0 51 -85 22 -114 -8 -8 -15 -19 -15 -25
0 -6 -5 -11 -11 -11 -6 0 -17 -6 -24 -12 -8 -7 -21 -18 -29 -25 -8 -7 -16 -18
-19 -25 -3 -9 -11 -6 -26 11 -11 13 -21 28 -21 33 0 12 -139 148 -151 148 -11
0 -39 25 -39 35 0 9 94 101 111 108 39 15 78 6 113 -27z m784 -438 c2 -4 9
-14 16 -21 15 -15 15 -58 -1 -74 -6 -7 -23 -13 -37 -13 -21 0 -26 5 -26 24 0
26 -20 39 -45 30 -12 -5 -15 -25 -15 -91 0 -62 4 -88 15 -99 13 -14 17 -14 30
0 8 8 15 24 15 35 0 18 6 21 40 21 l41 0 -5 -42 c-5 -61 -15 -78 -42 -78 -13
0 -24 -4 -24 -10 0 -5 -18 -10 -40 -10 -22 0 -40 5 -40 10 0 6 -8 10 -19 10
-29 0 -51 72 -51 168 0 48 4 82 10 82 6 0 10 10 10 23 0 31 11 44 40 50 34 6
124 -4 128 -15z m229 12 c16 0 25 -8 29 -25 3 -14 10 -25 15 -25 5 0 9 -49 9
-110 0 -60 -4 -110 -9 -110 -5 0 -11 -10 -15 -22 -3 -13 -18 -29 -33 -35 -32
-15 -93 -17 -93 -3 0 6 -5 10 -11 10 -14 0 -39 25 -39 39 0 6 -4 11 -10 11 -6
0 -10 40 -10 100 0 60 4 100 10 100 6 0 10 9 10 21 0 38 49 63 105 53 11 -2
30 -4 42 -4z m550 -26 c13 -13 23 -35 23 -49 0 -23 -3 -25 -45 -25 -33 0 -45
4 -45 15 0 9 -9 15 -25 15 -14 0 -25 -5 -25 -11 0 -17 27 -39 49 -39 12 0 21
-4 21 -10 0 -5 6 -10 13 -10 8 0 24 -8 35 -19 18 -15 22 -29 22 -74 0 -47 -3
-57 -20 -62 -11 -3 -20 -11 -20 -16 0 -5 -7 -9 -15 -9 -8 0 -15 -4 -15 -10 0
-5 -18 -10 -40 -10 -22 0 -40 5 -40 10 0 6 -11 10 -25 10 -23 0 -25 3 -25 50
0 49 1 50 30 50 17 0 30 -5 30 -11 0 -14 25 -39 39 -39 12 0 15 39 3 56 -4 6
-19 14 -35 18 -35 8 -67 36 -67 57 0 10 -5 19 -12 21 -9 3 -9 11 -1 34 6 16
14 41 17 56 4 19 13 28 34 31 52 8 115 -5 139 -29z m-1487 -24 c0 -38 -4 -50
-15 -50 -8 0 -15 -4 -15 -10 0 -5 -7 -10 -15 -10 -9 0 -15 9 -15 25 0 18 -5
25 -20 25 -16 0 -20 -7 -20 -35 0 -31 3 -35 25 -35 20 0 25 -5 25 -25 0 -20
-5 -25 -25 -25 -24 0 -25 -2 -25 -65 l0 -65 -50 0 c-47 0 -50 2 -50 25 0 14 5
25 10 25 6 0 10 43 10 110 0 67 -4 110 -10 110 -5 0 -10 11 -10 25 l0 25 100
0 100 0 0 -50z m200 25 c0 -14 5 -25 10 -25 6 0 10 -26 10 -59 0 -33 4 -61 9
-63 5 -1 12 -36 16 -75 l7 -73 -51 0 -51 0 0 40 c0 33 -3 40 -19 40 -23 0 -40
-22 -23 -28 7 -2 12 -15 12 -28 0 -22 -4 -24 -50 -24 -47 0 -50 2 -50 25 0 14
4 25 9 25 5 0 12 34 16 75 4 41 11 75 16 75 5 0 9 27 9 60 l0 60 65 0 c63 0
65 -1 65 -25z m190 -111 c0 -120 2 -134 15 -120 8 8 15 31 15 50 0 34 2 36 35
36 l35 0 0 -75 0 -75 -97 0 -98 0 0 160 0 160 48 0 47 0 0 -136z m730 116 c0
-11 5 -20 10 -20 6 0 10 -11 10 -25 0 -14 5 -25 10 -25 6 0 10 -7 10 -16 0
-14 2 -14 15 0 17 17 20 36 5 36 -5 0 -10 16 -10 35 0 35 0 35 45 35 45 0 45
0 45 -35 0 -19 -4 -35 -10 -35 -6 0 -10 -48 -10 -125 l0 -125 -40 0 c-29 0
-40 4 -40 15 0 8 -4 15 -10 15 -5 0 -10 11 -10 25 0 14 -4 25 -9 25 -5 0 -12
10 -14 23 -2 12 -5 -6 -6 -40 l-1 -63 -45 0 c-41 0 -45 2 -45 25 0 14 5 25 10
25 6 0 10 43 10 110 0 67 -4 110 -10 110 -5 0 -10 11 -10 25 0 23 3 25 50 25
43 0 50 -3 50 -20z"/>
<path d="M1280 1715 c0 -19 5 -35 11 -35 11 0 39 25 39 35 0 10 -28 35 -39 35
-6 0 -11 -16 -11 -35z"/>
<path d="M1604 1660 c-4 -16 -10 -30 -15 -30 -5 0 -9 -11 -9 -24 0 -13 -4 -26
-9 -28 -13 -5 -22 -71 -12 -87 14 -23 37 7 46 60 4 24 10 46 14 49 11 9 31 50
31 64 0 12 -20 26 -36 26 -3 0 -7 -13 -10 -30z"/>
<path d="M410 1390 c0 -13 19 -36 62 -77 7 -7 18 -18 25 -25 22 -23 42 -38 53
-38 21 0 8 29 -28 63 -7 7 -18 18 -25 25 -55 59 -87 78 -87 52z"/>
<path d="M1456 954 c-9 -24 -7 -177 3 -193 8 -12 12 -12 25 2 22 21 23 172 2
193 -18 18 -22 18 -30 -2z"/>
<path d="M710 865 c0 -24 5 -35 15 -35 15 0 20 26 9 54 -11 28 -24 17 -24 -19z"/>
</g>
</svg>
