<?xml version="1.0" standalone="no"?>
<!DOCTYPE svg PUBLIC "-//W3C//DTD SVG 20010904//EN"
 "http://www.w3.org/TR/2001/REC-SVG-20010904/DTD/svg10.dtd">
<svg version="1.0" xmlns="http://www.w3.org/2000/svg"
 width="296.000000pt" height="207.000000pt" viewBox="0 0 296.000000 207.000000"
 preserveAspectRatio="xMidYMid meet">

<g transform="translate(0.000000,207.000000) scale(0.100000,-0.100000)"
fill="#000000" stroke="none">
<path d="M2425 1993 c-25 -6 -82 -48 -118 -88 -51 -54 -68 -106 -68 -203 0
-49 3 -97 7 -108 27 -82 65 -118 121 -117 32 1 113 40 113 54 0 5 12 21 26 36
38 41 71 111 78 168 11 78 -15 180 -58 238 -15 19 -67 29 -101 20z m81 -30
c35 -36 57 -105 58 -183 1 -64 -3 -84 -29 -135 -34 -69 -75 -98 -136 -98 -79
0 -117 82 -106 229 6 83 24 123 70 158 62 47 114 58 143 29z"/>
<path d="M2394 1816 c-25 -21 -29 -31 -29 -80 0 -65 27 -103 64 -91 44 14 66
109 38 165 -17 34 -39 36 -73 6z m24 -105 c-2 -20 -7 -35 -13 -34 -14 2 -29
58 -21 79 11 30 37 -4 34 -45z"/>
<path d="M2021 1973 c-78 -4 -86 -6 -111 -33 l-27 -29 -39 19 c-21 10 -53 21
-71 25 -26 5 -32 3 -38 -13 -3 -11 -12 -23 -20 -26 -8 -3 -15 -15 -15 -26 0
-20 -35 -30 -42 -11 -4 11 -85 61 -98 61 -5 0 -10 -6 -10 -14 0 -8 -7 -16 -15
-20 -9 -3 -15 -19 -16 -38 0 -18 -4 -51 -8 -73 l-8 -40 -17 37 c-25 57 -97
128 -130 128 -63 0 -142 -58 -182 -134 -18 -32 -20 -44 -29 -141 -3 -38 -8
-72 -11 -74 -10 -11 -24 25 -19 49 18 84 18 134 0 166 -17 32 -59 59 -100 65
-36 5 -119 -12 -151 -32 -28 -17 -32 -26 -38 -80 -4 -33 -4 -92 -1 -132 l6
-72 -17 44 c-19 52 -58 118 -86 145 -30 28 -86 38 -120 20 -35 -18 -102 -107
-118 -158 -21 -64 -8 -184 25 -237 41 -67 75 -98 112 -105 49 -9 90 12 133 70
47 63 70 116 71 170 2 32 3 34 6 11 6 -49 35 -165 42 -169 3 -2 30 3 59 12 47
13 52 17 52 43 0 38 20 37 60 -3 20 -19 30 -38 27 -49 -4 -15 -2 -17 13 -9 24
13 33 13 25 -1 -4 -6 12 -1 35 11 36 18 42 19 37 6 -5 -14 -3 -15 13 -6 10 5
31 15 45 20 23 9 26 8 21 -5 -4 -11 2 -15 25 -15 17 0 28 -3 26 -7 -3 -5 8 -8
24 -9 18 -1 29 4 29 12 0 8 -7 14 -15 14 -9 0 -27 7 -40 16 -20 13 -39 15
-100 9 -83 -7 -95 2 -49 37 16 14 24 27 21 39 -6 23 -6 23 29 4 47 -24 114
-19 165 13 48 31 93 89 106 137 7 25 9 19 13 -40 l5 -70 48 -9 c43 -9 50 -7
73 15 14 13 30 34 35 47 12 31 23 28 60 -18 34 -42 49 -50 49 -25 0 7 6 18 14
22 8 5 25 61 40 137 15 71 29 133 32 138 6 9 65 11 88 2 13 -5 16 -23 16 -89
0 -45 -5 -106 -10 -135 -6 -29 -9 -54 -8 -55 2 -1 31 -5 66 -8 60 -5 64 -4 72
19 5 13 14 24 19 24 12 0 18 34 27 148 5 74 10 95 23 99 47 17 90 93 91 161 0
24 8 24 -219 15z m193 -50 c-3 -16 -7 -33 -9 -39 -2 -6 -22 -14 -44 -18 -23
-3 -41 -11 -41 -17 0 -17 -20 -203 -26 -236 -5 -31 -8 -33 -45 -33 l-39 0 2
138 3 137 -40 5 c-35 4 -40 8 -43 35 -6 48 15 55 160 55 l128 0 -6 -27z m-396
1 c17 -5 22 -13 22 -41 0 -34 -49 -294 -57 -302 -2 -3 -29 21 -59 52 -31 31
-59 57 -63 57 -4 0 -8 -17 -9 -37 -1 -21 -4 -55 -8 -76 -6 -37 -7 -38 -42 -35
l-37 3 1 105 c2 242 3 250 20 250 17 0 91 -55 112 -82 25 -33 39 -21 47 40 4
31 9 60 12 65 5 8 30 9 61 1z m-411 -55 c75 -73 97 -201 50 -290 -42 -79 -145
-111 -199 -62 -53 48 -72 167 -44 264 18 59 32 78 81 103 45 24 77 20 112 -15z
m-364 -45 c36 -8 67 -53 67 -96 0 -19 -11 -55 -24 -79 l-24 -44 51 -52 c54
-56 56 -70 11 -99 l-26 -18 -65 67 c-36 37 -68 65 -71 63 -3 -3 0 -32 7 -63
10 -51 9 -59 -6 -70 -9 -7 -28 -13 -42 -13 -26 0 -26 2 -49 143 -29 184 -29
220 1 240 26 17 104 36 127 31 8 -2 27 -6 43 -10z m-323 -124 c69 -67 103
-234 64 -315 -55 -116 -182 -85 -229 54 -19 57 -21 180 -5 212 43 84 114 104
170 49z"/>
<path d="M1301 1773 c-12 -14 -24 -37 -28 -51 -9 -37 19 -104 51 -122 25 -14
28 -14 45 7 37 45 11 193 -34 193 -7 0 -23 -12 -34 -27z m22 -90 c3 -16 3 -32
-1 -37 -6 -11 -20 20 -21 47 -1 28 16 20 22 -10z"/>
<path d="M957 1748 c-23 -18 -12 -95 15 -104 28 -9 58 23 58 61 0 50 -35 71
-73 43z"/>
<path d="M633 1604 c-13 -20 -17 -45 -16 -85 2 -69 16 -99 46 -99 47 0 68 87
39 160 -21 54 -44 61 -69 24z m27 -121 c0 -7 -4 -13 -10 -13 -5 0 -10 12 -10
28 0 21 2 24 10 12 5 -8 10 -21 10 -27z"/>
<path d="M455 1896 c-27 -13 -70 -31 -95 -41 -78 -31 -113 -46 -187 -82 -64
-31 -73 -39 -73 -63 0 -15 -6 -33 -14 -39 -11 -9 -12 -20 -6 -39 5 -15 11 -44
15 -66 6 -35 8 -38 33 -31 15 3 41 9 58 12 l31 5 26 -109 c14 -59 33 -144 42
-188 34 -172 34 -171 108 -134 58 29 78 49 72 70 -3 9 2 24 11 33 19 19 13
112 -16 266 -35 185 -36 169 4 185 30 13 36 20 36 45 0 16 7 33 16 38 14 8 15
21 9 85 -4 43 -10 77 -14 76 -3 0 -28 -11 -56 -23z m49 -63 l6 -51 -55 -26
-56 -25 6 -48 c4 -27 13 -82 20 -123 13 -69 29 -171 42 -276 5 -40 5 -40 -47
-67 -29 -15 -55 -26 -57 -23 -2 2 -15 57 -28 122 -38 180 -76 334 -86 339 -4
3 -25 -1 -45 -10 -20 -8 -42 -15 -49 -15 -14 0 -36 75 -28 95 2 8 32 25 66 39
169 70 302 124 303 122 1 0 4 -24 8 -53z"/>
<path d="M1809 1488 c-19 -11 -40 -29 -47 -40 -8 -10 -19 -17 -25 -15 -14 5
-76 -26 -134 -68 -41 -30 -58 -61 -54 -101 2 -21 -16 -34 -76 -53 -54 -17
-119 -67 -152 -119 -31 -48 -71 -180 -71 -233 0 -69 -87 -23 -93 49 -1 17 -6
22 -19 19 -27 -7 -34 35 -12 72 18 30 12 59 -6 31 -6 -8 -10 -10 -10 -4 0 6 3
14 7 18 11 11 13 77 3 71 -6 -3 -7 1 -4 9 3 9 9 16 13 16 13 0 62 82 59 98 -6
27 -56 -26 -89 -93 -28 -58 -31 -71 -25 -122 4 -31 10 -61 15 -67 4 -6 11 -23
15 -38 3 -16 11 -28 16 -28 5 0 16 -13 25 -30 12 -23 13 -30 3 -30 -17 0 -68
47 -68 62 0 6 -7 18 -15 27 -32 33 -64 91 -54 97 7 4 5 12 -4 22 -22 25 -10
146 21 207 14 30 14 30 -5 13 -11 -10 -24 -18 -29 -18 -19 0 -64 -99 -64 -139
0 -46 34 -141 61 -170 11 -11 19 -25 19 -31 0 -20 72 -80 96 -80 13 0 24 -4
24 -9 0 -5 23 -17 51 -26 27 -9 61 -28 74 -41 13 -13 34 -24 47 -24 12 0 40
-6 63 -14 61 -21 154 -36 222 -36 64 0 113 -13 113 -29 0 -6 -24 -22 -52 -36
-29 -15 -60 -32 -68 -40 -8 -7 -30 -20 -48 -29 -29 -15 -33 -15 -38 -1 -4 8
-3 35 0 60 l7 45 -45 0 c-24 0 -52 3 -61 6 -11 5 -18 0 -22 -15 -4 -15 -13
-21 -33 -21 -27 0 -27 0 -38 -106 -11 -102 -23 -146 -35 -128 -3 5 4 65 15
133 11 67 17 133 14 146 -10 39 -117 51 -136 15 -6 -11 -20 -20 -30 -20 -17 0
-20 7 -20 53 l0 52 -51 23 c-52 25 -79 24 -79 -3 0 -10 -10 -15 -28 -15 -27 0
-30 -4 -42 -55 -20 -85 -32 -77 -29 21 l2 89 -59 22 c-71 28 -80 28 -87 3 -3
-13 -14 -20 -31 -20 -30 0 -30 -1 -75 -235 -31 -161 -51 -311 -44 -330 5 -15
78 -45 108 -45 13 0 28 6 32 12 4 7 21 20 38 28 25 13 31 23 37 69 8 53 25 97
35 87 3 -3 -3 -50 -12 -106 -21 -115 -19 -120 51 -145 37 -13 40 -13 59 10 12
14 30 25 41 25 21 0 30 25 76 210 l13 55 6 -110 c6 -125 24 -176 73 -206 52
-32 113 -25 182 19 76 50 109 89 125 152 7 27 18 50 24 50 7 0 20 -18 30 -39
17 -38 17 -40 -1 -65 -11 -14 -29 -26 -41 -26 -17 0 -25 -10 -37 -55 -9 -30
-19 -60 -22 -68 -6 -16 55 -37 106 -37 45 0 160 63 190 105 14 19 28 35 33 35
4 0 7 -26 7 -59 l0 -59 63 -4 c70 -6 87 -2 87 18 0 17 72 19 98 3 15 -10 27
-7 65 15 25 15 51 33 57 41 18 21 40 18 40 -5 0 -18 7 -20 54 -20 44 0 58 4
69 20 16 22 52 36 135 50 29 5 66 18 81 30 31 21 66 26 76 10 16 -26 131 3
203 53 86 58 99 122 56 265 -14 48 -28 97 -31 110 -8 32 14 68 48 82 26 11 28
17 34 86 4 41 5 77 3 80 -16 15 -219 -91 -241 -127 -13 -22 -33 -25 -40 -6 -3
9 -12 9 -42 -2 -43 -15 -117 -49 -195 -90 -30 -16 -66 -34 -80 -40 -14 -7 -41
-21 -60 -31 -47 -26 -67 -25 -106 5 -32 24 -32 24 -45 4 -13 -19 -19 -19 -99
-10 -78 9 -86 8 -100 -9 -8 -10 -26 -20 -40 -22 -19 -2 -26 -11 -31 -38 -11
-54 -39 -211 -45 -250 -3 -19 -8 -38 -13 -43 -7 -7 -71 139 -71 164 0 18 38
54 67 63 23 7 43 56 43 104 0 49 16 62 78 62 66 0 78 6 86 40 7 30 -8 51 -49
71 l-30 14 0 112 c0 109 1 112 28 141 16 17 29 34 28 39 -1 7 4 8 28 5 5 -1
11 -14 13 -29 2 -22 8 -28 27 -28 13 0 27 7 31 15 4 8 12 25 18 37 7 13 12 34
12 49 0 14 7 32 15 40 23 23 18 34 -15 34 -20 0 -30 -5 -30 -15 0 -8 -7 -15
-15 -15 -8 0 -15 9 -15 20 0 11 -3 20 -7 20 -5 0 -17 3 -29 6 -23 6 -54 -18
-54 -42 0 -8 14 -20 30 -25 19 -7 30 -18 30 -30 0 -17 -5 -18 -40 -13 -32 5
-40 3 -40 -9 0 -8 -11 -22 -25 -31 -20 -13 -23 -20 -16 -39 8 -20 3 -30 -23
-60 -37 -42 -56 -47 -56 -14 -1 17 -2 19 -9 7 -5 -8 -12 -59 -16 -113 -7 -100
1 -132 30 -121 22 9 28 -16 9 -37 -20 -22 -35 -23 -83 -6 l-34 12 2 135 c2
124 1 137 -18 159 -24 28 -28 16 -6 -16 17 -24 13 -29 -27 -31 -26 -2 -28 1
-28 41 0 53 -27 87 -71 87 -37 0 -108 -31 -133 -59 -31 -34 -13 -33 32 0 52
38 111 49 135 24 40 -39 3 -173 -62 -228 -18 -15 -37 -27 -42 -27 -5 0 -9 -4
-9 -10 0 -10 28 -7 119 12 48 11 55 10 67 -7 20 -27 17 -45 -7 -45 -12 0 -18
-4 -13 -11 9 -16 -166 -6 -219 12 -33 11 -37 16 -32 36 7 28 -5 30 -27 4 -11
-13 -24 -18 -38 -14 -18 5 -21 11 -16 37 3 17 7 58 10 92 8 97 66 222 117 256
13 8 50 27 83 41 55 26 58 26 53 7 -4 -16 0 -20 18 -20 12 0 33 8 45 18 19 15
21 22 12 38 -21 39 18 144 53 144 25 0 102 44 132 76 37 40 58 45 47 12 -12
-40 -10 -53 9 -50 11 2 34 -4 53 -13 19 -9 39 -13 44 -10 5 3 26 -7 45 -22 27
-21 34 -33 30 -50 -4 -17 3 -28 30 -46 19 -13 32 -26 29 -30 -3 -3 -3 -11 1
-17 5 -8 11 -8 21 1 24 20 15 38 -26 50 -37 11 -40 15 -40 46 0 33 -29 72 -55
73 -28 1 -39 20 -36 64 2 51 -10 59 -35 21 -21 -32 -44 -32 -44 -1 0 35 -11
38 -51 14z m191 -417 c9 -33 2 -45 -19 -32 -9 6 -11 19 -6 40 8 37 12 36 25
-8z m856 -203 c-3 -13 -6 -35 -6 -50 0 -18 -7 -29 -20 -33 -31 -10 -60 -46
-60 -75 0 -14 12 -66 26 -115 36 -124 40 -195 12 -230 -27 -34 -75 -55 -128
-55 l-40 0 0 41 c0 36 4 42 29 52 16 6 36 22 44 37 15 25 14 33 -14 126 -33
107 -34 167 -5 221 33 61 90 102 140 103 25 0 28 -3 22 -22z m-1006 -43 c0
-36 35 -85 60 -85 6 0 10 -10 8 -22 -2 -18 -11 -24 -35 -26 -58 -6 -73 10 -73
81 0 58 11 87 32 87 4 0 8 -16 8 -35z m-1015 -15 l26 -10 -7 -90 -7 -89 27
-11 c38 -14 71 -13 86 4 6 8 18 45 26 82 7 37 16 69 18 72 8 7 49 -6 70 -22
17 -14 17 -21 6 -103 -11 -85 -42 -231 -60 -283 -4 -14 -14 -51 -21 -84 -7
-32 -19 -60 -27 -63 -20 -8 -85 25 -79 40 11 31 40 197 35 202 -3 3 -29 15
-57 26 l-52 19 -13 -32 c-8 -18 -17 -68 -21 -110 -4 -43 -10 -80 -14 -82 -13
-9 -93 17 -98 31 -10 26 57 441 82 512 5 13 27 11 80 -9z m1737 -76 c-2 -16
-6 -30 -10 -32 -4 -1 -22 -11 -40 -22 -30 -19 -33 -24 -30 -63 3 -41 4 -42 36
-39 30 3 32 1 32 -28 0 -25 -5 -33 -30 -41 -22 -8 -31 -19 -36 -44 -10 -54 -2
-80 26 -84 32 -4 37 -13 32 -56 -4 -30 -9 -36 -41 -45 -20 -5 -51 -10 -69 -10
l-34 0 6 138 c3 75 9 175 12 220 l7 84 61 29 c33 15 66 27 71 25 6 -2 9 -16 7
-32z m18 -89 c0 -18 -7 -28 -26 -35 -30 -12 -44 -6 -44 19 0 24 20 41 47 41
18 0 23 -6 23 -25z m-1316 7 c2 -4 1 -28 -4 -52 -16 -85 -20 -115 -26 -186 -6
-64 -5 -73 15 -93 27 -27 37 -27 65 4 28 30 54 123 63 221 l6 75 41 -3 41 -3
-3 -45 c-10 -179 -65 -346 -124 -376 -32 -17 -101 -18 -130 -3 -26 14 -58 88
-65 150 -5 43 8 198 24 287 5 30 8 32 49 32 23 0 45 -3 48 -8z m1057 -157 c-4
-285 -6 -295 -63 -295 -27 0 -28 2 -28 53 0 28 7 120 15 202 8 83 15 158 15
167 0 16 22 27 49 24 11 -1 14 -29 12 -151z m-195 101 c27 -23 28 -24 11 -47
-9 -13 -28 -40 -42 -61 -13 -20 -29 -39 -36 -43 -6 -4 -17 -21 -24 -38 -12
-29 -10 -34 36 -102 27 -39 49 -78 49 -87 0 -8 -14 -24 -30 -37 l-31 -22 -19
23 c-10 13 -36 51 -57 85 -21 34 -41 62 -44 63 -4 0 -11 -42 -15 -92 l-9 -93
-37 1 c-69 2 -72 6 -64 87 4 39 19 140 34 222 l28 150 48 3 48 3 -4 -67 c-2
-39 1 -68 7 -71 6 -1 20 16 33 39 62 118 71 125 118 84z m-386 -18 c0 -41 -7
-51 -47 -72 -18 -9 -40 -28 -49 -42 -16 -24 -16 -28 16 -100 50 -115 40 -178
-36 -220 -22 -12 -45 -15 -83 -12 -28 3 -54 8 -58 12 -4 4 0 26 8 49 14 37 20
42 50 45 70 7 78 39 33 133 -37 76 -41 101 -21 138 15 29 132 101 164 101 19
0 23 -5 23 -32z m870 -82 c14 -51 5 -106 -17 -106 -8 0 -17 8 -20 18 -3 14
-12 17 -34 14 -29 -4 -30 -3 -27 24 2 20 12 33 31 42 16 8 27 21 27 33 0 36
27 19 40 -25z m-448 2 c2 -29 1 -36 -7 -140 -5 -61 -11 -88 -19 -88 -7 0 -30
26 -51 57 -42 64 -44 54 24 147 39 51 50 57 53 24z"/>
<path d="M1928 1318 c9 -9 9 -15 0 -26 -9 -10 -8 -16 3 -23 33 -20 55 25 23
48 -22 16 -42 17 -26 1z"/>
<path d="M2312 1288 c-39 -30 -57 -57 -29 -44 6 3 20 9 29 12 10 3 20 15 23
25 11 34 61 27 98 -12 30 -33 35 -59 12 -59 -8 0 -15 -4 -15 -10 0 -15 40 -12
46 4 11 28 -24 86 -60 101 -49 21 -57 19 -104 -17z"/>
<path d="M1242 1284 c-24 -14 -41 -28 -39 -31 5 -4 47 16 57 28 3 3 14 11 25
17 11 6 16 11 10 12 -5 0 -29 -12 -53 -26z"/>
<path d="M1669 1263 c-13 -16 -12 -17 4 -4 9 7 17 15 17 17 0 8 -8 3 -21 -13z"/>
<path d="M2170 1201 c0 -10 35 -21 70 -21 l25 1 -25 14 c-28 16 -70 20 -70 6z"/>
<path d="M2326 1154 c9 -37 22 -54 43 -54 14 1 14 2 -1 11 -10 5 -18 18 -18
28 0 10 -7 24 -16 32 -13 11 -14 9 -8 -17z"/>
<path d="M1475 1159 c-4 -5 -18 -15 -32 -20 -14 -5 -23 -12 -20 -15 7 -8 87
27 87 38 0 12 -28 10 -35 -3z"/>
<path d="M2240 1150 c0 -5 4 -10 9 -10 6 0 13 5 16 10 3 6 -1 10 -9 10 -9 0
-16 -4 -16 -10z"/>
<path d="M1582 1138 c-9 -9 -4 -16 20 -30 38 -24 58 -10 32 21 -21 24 -35 26
-52 9z"/>
<path d="M2464 1132 c9 -26 -12 -77 -41 -104 -10 -9 -24 -24 -31 -32 -24 -29
12 -18 39 12 59 63 73 108 43 133 -15 12 -16 11 -10 -9z"/>
<path d="M1700 1130 c0 -6 7 -10 15 -10 8 0 15 2 15 4 0 2 -7 6 -15 10 -8 3
-15 1 -15 -4z"/>
<path d="M2190 1132 c0 -5 17 -14 38 -20 l37 -11 -24 19 c-24 21 -51 26 -51
12z"/>
<path d="M1677 1084 c-14 -14 -6 -24 19 -24 16 0 24 5 22 13 -5 14 -31 21 -41
11z"/>
<path d="M2205 1040 c-17 -18 -17 -21 -1 -45 9 -14 24 -25 33 -25 14 0 13 3
-5 20 -25 23 -28 40 -10 58 7 7 10 12 7 12 -3 0 -14 -9 -24 -20z"/>
<path d="M2292 1048 c-14 -14 -16 -38 -3 -38 5 0 11 11 13 25 6 29 6 29 -10
13z"/>
<path d="M1761 994 c0 -11 3 -14 6 -6 3 7 2 16 -1 19 -3 4 -6 -2 -5 -13z"/>
<path d="M2355 950 c-3 -5 1 -10 9 -10 9 0 16 5 16 10 0 6 -4 10 -9 10 -6 0
-13 -4 -16 -10z"/>
</g>
</svg>
