<?xml version="1.0" standalone="no"?>
<!DOCTYPE svg PUBLIC "-//W3C//DTD SVG 20010904//EN"
 "http://www.w3.org/TR/2001/REC-SVG-20010904/DTD/svg10.dtd">
<svg version="1.0" xmlns="http://www.w3.org/2000/svg"
 width="1200.000000pt" height="1106.000000pt" viewBox="0 0 1200.000000 1106.000000"
 preserveAspectRatio="xMidYMid meet">

<g transform="translate(0.000000,1106.000000) scale(0.100000,-0.100000)"
fill="#000000" stroke="none">
<path d="M5469 11058 c0 -2 -16 -822 -34 -1823 -24 -1345 -30 -1822 -21 -1827
6 -4 90 -8 187 -8 l176 0 6 248 c22 827 19 1444 -9 1977 -4 66 -4 117 0 114 3
-3 22 -116 42 -250 46 -323 77 -508 180 -1061 47 -255 107 -590 134 -746 26
-156 50 -285 52 -287 1 -2 82 -6 179 -10 l176 -8 6 269 c13 552 60 3384 56
3388 -2 2 -86 6 -185 8 l-182 5 -6 -36 c-3 -20 -8 -382 -12 -806 -6 -710 3
-1288 22 -1447 3 -27 2 -48 -3 -48 -5 0 -21 90 -36 200 -38 271 -100 638 -201
1180 -46 250 -103 568 -127 706 l-42 251 -75 7 c-72 6 -281 9 -283 4z"/>
<path d="M4412 10960 c-96 -16 -176 -30 -178 -33 -2 -2 111 -726 251 -1609
140 -883 255 -1610 255 -1614 0 -12 -361 -68 -370 -57 -4 4 -121 728 -260
1608 -139 880 -256 1604 -260 1608 -4 4 -87 -5 -186 -21 l-179 -28 3 -29 c6
-57 482 -3040 493 -3090 44 -198 218 -372 420 -420 355 -83 695 187 692 550 0
66 -63 485 -242 1600 -261 1635 -250 1565 -259 1564 -4 0 -85 -14 -180 -29z"/>
<path d="M7385 10968 c-7 -31 -564 -3583 -562 -3585 6 -5 785 -123 815 -123
94 0 202 49 266 121 81 89 68 25 323 1617 177 1110 233 1480 229 1522 -14 154
-114 286 -254 334 -24 9 -204 40 -400 71 -196 30 -369 58 -384 61 -23 4 -28 1
-33 -18z m544 -449 c83 -13 151 -28 151 -33 0 -11 -451 -2850 -454 -2853 -2
-2 -368 56 -371 59 -2 2 448 2836 454 2857 1 2 16 1 35 -2 18 -3 102 -16 185
-28z"/>
<path d="M2475 10563 c-93 -30 -172 -57 -174 -59 -2 -2 110 -352 249 -779 139
-427 251 -777 249 -779 -12 -12 -354 -115 -359 -109 -4 5 -120 355 -260 779
l-253 771 -171 -55 c-94 -30 -175 -57 -179 -62 -6 -5 1032 -3223 1118 -3466 6
-18 361 99 358 117 -2 8 -115 358 -252 779 -137 421 -249 766 -247 767 6 7
356 116 360 112 2 -2 117 -350 254 -772 138 -423 253 -771 256 -774 2 -3 84
21 181 52 147 47 176 59 172 73 -24 90 -1122 3462 -1126 3461 -3 0 -82 -26
-176 -56z"/>
<path d="M9418 10496 c-93 -33 -176 -104 -216 -183 -11 -21 -226 -672 -478
-1448 l-459 -1410 0 -85 c1 -71 5 -95 27 -142 31 -67 94 -138 151 -171 39 -23
795 -273 801 -266 5 7 115 353 113 355 -1 2 -160 53 -352 115 -193 62 -354
115 -359 120 -7 7 368 1176 382 1190 4 4 122 -31 262 -77 140 -46 260 -84 265
-84 6 0 35 73 64 163 30 89 56 167 58 174 3 8 -86 41 -261 98 -146 48 -266 91
-266 97 0 12 380 1180 385 1186 2 2 164 -48 361 -112 196 -64 357 -115 358
-114 13 28 114 353 111 356 -2 3 -175 60 -385 128 -347 113 -387 124 -453 124
-39 -1 -88 -7 -109 -14z"/>
<path d="M655 9859 c-192 -94 -419 -204 -502 -244 l-152 -73 78 -163 c44 -90
84 -165 89 -167 6 -2 83 33 172 78 89 45 163 80 165 78 1 -2 323 -660 715
-1463 393 -803 717 -1464 722 -1469 4 -6 75 23 170 69 90 43 164 79 166 81 2
1 -318 664 -712 1472 -394 808 -716 1472 -716 1476 0 3 73 42 163 87 89 45
164 83 166 85 7 7 -153 324 -163 324 -6 0 -168 -77 -361 -171z"/>
<path d="M10217 8368 c-438 -898 -797 -1639 -799 -1646 -2 -9 57 -42 165 -94
92 -44 169 -79 170 -77 2 2 162 333 357 734 195 402 355 732 357 734 4 5 103
-40 109 -50 2 -4 -86 -372 -196 -819 -110 -447 -199 -814 -198 -815 16 -12
329 -157 332 -154 3 2 96 366 207 807 193 764 204 803 223 797 108 -31 190
-12 261 59 46 46 80 112 368 705 177 365 323 677 329 705 37 171 -54 343 -225
425 -34 16 -196 95 -360 175 -164 80 -300 146 -301 146 -2 0 -361 -735 -799
-1632z m1281 976 c17 -8 32 -17 32 -20 0 -9 -541 -1118 -549 -1127 -7 -6 -320
141 -340 159 -5 5 59 139 330 691 l218 443 138 -66 c76 -36 153 -72 171 -80z"/>
<path d="M5605 6874 c-22 -2 -112 -9 -200 -14 -1001 -68 -2023 -368 -3125
-920 -133 -67 -200 -105 -200 -116 0 -30 150 -612 205 -792 101 -334 231 -672
389 -1011 42 -90 75 -165 74 -166 -2 -1 -77 -34 -168 -72 -420 -180 -1054
-486 -1465 -708 -333 -180 -955 -542 -990 -576 -5 -6 42 9 105 31 565 204
1485 514 2080 700 195 61 363 115 372 120 21 12 27 25 -165 -380 -233 -493
-448 -971 -484 -1078 -70 -210 -38 -348 95 -414 40 -20 62 -23 152 -22 138 1
231 32 480 161 102 52 181 91 175 86 -5 -6 -68 -47 -140 -93 -629 -400 -1550
-1093 -2031 -1529 l-59 -53 45 24 c965 534 2140 1134 3180 1625 156 74 286
136 288 138 3 2 -61 73 -141 157 -80 84 -156 167 -168 183 -12 17 11 -6 51
-50 555 -602 1256 -1173 1982 -1614 l86 -52 149 92 c998 622 1754 1293 2356
2094 282 375 522 765 719 1166 l62 125 105 38 c889 319 1666 579 2461 825 84
26 59 26 -188 1 -658 -67 -1294 -164 -1895 -291 -132 -28 -241 -48 -244 -45
-3 2 10 42 27 88 18 46 70 189 116 318 l82 235 174 32 c418 77 1283 218 1775
290 106 15 185 30 175 34 -54 20 -577 34 -1268 34 l-741 0 13 45 c7 25 27 99
44 165 17 66 34 128 36 138 5 15 -36 38 -238 136 -1121 545 -1968 797 -3018
897 -154 15 -1015 28 -1125 18z m925 -255 c1015 -64 1915 -314 2977 -825 118
-56 171 -87 168 -96 -3 -7 -30 -101 -60 -208 -263 -922 -625 -1724 -1088
-2414 -275 -409 -562 -752 -938 -1121 -412 -404 -859 -755 -1408 -1109 l-164
-106 -36 22 c-403 242 -839 563 -1246 919 -134 117 -625 600 -625 616 0 4 37
25 83 45 45 20 210 97 367 170 l285 134 85 -7 85 -6 -86 0 c-96 0 -135 -14
-120 -41 6 -9 51 -66 100 -125 50 -59 91 -112 91 -118 0 -6 26 -40 58 -76 l57
-65 43 49 c24 26 56 75 72 108 27 58 60 187 60 240 0 23 3 25 48 24 l47 -2
-40 -6 -40 -6 -7 -61 c-13 -122 -50 -213 -120 -297 l-40 -47 51 -58 c27 -31
101 -107 163 -169 l113 -111 140 19 c77 11 149 24 160 29 11 5 74 21 140 36
66 14 123 29 127 32 16 16 61 176 78 282 22 133 40 315 40 412 l0 67 43 11
c133 35 318 87 431 122 109 33 154 41 135 24 -6 -5 -438 -131 -521 -152 l-68
-16 0 -54 c0 -180 -42 -478 -87 -617 -16 -48 -28 -87 -27 -87 0 0 50 16 110
36 203 67 421 164 599 267 84 48 235 148 235 154 0 3 -8 12 -18 21 -10 10 -12
13 -5 8 22 -15 58 2 147 69 47 36 90 65 94 65 5 0 58 44 118 98 287 259 542
598 724 961 l42 85 -118 -120 c-263 -267 -555 -455 -969 -627 l-60 -25 -3 -51
c-4 -69 22 -166 58 -221 l31 -45 -31 35 c-41 47 -70 128 -77 219 l-5 76 88 34
c136 51 396 182 516 258 155 98 295 213 440 361 136 138 138 141 208 327 89
235 148 476 182 745 20 159 17 622 -6 780 -23 168 -84 451 -100 467 -5 5 -244
77 -291 87 l-31 7 -18 -128 c-21 -155 -25 -173 -38 -173 -6 0 -7 7 -4 16 7 19
31 173 39 250 l6 51 -77 17 c-42 9 -99 18 -125 21 -26 2 -52 7 -56 9 -15 10
-305 35 -531 47 -241 13 -688 7 -920 -11 -148 -12 -381 -37 -385 -42 -1 -2 21
-142 50 -313 62 -368 67 -405 57 -405 -4 0 -34 163 -67 363 l-60 362 -40 -2
c-86 -6 -562 -93 -781 -144 -339 -78 -751 -206 -1050 -324 -76 -30 -145 -55
-153 -55 -8 0 -60 -22 -115 -49 -96 -47 -203 -97 -273 -127 l-31 -14 24 -82
c48 -159 107 -334 170 -501 l63 -168 -123 -122 c-194 -193 -379 -399 -442
-492 l-58 -86 -30 58 c-153 303 -357 824 -480 1231 -53 175 -129 462 -124 468
3 2 83 42 179 88 1050 506 1962 759 2974 825 182 12 829 12 1015 0z m1666
-1152 l-81 -324 -119 -124 c-65 -68 -126 -128 -135 -133 -9 -5 11 20 44 55 33
35 92 98 130 139 l71 75 78 318 c43 174 82 317 86 317 4 0 -29 -146 -74 -323z
m-82 167 c-4 -20 -27 -117 -53 -217 l-46 -181 -139 -33 c-77 -18 -141 -31
-143 -29 -2 2 5 36 16 77 12 40 19 74 17 77 -6 5 -160 -28 -176 -38 -14 -8
-43 -101 -184 -592 -57 -197 -101 -358 -97 -358 12 0 196 63 204 70 4 4 25 67
45 141 l37 133 155 48 c85 27 158 47 161 46 3 -2 -29 -135 -70 -297 l-76 -294
-110 -45 c-60 -25 -207 -85 -325 -135 -305 -127 -334 -137 -391 -137 -62 0
-84 11 -105 52 -31 60 -15 156 69 413 42 127 121 374 177 550 55 176 114 349
131 384 33 73 90 156 127 186 55 45 151 97 212 115 50 15 489 93 558 99 9 1
11 -8 6 -35z m-790 -6 c-8 -28 -33 -78 -38 -78 -2 0 3 23 12 50 9 28 20 50 25
50 4 0 5 -10 1 -22z m-786 -195 c-31 -77 -47 -107 -54 -100 -2 2 8 33 22 68
15 35 30 74 35 87 5 12 13 22 18 22 5 0 -4 -35 -21 -77z m622 68 c0 -21 -102
-316 -112 -322 -6 -4 -33 -10 -61 -13 -28 -4 -58 -11 -68 -17 -23 -12 -513
-749 -511 -769 0 -8 62 -152 137 -319 74 -167 134 -305 133 -307 -6 -6 -443
-194 -451 -194 -4 0 -73 133 -153 296 -79 164 -146 295 -148 293 -3 -3 -176
-475 -287 -787 l-34 -94 -235 -108 c-129 -59 -284 -130 -344 -159 -60 -28
-113 -50 -117 -49 -4 2 3 30 16 63 96 246 496 1246 595 1490 67 165 124 305
127 312 3 9 -16 7 -63 -7 -38 -10 -70 -17 -72 -16 -3 4 97 248 146 357 l30 66
283 61 c360 79 398 86 406 79 5 -6 -119 -339 -262 -701 -19 -49 -32 -86 -27
-82 4 4 153 201 332 439 l325 431 190 32 c215 36 225 37 225 25z m-3501 -88
c17 -35 29 -63 26 -63 -5 0 -65 116 -65 126 0 12 6 2 39 -63z m216 -13 c14
-27 23 -50 20 -50 -2 0 -16 23 -30 50 -14 28 -23 50 -20 50 2 0 16 -22 30 -50z
m50 -90 c9 -16 13 -30 11 -30 -3 0 -12 14 -21 30 -9 17 -13 30 -11 30 3 0 12
-13 21 -30z m-185 -50 c6 -11 8 -20 6 -20 -3 0 -10 9 -16 20 -6 11 -8 20 -6
20 3 0 10 -9 16 -20z m239 -45 c13 -22 15 -31 6 -20 -18 22 -53 86 -38 70 6
-5 20 -28 32 -50z m-199 -25 c6 -11 8 -20 6 -20 -3 0 -10 9 -16 20 -6 11 -8
20 -6 20 3 0 10 -9 16 -20z m309 -143 c40 -60 71 -111 69 -113 -4 -3 -95 131
-144 211 -38 64 7 5 75 -98z m-279 93 c6 -11 8 -20 6 -20 -3 0 -10 9 -16 20
-6 11 -8 20 -6 20 3 0 10 -9 16 -20z m30 -50 c6 -11 8 -20 6 -20 -3 0 -10 9
-16 20 -6 11 -8 20 -6 20 3 0 10 -9 16 -20z m1467 -29 c60 -28 77 -65 71 -160
-4 -70 -14 -97 -122 -351 -65 -151 -194 -462 -288 -690 -177 -434 -303 -707
-365 -794 -128 -181 -274 -318 -491 -463 -112 -75 -267 -159 -724 -390 -320
-162 -616 -306 -658 -320 -101 -34 -222 -41 -269 -16 -57 30 -75 64 -75 141 0
37 8 94 18 126 47 159 823 1814 940 2006 128 209 255 352 411 462 151 106 352
199 560 256 95 27 723 192 780 205 54 13 171 6 212 -12z m2662 -537 l-103
-409 -143 -152 c-134 -141 -148 -153 -216 -182 -134 -56 -430 -190 -437 -198
-12 -12 -66 -206 -86 -309 -10 -49 -20 -82 -22 -73 -4 22 33 185 68 300 l30
96 52 23 c29 12 141 61 248 108 216 94 216 94 402 295 l90 97 53 218 c45 182
132 519 151 585 3 10 8 16 11 14 2 -3 -42 -189 -98 -413z m-1164 -1035 c-33
-11 -80 -22 -105 -24 -28 -3 -13 2 39 15 46 11 86 22 89 25 3 3 12 5 21 4 9
-1 -11 -10 -44 -20z m-246 -68 c-11 -17 -108 -65 -116 -57 -2 2 18 13 45 24
27 12 55 28 62 37 17 21 23 19 9 -4z m-724 -191 c9 -16 13 -30 11 -30 -3 0
-12 14 -21 30 -9 17 -13 30 -11 30 3 0 12 -13 21 -30z m145 -80 c-8 -5 -19
-10 -25 -10 -5 0 -3 5 5 10 8 5 20 10 25 10 6 0 3 -5 -5 -10z m-5 -449 c-22
-20 -400 -72 -500 -70 -33 1 -18 5 45 10 101 9 341 44 400 58 48 12 66 13 55
2z"/>
<path d="M8396 5808 c57 -184 63 -207 81 -343 25 -182 25 -648 0 -820 -92
-631 -322 -1171 -703 -1650 -113 -141 -368 -396 -509 -509 -453 -360 -999
-600 -1560 -686 -76 -11 -141 -23 -143 -25 -11 -10 621 -544 665 -562 20 -8
337 223 570 414 1061 869 1885 2012 2366 3283 107 283 213 612 203 629 -8 13
-235 113 -455 201 -217 86 -443 164 -508 175 l-42 7 35 -114z"/>
<path d="M4406 4462 l-209 -67 -39 -85 c-298 -642 -688 -1510 -688 -1533 0 -3
107 43 238 103 l237 109 111 258 c165 385 362 826 533 1196 22 48 37 87 33 86
-4 0 -101 -30 -216 -67z"/>
</g>
</svg>
